<svg width="1280" height="452" viewBox="0 0 1280 452" fill="none" xmlns="http://www.w3.org/2000/svg">
<line x1="40.6547" y1="318.522" x2="-2.60879" y2="344.48" stroke="#20201F" stroke-width="5.40794"/>
<line y1="-2.70397" x2="50.4535" y2="-2.70397" transform="matrix(-0.857493 -0.514496 -0.514496 0.857493 39.2635 322.693)" stroke="#20201F" stroke-width="5.40794"/>
<line y1="-2.70397" x2="50.4535" y2="-2.70397" transform="matrix(0.857493 0.514496 0.514496 -0.857493 38.1819 316.204)" stroke="#20201F" stroke-width="5.40794"/>
<line x1="36.7907" y1="320.374" x2="80.0542" y2="294.416" stroke="#20201F" stroke-width="5.40794"/>
<line x1="38.7228" y1="367.739" x2="38.7228" y2="317.285" stroke="#20201F" stroke-width="5.40794"/>
<line x1="200.73" y1="318.522" x2="157.466" y2="344.48" stroke="#20201F" stroke-width="5.40794"/>
<line y1="-2.70397" x2="50.4535" y2="-2.70397" transform="matrix(-0.857493 -0.514496 -0.514496 0.857493 199.339 322.693)" stroke="#20201F" stroke-width="5.40794"/>
<line y1="-2.70397" x2="50.4535" y2="-2.70397" transform="matrix(0.857493 0.514496 0.514496 -0.857493 198.257 316.204)" stroke="#20201F" stroke-width="5.40794"/>
<line x1="196.866" y1="320.374" x2="240.129" y2="294.416" stroke="#20201F" stroke-width="5.40794"/>
<line x1="198.798" y1="367.739" x2="198.798" y2="317.285" stroke="#20201F" stroke-width="5.40794"/>
<line x1="120.692" y1="367.194" x2="77.4287" y2="393.152" stroke="#20201F" stroke-width="5.40794"/>
<line y1="-2.70397" x2="50.4535" y2="-2.70397" transform="matrix(-0.857493 -0.514496 -0.514496 0.857493 119.301 371.365)" stroke="#20201F" stroke-width="5.40794"/>
<line y1="-2.70397" x2="50.4535" y2="-2.70397" transform="matrix(0.857493 0.514496 0.514496 -0.857493 118.219 364.875)" stroke="#20201F" stroke-width="5.40794"/>
<line x1="116.828" y1="369.046" x2="160.092" y2="343.088" stroke="#20201F" stroke-width="5.40794"/>
<line x1="118.76" y1="369.902" x2="118.76" y2="319.448" stroke="#20201F" stroke-width="5.40794"/>
<line x1="118.76" y1="416.41" x2="118.76" y2="365.957" stroke="#20201F" stroke-width="5.40794"/>
<line x1="200.73" y1="415.865" x2="157.466" y2="441.823" stroke="#20201F" stroke-width="5.40794"/>
<line y1="-2.70397" x2="50.4535" y2="-2.70397" transform="matrix(-0.857493 -0.514496 -0.514496 0.857493 199.339 420.036)" stroke="#20201F" stroke-width="5.40794"/>
<line y1="-2.70397" x2="50.4535" y2="-2.70397" transform="matrix(0.857493 0.514496 0.514496 -0.857493 198.257 413.547)" stroke="#20201F" stroke-width="5.40794"/>
<line x1="196.866" y1="417.717" x2="240.129" y2="391.759" stroke="#20201F" stroke-width="5.40794"/>
<line x1="198.798" y1="418.573" x2="198.798" y2="368.12" stroke="#20201F" stroke-width="5.40794"/>
<line x1="198.798" y1="465.082" x2="198.798" y2="414.628" stroke="#20201F" stroke-width="5.40794"/>
<line x1="120.692" y1="269.851" x2="77.4287" y2="295.809" stroke="#20201F" stroke-width="5.40794"/>
<line y1="-2.70397" x2="50.4535" y2="-2.70397" transform="matrix(0.857493 0.514496 0.514496 -0.857493 118.219 267.532)" stroke="#20201F" stroke-width="5.40794"/>
<line x1="118.76" y1="319.067" x2="118.76" y2="268.614" stroke="#20201F" stroke-width="5.40794"/>
<line y1="-2.70397" x2="50.4535" y2="-2.70397" transform="matrix(-0.857493 -0.514496 -0.514496 0.857493 119.301 468.708)" stroke="#20201F" stroke-width="5.40794"/>
<line x1="116.828" y1="466.389" x2="160.092" y2="440.431" stroke="#20201F" stroke-width="5.40794"/>
<line x1="118.76" y1="467.245" x2="118.76" y2="416.791" stroke="#20201F" stroke-width="5.40794"/>
<line x1="40.6547" y1="415.865" x2="-2.60879" y2="441.823" stroke="#20201F" stroke-width="5.40794"/>
<line y1="-2.70397" x2="50.4535" y2="-2.70397" transform="matrix(-0.857493 -0.514496 -0.514496 0.857493 39.2635 420.036)" stroke="#20201F" stroke-width="5.40794"/>
<line y1="-2.70397" x2="50.4535" y2="-2.70397" transform="matrix(0.857493 0.514496 0.514496 -0.857493 38.1819 413.547)" stroke="#20201F" stroke-width="5.40794"/>
<line x1="36.7907" y1="417.717" x2="80.0542" y2="391.759" stroke="#20201F" stroke-width="5.40794"/>
<line x1="38.7228" y1="418.573" x2="38.7228" y2="368.12" stroke="#20201F" stroke-width="5.40794"/>
<line x1="38.7228" y1="465.082" x2="38.7228" y2="414.628" stroke="#20201F" stroke-width="5.40794"/>
<line x1="280.767" y1="367.194" x2="237.504" y2="393.152" stroke="#20201F" stroke-width="5.40794"/>
<line y1="-2.70397" x2="50.4535" y2="-2.70397" transform="matrix(-0.857493 -0.514496 -0.514496 0.857493 279.376 371.365)" stroke="#20201F" stroke-width="5.40794"/>
<line y1="-2.70397" x2="50.4535" y2="-2.70397" transform="matrix(0.857493 0.514496 0.514496 -0.857493 278.294 364.875)" stroke="#20201F" stroke-width="5.40794"/>
<line x1="276.903" y1="369.046" x2="320.167" y2="343.088" stroke="#20201F" stroke-width="5.40794"/>
<line x1="278.835" y1="369.902" x2="278.835" y2="319.448" stroke="#20201F" stroke-width="5.40794"/>
<line x1="278.835" y1="416.41" x2="278.835" y2="365.957" stroke="#20201F" stroke-width="5.40794"/>
<line x1="280.767" y1="269.851" x2="237.504" y2="295.809" stroke="#20201F" stroke-width="5.40794"/>
<line y1="-2.70397" x2="50.4535" y2="-2.70397" transform="matrix(0.857493 0.514496 0.514496 -0.857493 278.294 267.532)" stroke="#20201F" stroke-width="5.40794"/>
<line x1="278.835" y1="319.067" x2="278.835" y2="268.614" stroke="#20201F" stroke-width="5.40794"/>
<line y1="-2.70397" x2="50.4535" y2="-2.70397" transform="matrix(-0.857493 -0.514496 -0.514496 0.857493 279.376 468.708)" stroke="#20201F" stroke-width="5.40794"/>
<line x1="276.903" y1="466.389" x2="320.167" y2="440.431" stroke="#20201F" stroke-width="5.40794"/>
<line x1="278.835" y1="467.245" x2="278.835" y2="416.791" stroke="#20201F" stroke-width="5.40794"/>
<line x1="360.807" y1="318.522" x2="317.544" y2="344.48" stroke="#20201F" stroke-width="5.40794"/>
<line y1="-2.70397" x2="50.4535" y2="-2.70397" transform="matrix(-0.857493 -0.514496 -0.514496 0.857493 359.416 322.693)" stroke="#20201F" stroke-width="5.40794"/>
<line y1="-2.70397" x2="50.4535" y2="-2.70397" transform="matrix(0.857493 0.514496 0.514496 -0.857493 358.334 316.204)" stroke="#20201F" stroke-width="5.40794"/>
<line x1="356.943" y1="320.374" x2="400.207" y2="294.416" stroke="#20201F" stroke-width="5.40794"/>
<line x1="358.875" y1="367.739" x2="358.875" y2="317.285" stroke="#20201F" stroke-width="5.40794"/>
<line x1="520.882" y1="318.522" x2="477.618" y2="344.48" stroke="#20201F" stroke-width="5.40794"/>
<line y1="-2.70397" x2="50.4535" y2="-2.70397" transform="matrix(-0.857493 -0.514496 -0.514496 0.857493 519.491 322.693)" stroke="#20201F" stroke-width="5.40794"/>
<line y1="-2.70397" x2="50.4535" y2="-2.70397" transform="matrix(0.857493 0.514496 0.514496 -0.857493 518.409 316.204)" stroke="#20201F" stroke-width="5.40794"/>
<line x1="517.018" y1="320.374" x2="560.282" y2="294.416" stroke="#20201F" stroke-width="5.40794"/>
<line x1="518.95" y1="367.739" x2="518.95" y2="317.285" stroke="#20201F" stroke-width="5.40794"/>
<line x1="440.845" y1="367.194" x2="397.581" y2="393.152" stroke="#20201F" stroke-width="5.40794"/>
<line y1="-2.70397" x2="50.4535" y2="-2.70397" transform="matrix(-0.857493 -0.514496 -0.514496 0.857493 439.453 371.365)" stroke="#20201F" stroke-width="5.40794"/>
<line y1="-2.70397" x2="50.4535" y2="-2.70397" transform="matrix(0.857493 0.514496 0.514496 -0.857493 438.372 364.875)" stroke="#20201F" stroke-width="5.40794"/>
<line x1="436.981" y1="369.046" x2="480.244" y2="343.088" stroke="#20201F" stroke-width="5.40794"/>
<line x1="438.913" y1="369.902" x2="438.913" y2="319.448" stroke="#20201F" stroke-width="5.40794"/>
<line x1="438.913" y1="416.41" x2="438.913" y2="365.957" stroke="#20201F" stroke-width="5.40794"/>
<line x1="520.882" y1="415.865" x2="477.618" y2="441.823" stroke="#20201F" stroke-width="5.40794"/>
<line y1="-2.70397" x2="50.4535" y2="-2.70397" transform="matrix(-0.857493 -0.514496 -0.514496 0.857493 519.491 420.036)" stroke="#20201F" stroke-width="5.40794"/>
<line y1="-2.70397" x2="50.4535" y2="-2.70397" transform="matrix(0.857493 0.514496 0.514496 -0.857493 518.409 413.547)" stroke="#20201F" stroke-width="5.40794"/>
<line x1="517.018" y1="417.717" x2="560.282" y2="391.759" stroke="#20201F" stroke-width="5.40794"/>
<line x1="518.95" y1="418.573" x2="518.95" y2="368.12" stroke="#20201F" stroke-width="5.40794"/>
<line x1="518.95" y1="465.082" x2="518.95" y2="414.628" stroke="#20201F" stroke-width="5.40794"/>
<line x1="440.845" y1="269.851" x2="397.581" y2="295.809" stroke="#20201F" stroke-width="5.40794"/>
<line y1="-2.70397" x2="50.4535" y2="-2.70397" transform="matrix(0.857493 0.514496 0.514496 -0.857493 438.372 267.532)" stroke="#20201F" stroke-width="5.40794"/>
<line x1="438.913" y1="319.067" x2="438.913" y2="268.614" stroke="#20201F" stroke-width="5.40794"/>
<line y1="-2.70397" x2="50.4535" y2="-2.70397" transform="matrix(-0.857493 -0.514496 -0.514496 0.857493 439.453 468.708)" stroke="#20201F" stroke-width="5.40794"/>
<line x1="436.981" y1="466.389" x2="480.244" y2="440.431" stroke="#20201F" stroke-width="5.40794"/>
<line x1="438.913" y1="467.245" x2="438.913" y2="416.791" stroke="#20201F" stroke-width="5.40794"/>
<line x1="360.807" y1="415.865" x2="317.544" y2="441.823" stroke="#20201F" stroke-width="5.40794"/>
<line y1="-2.70397" x2="50.4535" y2="-2.70397" transform="matrix(-0.857493 -0.514496 -0.514496 0.857493 359.416 420.036)" stroke="#20201F" stroke-width="5.40794"/>
<line y1="-2.70397" x2="50.4535" y2="-2.70397" transform="matrix(0.857493 0.514496 0.514496 -0.857493 358.334 413.547)" stroke="#20201F" stroke-width="5.40794"/>
<line x1="356.943" y1="417.717" x2="400.207" y2="391.759" stroke="#20201F" stroke-width="5.40794"/>
<line x1="358.875" y1="418.573" x2="358.875" y2="368.12" stroke="#20201F" stroke-width="5.40794"/>
<line x1="358.875" y1="465.082" x2="358.875" y2="414.628" stroke="#20201F" stroke-width="5.40794"/>
<line x1="600.92" y1="367.194" x2="557.656" y2="393.152" stroke="#20201F" stroke-width="5.40794"/>
<line y1="-2.70397" x2="50.4535" y2="-2.70397" transform="matrix(-0.857493 -0.514496 -0.514496 0.857493 599.528 371.365)" stroke="#20201F" stroke-width="5.40794"/>
<line y1="-2.70397" x2="50.4535" y2="-2.70397" transform="matrix(0.857493 0.514496 0.514496 -0.857493 598.447 364.875)" stroke="#20201F" stroke-width="5.40794"/>
<line x1="597.056" y1="369.046" x2="640.319" y2="343.088" stroke="#20201F" stroke-width="5.40794"/>
<line x1="598.988" y1="369.902" x2="598.988" y2="319.448" stroke="#20201F" stroke-width="5.40794"/>
<line x1="598.988" y1="416.41" x2="598.988" y2="365.957" stroke="#20201F" stroke-width="5.40794"/>
<line x1="600.92" y1="269.851" x2="557.656" y2="295.809" stroke="#20201F" stroke-width="5.40794"/>
<line y1="-2.70397" x2="50.4535" y2="-2.70397" transform="matrix(0.857493 0.514496 0.514496 -0.857493 598.447 267.532)" stroke="#20201F" stroke-width="5.40794"/>
<line x1="598.988" y1="319.067" x2="598.988" y2="268.614" stroke="#20201F" stroke-width="5.40794"/>
<line y1="-2.70397" x2="50.4535" y2="-2.70397" transform="matrix(-0.857493 -0.514496 -0.514496 0.857493 599.528 468.708)" stroke="#20201F" stroke-width="5.40794"/>
<line x1="597.056" y1="466.389" x2="640.319" y2="440.431" stroke="#20201F" stroke-width="5.40794"/>
<line x1="598.988" y1="467.245" x2="598.988" y2="416.791" stroke="#20201F" stroke-width="5.40794"/>
<line x1="680.956" y1="318.522" x2="637.692" y2="344.481" stroke="#20201F" stroke-width="5.40794"/>
<line y1="-2.70397" x2="50.4535" y2="-2.70397" transform="matrix(-0.857493 -0.514496 -0.514496 0.857493 679.564 322.693)" stroke="#20201F" stroke-width="5.40794"/>
<line y1="-2.70397" x2="50.4535" y2="-2.70397" transform="matrix(0.857493 0.514496 0.514496 -0.857493 678.483 316.204)" stroke="#20201F" stroke-width="5.40794"/>
<line x1="677.091" y1="320.375" x2="720.355" y2="294.417" stroke="#20201F" stroke-width="5.40794"/>
<line x1="679.024" y1="367.739" x2="679.024" y2="317.285" stroke="#20201F" stroke-width="5.40794"/>
<line x1="841.03" y1="318.522" x2="797.767" y2="344.481" stroke="#20201F" stroke-width="5.40794"/>
<line y1="-2.70397" x2="50.4535" y2="-2.70397" transform="matrix(-0.857493 -0.514496 -0.514496 0.857493 839.639 322.693)" stroke="#20201F" stroke-width="5.40794"/>
<line y1="-2.70397" x2="50.4535" y2="-2.70397" transform="matrix(0.857493 0.514496 0.514496 -0.857493 838.558 316.204)" stroke="#20201F" stroke-width="5.40794"/>
<line x1="837.167" y1="320.375" x2="880.43" y2="294.417" stroke="#20201F" stroke-width="5.40794"/>
<line x1="839.099" y1="321.23" x2="839.099" y2="270.777" stroke="#20201F" stroke-width="5.40794"/>
<line x1="839.099" y1="367.739" x2="839.099" y2="317.285" stroke="#20201F" stroke-width="5.40794"/>
<line x1="760.993" y1="367.194" x2="717.729" y2="393.152" stroke="#20201F" stroke-width="5.40794"/>
<line y1="-2.70397" x2="50.4535" y2="-2.70397" transform="matrix(-0.857493 -0.514496 -0.514496 0.857493 759.602 371.365)" stroke="#20201F" stroke-width="5.40794"/>
<line y1="-2.70397" x2="50.4535" y2="-2.70397" transform="matrix(0.857493 0.514496 0.514496 -0.857493 758.52 364.875)" stroke="#20201F" stroke-width="5.40794"/>
<line x1="757.129" y1="369.046" x2="800.393" y2="343.088" stroke="#20201F" stroke-width="5.40794"/>
<line x1="759.061" y1="369.902" x2="759.061" y2="319.448" stroke="#20201F" stroke-width="5.40794"/>
<line x1="759.061" y1="416.41" x2="759.061" y2="365.957" stroke="#20201F" stroke-width="5.40794"/>
<line x1="841.03" y1="415.865" x2="797.767" y2="441.823" stroke="#20201F" stroke-width="5.40794"/>
<line y1="-2.70397" x2="50.4535" y2="-2.70397" transform="matrix(-0.857493 -0.514496 -0.514496 0.857493 839.639 420.036)" stroke="#20201F" stroke-width="5.40794"/>
<line y1="-2.70397" x2="50.4535" y2="-2.70397" transform="matrix(0.857493 0.514496 0.514496 -0.857493 838.558 413.547)" stroke="#20201F" stroke-width="5.40794"/>
<line x1="837.167" y1="417.717" x2="880.43" y2="391.759" stroke="#20201F" stroke-width="5.40794"/>
<line x1="839.099" y1="418.573" x2="839.099" y2="368.12" stroke="#20201F" stroke-width="5.40794"/>
<line x1="839.099" y1="465.082" x2="839.099" y2="414.628" stroke="#20201F" stroke-width="5.40794"/>
<line x1="760.993" y1="269.851" x2="717.729" y2="295.809" stroke="#20201F" stroke-width="5.40794"/>
<line y1="-2.70397" x2="50.4535" y2="-2.70397" transform="matrix(0.857493 0.514496 0.514496 -0.857493 758.52 267.532)" stroke="#20201F" stroke-width="5.40794"/>
<line x1="757.129" y1="271.703" x2="800.393" y2="245.745" stroke="#20201F" stroke-width="5.40794"/>
<line x1="759.061" y1="319.067" x2="759.061" y2="268.614" stroke="#20201F" stroke-width="5.40794"/>
<line y1="-2.70397" x2="50.4535" y2="-2.70397" transform="matrix(-0.857493 -0.514496 -0.514496 0.857493 759.602 468.708)" stroke="#20201F" stroke-width="5.40794"/>
<line x1="757.129" y1="466.389" x2="800.393" y2="440.431" stroke="#20201F" stroke-width="5.40794"/>
<line x1="759.061" y1="467.245" x2="759.061" y2="416.791" stroke="#20201F" stroke-width="5.40794"/>
<line x1="680.956" y1="415.865" x2="637.692" y2="441.823" stroke="#20201F" stroke-width="5.40794"/>
<line y1="-2.70397" x2="50.4535" y2="-2.70397" transform="matrix(-0.857493 -0.514496 -0.514496 0.857493 679.564 420.036)" stroke="#20201F" stroke-width="5.40794"/>
<line y1="-2.70397" x2="50.4535" y2="-2.70397" transform="matrix(0.857493 0.514496 0.514496 -0.857493 678.483 413.547)" stroke="#20201F" stroke-width="5.40794"/>
<line x1="677.091" y1="417.717" x2="720.355" y2="391.759" stroke="#20201F" stroke-width="5.40794"/>
<line x1="679.024" y1="418.573" x2="679.024" y2="368.12" stroke="#20201F" stroke-width="5.40794"/>
<line x1="679.024" y1="465.082" x2="679.024" y2="414.628" stroke="#20201F" stroke-width="5.40794"/>
<line x1="921.068" y1="367.194" x2="877.805" y2="393.152" stroke="#20201F" stroke-width="5.40794"/>
<line y1="-2.70397" x2="50.4535" y2="-2.70397" transform="matrix(-0.857493 -0.514496 -0.514496 0.857493 919.677 371.365)" stroke="#20201F" stroke-width="5.40794"/>
<line y1="-2.70397" x2="50.4535" y2="-2.70397" transform="matrix(0.857493 0.514496 0.514496 -0.857493 918.595 364.875)" stroke="#20201F" stroke-width="5.40794"/>
<line x1="917.204" y1="369.046" x2="960.468" y2="343.088" stroke="#20201F" stroke-width="5.40794"/>
<line x1="919.136" y1="369.902" x2="919.136" y2="319.448" stroke="#20201F" stroke-width="5.40794"/>
<line x1="919.136" y1="416.41" x2="919.136" y2="365.957" stroke="#20201F" stroke-width="5.40794"/>
<line x1="921.068" y1="269.851" x2="877.805" y2="295.809" stroke="#20201F" stroke-width="5.40794"/>
<line y1="-2.70397" x2="50.4535" y2="-2.70397" transform="matrix(-0.857493 -0.514496 -0.514496 0.857493 919.677 274.022)" stroke="#20201F" stroke-width="5.40794"/>
<line y1="-2.70397" x2="50.4535" y2="-2.70397" transform="matrix(0.857493 0.514496 0.514496 -0.857493 918.595 267.532)" stroke="#20201F" stroke-width="5.40794"/>
<line x1="917.204" y1="271.703" x2="960.468" y2="245.745" stroke="#20201F" stroke-width="5.40794"/>
<line x1="919.136" y1="272.559" x2="919.136" y2="222.106" stroke="#20201F" stroke-width="5.40794"/>
<line x1="919.136" y1="319.067" x2="919.136" y2="268.614" stroke="#20201F" stroke-width="5.40794"/>
<line y1="-2.70397" x2="50.4535" y2="-2.70397" transform="matrix(-0.857493 -0.514496 -0.514496 0.857493 919.677 468.708)" stroke="#20201F" stroke-width="5.40794"/>
<line x1="917.204" y1="466.389" x2="960.468" y2="440.431" stroke="#20201F" stroke-width="5.40794"/>
<line x1="919.136" y1="467.245" x2="919.136" y2="416.791" stroke="#20201F" stroke-width="5.40794"/>
<line x1="1001.1" y1="318.522" x2="957.84" y2="344.481" stroke="#20201F" stroke-width="5.40794"/>
<line y1="-2.70397" x2="50.4535" y2="-2.70397" transform="matrix(-0.857493 -0.514496 -0.514496 0.857493 999.713 322.693)" stroke="#20201F" stroke-width="5.40794"/>
<line y1="-2.70397" x2="50.4535" y2="-2.70397" transform="matrix(0.857493 0.514496 0.514496 -0.857493 998.631 316.204)" stroke="#20201F" stroke-width="5.40794"/>
<line x1="997.24" y1="320.375" x2="1040.5" y2="294.417" stroke="#20201F" stroke-width="5.40794"/>
<line x1="999.172" y1="321.23" x2="999.172" y2="270.777" stroke="#20201F" stroke-width="5.40794"/>
<line x1="999.172" y1="367.739" x2="999.172" y2="317.285" stroke="#20201F" stroke-width="5.40794"/>
<line x1="1161.18" y1="318.522" x2="1117.92" y2="344.481" stroke="#20201F" stroke-width="5.40794"/>
<line y1="-2.70397" x2="50.4535" y2="-2.70397" transform="matrix(-0.857493 -0.514496 -0.514496 0.857493 1159.79 322.693)" stroke="#20201F" stroke-width="5.40794"/>
<line y1="-2.70397" x2="50.4535" y2="-2.70397" transform="matrix(0.857493 0.514496 0.514496 -0.857493 1158.71 316.204)" stroke="#20201F" stroke-width="5.40794"/>
<line x1="1157.31" y1="320.375" x2="1200.58" y2="294.417" stroke="#20201F" stroke-width="5.40794"/>
<line x1="1159.25" y1="321.23" x2="1159.25" y2="270.777" stroke="#20201F" stroke-width="5.40794"/>
<line x1="1159.25" y1="367.739" x2="1159.25" y2="317.285" stroke="#20201F" stroke-width="5.40794"/>
<line x1="1081.14" y1="367.194" x2="1037.88" y2="393.152" stroke="#20201F" stroke-width="5.40794"/>
<line y1="-2.70397" x2="50.4535" y2="-2.70397" transform="matrix(-0.857493 -0.514496 -0.514496 0.857493 1079.75 371.365)" stroke="#20201F" stroke-width="5.40794"/>
<line y1="-2.70397" x2="50.4535" y2="-2.70397" transform="matrix(0.857493 0.514496 0.514496 -0.857493 1078.67 364.875)" stroke="#20201F" stroke-width="5.40794"/>
<line x1="1077.28" y1="369.046" x2="1120.54" y2="343.088" stroke="#20201F" stroke-width="5.40794"/>
<line x1="1079.21" y1="369.902" x2="1079.21" y2="319.448" stroke="#20201F" stroke-width="5.40794"/>
<line x1="1079.21" y1="416.41" x2="1079.21" y2="365.957" stroke="#20201F" stroke-width="5.40794"/>
<line x1="1161.18" y1="415.865" x2="1117.92" y2="441.823" stroke="#20201F" stroke-width="5.40794"/>
<line y1="-2.70397" x2="50.4535" y2="-2.70397" transform="matrix(-0.857493 -0.514496 -0.514496 0.857493 1159.79 420.036)" stroke="#20201F" stroke-width="5.40794"/>
<line y1="-2.70397" x2="50.4535" y2="-2.70397" transform="matrix(0.857493 0.514496 0.514496 -0.857493 1158.71 413.547)" stroke="#20201F" stroke-width="5.40794"/>
<line x1="1157.31" y1="417.717" x2="1200.58" y2="391.759" stroke="#20201F" stroke-width="5.40794"/>
<line x1="1159.25" y1="418.573" x2="1159.25" y2="368.12" stroke="#20201F" stroke-width="5.40794"/>
<line x1="1159.25" y1="465.082" x2="1159.25" y2="414.628" stroke="#20201F" stroke-width="5.40794"/>
<line x1="1081.14" y1="269.851" x2="1037.88" y2="295.809" stroke="#20201F" stroke-width="5.40794"/>
<line y1="-2.70397" x2="50.4535" y2="-2.70397" transform="matrix(-0.857493 -0.514496 -0.514496 0.857493 1079.75 274.022)" stroke="#20201F" stroke-width="5.40794"/>
<line y1="-2.70397" x2="50.4535" y2="-2.70397" transform="matrix(0.857493 0.514496 0.514496 -0.857493 1078.67 267.532)" stroke="#20201F" stroke-width="5.40794"/>
<line x1="1077.28" y1="271.703" x2="1120.54" y2="245.745" stroke="#20201F" stroke-width="5.40794"/>
<line x1="1079.21" y1="272.559" x2="1079.21" y2="222.106" stroke="#20201F" stroke-width="5.40794"/>
<line x1="1079.21" y1="319.067" x2="1079.21" y2="268.614" stroke="#20201F" stroke-width="5.40794"/>
<line y1="-2.70397" x2="50.4535" y2="-2.70397" transform="matrix(-0.857493 -0.514496 -0.514496 0.857493 1079.75 468.708)" stroke="#20201F" stroke-width="5.40794"/>
<line x1="1077.28" y1="466.389" x2="1120.54" y2="440.431" stroke="#20201F" stroke-width="5.40794"/>
<line x1="1079.21" y1="467.245" x2="1079.21" y2="416.791" stroke="#20201F" stroke-width="5.40794"/>
<line x1="1001.1" y1="415.865" x2="957.84" y2="441.823" stroke="#20201F" stroke-width="5.40794"/>
<line y1="-2.70397" x2="50.4535" y2="-2.70397" transform="matrix(-0.857493 -0.514496 -0.514496 0.857493 999.713 420.036)" stroke="#20201F" stroke-width="5.40794"/>
<line y1="-2.70397" x2="50.4535" y2="-2.70397" transform="matrix(0.857493 0.514496 0.514496 -0.857493 998.631 413.547)" stroke="#20201F" stroke-width="5.40794"/>
<line x1="997.24" y1="417.717" x2="1040.5" y2="391.759" stroke="#20201F" stroke-width="5.40794"/>
<line x1="999.172" y1="418.573" x2="999.172" y2="368.12" stroke="#20201F" stroke-width="5.40794"/>
<line x1="999.172" y1="465.082" x2="999.172" y2="414.628" stroke="#20201F" stroke-width="5.40794"/>
<line x1="1241.22" y1="367.194" x2="1197.95" y2="393.152" stroke="#20201F" stroke-width="5.40794"/>
<line y1="-2.70397" x2="50.4535" y2="-2.70397" transform="matrix(-0.857493 -0.514496 -0.514496 0.857493 1239.83 371.365)" stroke="#20201F" stroke-width="5.40794"/>
<line y1="-2.70397" x2="50.4535" y2="-2.70397" transform="matrix(0.857493 0.514496 0.514496 -0.857493 1238.74 364.875)" stroke="#20201F" stroke-width="5.40794"/>
<line x1="1237.35" y1="369.046" x2="1280.62" y2="343.088" stroke="#20201F" stroke-width="5.40794"/>
<line x1="1239.28" y1="369.902" x2="1239.28" y2="319.448" stroke="#20201F" stroke-width="5.40794"/>
<line x1="1239.28" y1="416.41" x2="1239.28" y2="365.957" stroke="#20201F" stroke-width="5.40794"/>
<line x1="1241.22" y1="269.851" x2="1197.95" y2="295.809" stroke="#20201F" stroke-width="5.40794"/>
<line y1="-2.70397" x2="50.4535" y2="-2.70397" transform="matrix(-0.857493 -0.514496 -0.514496 0.857493 1239.83 274.022)" stroke="#20201F" stroke-width="5.40794"/>
<line y1="-2.70397" x2="50.4535" y2="-2.70397" transform="matrix(0.857493 0.514496 0.514496 -0.857493 1238.74 267.532)" stroke="#20201F" stroke-width="5.40794"/>
<line x1="1237.35" y1="271.703" x2="1280.62" y2="245.745" stroke="#20201F" stroke-width="5.40794"/>
<line x1="1239.28" y1="272.559" x2="1239.28" y2="222.106" stroke="#20201F" stroke-width="5.40794"/>
<line x1="1239.28" y1="319.067" x2="1239.28" y2="268.614" stroke="#20201F" stroke-width="5.40794"/>
<line y1="-2.70397" x2="50.4535" y2="-2.70397" transform="matrix(-0.857493 -0.514496 -0.514496 0.857493 1239.83 468.708)" stroke="#20201F" stroke-width="5.40794"/>
<line x1="1237.35" y1="466.389" x2="1280.62" y2="440.431" stroke="#20201F" stroke-width="5.40794"/>
<line x1="1239.28" y1="467.245" x2="1239.28" y2="416.791" stroke="#20201F" stroke-width="5.40794"/>
<line y1="-2.70397" x2="50.4535" y2="-2.70397" transform="matrix(-0.857493 -0.514496 -0.514496 0.857493 999.301 225.708)" stroke="#3E3E3D" stroke-width="5.40794"/>
<line x1="996.828" y1="223.389" x2="1040.09" y2="197.431" stroke="#3E3E3D" stroke-width="5.40794"/>
<line x1="998.76" y1="270.753" x2="998.76" y2="220.299" stroke="#3E3E3D" stroke-width="5.40794"/>
<line y1="-2.70397" x2="50.4535" y2="-2.70397" transform="matrix(0.857493 0.514496 0.514496 -0.857493 918.182 73.2036)" stroke="#20201F" stroke-width="5.40794"/>
<line x1="916.791" y1="77.3745" x2="960.054" y2="51.4164" stroke="#20201F" stroke-width="5.40794"/>
<line x1="918.723" y1="124.739" x2="918.723" y2="74.285" stroke="#20201F" stroke-width="5.40794"/>
<line x1="1080.73" y1="75.5222" x2="1037.47" y2="101.48" stroke="#20201F" stroke-width="5.40794"/>
<line y1="-2.70397" x2="50.4535" y2="-2.70397" transform="matrix(-0.857493 -0.514496 -0.514496 0.857493 1079.34 79.6931)" stroke="#20201F" stroke-width="5.40794"/>
<line y1="-2.70397" x2="50.4535" y2="-2.70397" transform="matrix(0.857493 0.514496 0.514496 -0.857493 1078.26 73.2036)" stroke="#20201F" stroke-width="5.40794"/>
<line x1="1076.87" y1="77.3745" x2="1120.13" y2="51.4164" stroke="#20201F" stroke-width="5.40794"/>
<line x1="1078.8" y1="124.739" x2="1078.8" y2="74.285" stroke="#20201F" stroke-width="5.40794"/>
<line x1="1000.69" y1="124.194" x2="957.429" y2="150.152" stroke="#20201F" stroke-width="5.40794"/>
<line y1="-2.70397" x2="50.4535" y2="-2.70397" transform="matrix(-0.857493 -0.514496 -0.514496 0.857493 999.301 128.365)" stroke="#20201F" stroke-width="5.40794"/>
<line y1="-2.70397" x2="50.4535" y2="-2.70397" transform="matrix(0.857493 0.514496 0.514496 -0.857493 998.219 121.875)" stroke="#20201F" stroke-width="5.40794"/>
<line x1="996.828" y1="126.046" x2="1040.09" y2="100.088" stroke="#20201F" stroke-width="5.40794"/>
<line x1="998.76" y1="126.902" x2="998.76" y2="76.4483" stroke="#20201F" stroke-width="5.40794"/>
<line x1="998.76" y1="173.41" x2="998.76" y2="122.957" stroke="#20201F" stroke-width="5.40794"/>
<line x1="1080.73" y1="172.865" x2="1037.47" y2="198.823" stroke="#20201F" stroke-width="5.40794"/>
<line y1="-2.70397" x2="50.4535" y2="-2.70397" transform="matrix(-0.857493 -0.514496 -0.514496 0.857493 1079.34 177.036)" stroke="#20201F" stroke-width="5.40794"/>
<line y1="-2.70397" x2="50.4535" y2="-2.70397" transform="matrix(0.857493 0.514496 0.514496 -0.857493 1078.26 170.547)" stroke="#20201F" stroke-width="5.40794"/>
<line x1="1076.87" y1="174.717" x2="1120.13" y2="148.759" stroke="#20201F" stroke-width="5.40794"/>
<line x1="1078.8" y1="175.573" x2="1078.8" y2="125.12" stroke="#20201F" stroke-width="5.40794"/>
<line x1="1078.8" y1="222.082" x2="1078.8" y2="171.628" stroke="#20201F" stroke-width="5.40794"/>
<line x1="1000.69" y1="26.8509" x2="957.429" y2="52.809" stroke="#20201F" stroke-width="5.40794"/>
<line y1="-2.70397" x2="50.4535" y2="-2.70397" transform="matrix(0.857493 0.514496 0.514496 -0.857493 998.219 24.5322)" stroke="#20201F" stroke-width="5.40794"/>
<line x1="998.76" y1="76.0671" x2="998.76" y2="25.6136" stroke="#20201F" stroke-width="5.40794"/>
<line x1="1000.69" y1="221.537" x2="957.429" y2="247.495" stroke="#92928D" stroke-width="5.40794"/>
<line y1="-2.70397" x2="50.4535" y2="-2.70397" transform="matrix(0.857493 0.514496 0.514496 -0.857493 998.219 219.218)" stroke="#92928D" stroke-width="5.40794"/>
<line x1="998.76" y1="224.245" x2="998.76" y2="173.791" stroke="#92928D" stroke-width="5.40794"/>
<line x1="920.655" y1="172.865" x2="877.391" y2="198.823" stroke="#20201F" stroke-width="5.40794"/>
<line y1="-2.70397" x2="50.4535" y2="-2.70397" transform="matrix(0.857493 0.514496 0.514496 -0.857493 918.182 170.547)" stroke="#20201F" stroke-width="5.40794"/>
<line x1="916.791" y1="174.717" x2="960.054" y2="148.759" stroke="#20201F" stroke-width="5.40794"/>
<line x1="918.723" y1="175.573" x2="918.723" y2="125.12" stroke="#20201F" stroke-width="5.40794"/>
<line x1="918.723" y1="222.082" x2="918.723" y2="171.628" stroke="#20201F" stroke-width="5.40794"/>
<line x1="1160.77" y1="124.194" x2="1117.5" y2="150.152" stroke="#20201F" stroke-width="5.40794"/>
<line y1="-2.70397" x2="50.4535" y2="-2.70397" transform="matrix(-0.857493 -0.514496 -0.514496 0.857493 1159.38 128.365)" stroke="#20201F" stroke-width="5.40794"/>
<line y1="-2.70397" x2="50.4535" y2="-2.70397" transform="matrix(0.857493 0.514496 0.514496 -0.857493 1158.29 121.875)" stroke="#20201F" stroke-width="5.40794"/>
<line x1="1156.9" y1="126.046" x2="1200.17" y2="100.088" stroke="#20201F" stroke-width="5.40794"/>
<line x1="1158.84" y1="126.902" x2="1158.84" y2="76.4483" stroke="#20201F" stroke-width="5.40794"/>
<line x1="1158.84" y1="173.41" x2="1158.84" y2="122.957" stroke="#20201F" stroke-width="5.40794"/>
<line x1="1160.77" y1="26.8509" x2="1117.5" y2="52.809" stroke="#20201F" stroke-width="5.40794"/>
<line y1="-2.70397" x2="50.4535" y2="-2.70397" transform="matrix(0.857493 0.514496 0.514496 -0.857493 1158.29 24.5322)" stroke="#20201F" stroke-width="5.40794"/>
<line x1="1158.84" y1="76.0671" x2="1158.84" y2="25.6136" stroke="#20201F" stroke-width="5.40794"/>
<line x1="1160.77" y1="221.537" x2="1117.5" y2="247.495" stroke="#20201F" stroke-width="5.40794"/>
<line y1="-2.70397" x2="50.4535" y2="-2.70397" transform="matrix(-0.857493 -0.514496 -0.514496 0.857493 1159.38 225.708)" stroke="#20201F" stroke-width="5.40794"/>
<line y1="-2.70397" x2="50.4535" y2="-2.70397" transform="matrix(0.857493 0.514496 0.514496 -0.857493 1158.29 219.218)" stroke="#20201F" stroke-width="5.40794"/>
<line x1="1156.9" y1="223.389" x2="1200.17" y2="197.431" stroke="#20201F" stroke-width="5.40794"/>
<line x1="1158.84" y1="224.245" x2="1158.84" y2="173.791" stroke="#20201F" stroke-width="5.40794"/>
<line x1="1158.84" y1="270.753" x2="1158.84" y2="220.299" stroke="#20201F" stroke-width="5.40794"/>
<line x1="840.653" y1="220.893" x2="797.389" y2="246.851" stroke="#20201F" stroke-width="5.40794"/>
<line y1="-2.70397" x2="50.4535" y2="-2.70397" transform="matrix(0.857493 0.514496 0.514496 -0.857493 838.184 218.574)" stroke="#20201F" stroke-width="5.40794"/>
<line x1="836.792" y1="222.745" x2="880.056" y2="196.787" stroke="#20201F" stroke-width="5.40794"/>
<line x1="838.722" y1="270.108" x2="838.722" y2="219.655" stroke="#20201F" stroke-width="5.40794"/>
<line x1="1241.65" y1="75.5222" x2="1198.39" y2="101.48" stroke="#20201F" stroke-width="5.40794"/>
<line y1="-2.70397" x2="50.4535" y2="-2.70397" transform="matrix(-0.857493 -0.514496 -0.514496 0.857493 1240.26 79.6931)" stroke="#20201F" stroke-width="5.40794"/>
<line y1="-2.70397" x2="50.4535" y2="-2.70397" transform="matrix(0.857493 0.514496 0.514496 -0.857493 1239.18 73.2036)" stroke="#20201F" stroke-width="5.40794"/>
<line x1="1237.79" y1="77.3745" x2="1281.05" y2="51.4164" stroke="#20201F" stroke-width="5.40794"/>
<line x1="1239.72" y1="124.739" x2="1239.72" y2="74.285" stroke="#20201F" stroke-width="5.40794"/>
<line x1="1321.69" y1="124.194" x2="1278.43" y2="150.152" stroke="#20201F" stroke-width="5.40794"/>
<line y1="-2.70397" x2="50.4535" y2="-2.70397" transform="matrix(-0.857493 -0.514496 -0.514496 0.857493 1320.3 128.365)" stroke="#20201F" stroke-width="5.40794"/>
<line x1="1321.69" y1="26.8506" x2="1278.43" y2="52.8087" stroke="#20201F" stroke-width="5.40794"/>
<line x1="1321.69" y1="221.536" x2="1278.43" y2="247.495" stroke="#20201F" stroke-width="5.40794"/>
<line y1="-2.70397" x2="50.4535" y2="-2.70397" transform="matrix(-0.857493 -0.514496 -0.514496 0.857493 1320.3 225.708)" stroke="#20201F" stroke-width="5.40794"/>
<line x1="1241.65" y1="172.865" x2="1198.39" y2="198.823" stroke="#20201F" stroke-width="5.40794"/>
<line y1="-2.70397" x2="50.4535" y2="-2.70397" transform="matrix(-0.857493 -0.514496 -0.514496 0.857493 1240.26 177.036)" stroke="#20201F" stroke-width="5.40794"/>
<line y1="-2.70397" x2="50.4535" y2="-2.70397" transform="matrix(0.857493 0.514496 0.514496 -0.857493 1239.18 170.546)" stroke="#20201F" stroke-width="5.40794"/>
<line x1="1237.79" y1="174.717" x2="1281.05" y2="148.759" stroke="#20201F" stroke-width="5.40794"/>
<line x1="1239.72" y1="175.573" x2="1239.72" y2="125.119" stroke="#20201F" stroke-width="5.40794"/>
<line x1="1239.72" y1="222.081" x2="1239.72" y2="171.628" stroke="#20201F" stroke-width="5.40794"/>
</svg>
