<svg width="605" height="452" viewBox="0 0 605 452" fill="none" xmlns="http://www.w3.org/2000/svg">
<line y1="-2.70397" x2="50.4535" y2="-2.70397" transform="matrix(0.857493 0.514496 0.514496 -0.857493 3.48267 316.204)" stroke="#20201F" stroke-width="5.40794"/>
<line x1="2.09148" y1="320.375" x2="45.355" y2="294.417" stroke="#20201F" stroke-width="5.40794"/>
<line x1="4.02357" y1="367.739" x2="4.02357" y2="317.285" stroke="#20201F" stroke-width="5.40794"/>
<line x1="166.03" y1="318.522" x2="122.767" y2="344.481" stroke="#20201F" stroke-width="5.40794"/>
<line y1="-2.70397" x2="50.4535" y2="-2.70397" transform="matrix(-0.857493 -0.514496 -0.514496 0.857493 164.639 322.693)" stroke="#20201F" stroke-width="5.40794"/>
<line y1="-2.70397" x2="50.4535" y2="-2.70397" transform="matrix(0.857493 0.514496 0.514496 -0.857493 163.558 316.204)" stroke="#20201F" stroke-width="5.40794"/>
<line x1="162.167" y1="320.375" x2="205.43" y2="294.417" stroke="#20201F" stroke-width="5.40794"/>
<line x1="164.099" y1="321.23" x2="164.099" y2="270.777" stroke="#20201F" stroke-width="5.40794"/>
<line x1="164.099" y1="367.739" x2="164.099" y2="317.285" stroke="#20201F" stroke-width="5.40794"/>
<line x1="85.993" y1="367.194" x2="42.7295" y2="393.152" stroke="#20201F" stroke-width="5.40794"/>
<line y1="-2.70397" x2="50.4535" y2="-2.70397" transform="matrix(-0.857493 -0.514496 -0.514496 0.857493 84.6018 371.365)" stroke="#20201F" stroke-width="5.40794"/>
<line y1="-2.70397" x2="50.4535" y2="-2.70397" transform="matrix(0.857493 0.514496 0.514496 -0.857493 83.5202 364.875)" stroke="#20201F" stroke-width="5.40794"/>
<line x1="82.129" y1="369.046" x2="125.393" y2="343.088" stroke="#20201F" stroke-width="5.40794"/>
<line x1="84.061" y1="369.902" x2="84.061" y2="319.448" stroke="#20201F" stroke-width="5.40794"/>
<line x1="84.061" y1="416.41" x2="84.061" y2="365.957" stroke="#20201F" stroke-width="5.40794"/>
<line x1="166.03" y1="415.865" x2="122.767" y2="441.823" stroke="#20201F" stroke-width="5.40794"/>
<line y1="-2.70397" x2="50.4535" y2="-2.70397" transform="matrix(-0.857493 -0.514496 -0.514496 0.857493 164.639 420.036)" stroke="#20201F" stroke-width="5.40794"/>
<line y1="-2.70397" x2="50.4535" y2="-2.70397" transform="matrix(0.857493 0.514496 0.514496 -0.857493 163.558 413.547)" stroke="#20201F" stroke-width="5.40794"/>
<line x1="162.167" y1="417.717" x2="205.43" y2="391.759" stroke="#20201F" stroke-width="5.40794"/>
<line x1="164.099" y1="418.573" x2="164.099" y2="368.12" stroke="#20201F" stroke-width="5.40794"/>
<line x1="164.099" y1="465.082" x2="164.099" y2="414.628" stroke="#20201F" stroke-width="5.40794"/>
<line x1="85.993" y1="269.851" x2="42.7295" y2="295.809" stroke="#20201F" stroke-width="5.40794"/>
<line y1="-2.70397" x2="50.4535" y2="-2.70397" transform="matrix(0.857493 0.514496 0.514496 -0.857493 83.5202 267.532)" stroke="#20201F" stroke-width="5.40794"/>
<line x1="82.129" y1="271.703" x2="125.393" y2="245.745" stroke="#20201F" stroke-width="5.40794"/>
<line x1="84.061" y1="319.067" x2="84.061" y2="268.614" stroke="#20201F" stroke-width="5.40794"/>
<line y1="-2.70397" x2="50.4535" y2="-2.70397" transform="matrix(-0.857493 -0.514496 -0.514496 0.857493 84.6018 468.708)" stroke="#20201F" stroke-width="5.40794"/>
<line x1="82.129" y1="466.389" x2="125.393" y2="440.431" stroke="#20201F" stroke-width="5.40794"/>
<line x1="84.061" y1="467.245" x2="84.061" y2="416.791" stroke="#20201F" stroke-width="5.40794"/>
<line y1="-2.70397" x2="50.4535" y2="-2.70397" transform="matrix(0.857493 0.514496 0.514496 -0.857493 3.48267 413.547)" stroke="#20201F" stroke-width="5.40794"/>
<line x1="2.09148" y1="417.717" x2="45.355" y2="391.759" stroke="#20201F" stroke-width="5.40794"/>
<line x1="4.02357" y1="418.573" x2="4.02357" y2="368.12" stroke="#20201F" stroke-width="5.40794"/>
<line x1="4.02357" y1="465.082" x2="4.02357" y2="414.628" stroke="#20201F" stroke-width="5.40794"/>
<line x1="246.068" y1="367.194" x2="202.804" y2="393.152" stroke="#20201F" stroke-width="5.40794"/>
<line y1="-2.70397" x2="50.4535" y2="-2.70397" transform="matrix(-0.857493 -0.514496 -0.514496 0.857493 244.677 371.365)" stroke="#20201F" stroke-width="5.40794"/>
<line y1="-2.70397" x2="50.4535" y2="-2.70397" transform="matrix(0.857493 0.514496 0.514496 -0.857493 243.595 364.875)" stroke="#20201F" stroke-width="5.40794"/>
<line x1="242.204" y1="369.046" x2="285.468" y2="343.088" stroke="#20201F" stroke-width="5.40794"/>
<line x1="244.136" y1="369.902" x2="244.136" y2="319.448" stroke="#20201F" stroke-width="5.40794"/>
<line x1="244.136" y1="416.41" x2="244.136" y2="365.957" stroke="#20201F" stroke-width="5.40794"/>
<line x1="246.068" y1="269.851" x2="202.804" y2="295.809" stroke="#20201F" stroke-width="5.40794"/>
<line y1="-2.70397" x2="50.4535" y2="-2.70397" transform="matrix(-0.857493 -0.514496 -0.514496 0.857493 244.677 274.022)" stroke="#20201F" stroke-width="5.40794"/>
<line y1="-2.70397" x2="50.4535" y2="-2.70397" transform="matrix(0.857493 0.514496 0.514496 -0.857493 243.595 267.532)" stroke="#20201F" stroke-width="5.40794"/>
<line x1="244.136" y1="272.559" x2="244.136" y2="222.106" stroke="#20201F" stroke-width="5.40794"/>
<line x1="244.136" y1="319.067" x2="244.136" y2="268.614" stroke="#20201F" stroke-width="5.40794"/>
<line y1="-2.70397" x2="50.4535" y2="-2.70397" transform="matrix(-0.857493 -0.514496 -0.514496 0.857493 244.677 468.708)" stroke="#20201F" stroke-width="5.40794"/>
<line x1="242.204" y1="466.389" x2="285.468" y2="440.431" stroke="#20201F" stroke-width="5.40794"/>
<line x1="244.136" y1="467.245" x2="244.136" y2="416.791" stroke="#20201F" stroke-width="5.40794"/>
<line x1="326.104" y1="318.522" x2="282.84" y2="344.481" stroke="#20201F" stroke-width="5.40794"/>
<line y1="-2.70397" x2="50.4535" y2="-2.70397" transform="matrix(-0.857493 -0.514496 -0.514496 0.857493 324.713 322.693)" stroke="#20201F" stroke-width="5.40794"/>
<line y1="-2.70397" x2="50.4535" y2="-2.70397" transform="matrix(0.857493 0.514496 0.514496 -0.857493 323.631 316.204)" stroke="#20201F" stroke-width="5.40794"/>
<line x1="322.24" y1="320.375" x2="365.504" y2="294.417" stroke="#20201F" stroke-width="5.40794"/>
<line x1="324.172" y1="321.23" x2="324.172" y2="270.777" stroke="#20201F" stroke-width="5.40794"/>
<line x1="324.172" y1="367.739" x2="324.172" y2="317.285" stroke="#20201F" stroke-width="5.40794"/>
<line x1="486.179" y1="318.522" x2="442.915" y2="344.481" stroke="#20201F" stroke-width="5.40794"/>
<line y1="-2.70397" x2="50.4535" y2="-2.70397" transform="matrix(-0.857493 -0.514496 -0.514496 0.857493 484.788 322.693)" stroke="#20201F" stroke-width="5.40794"/>
<line y1="-2.70397" x2="50.4535" y2="-2.70397" transform="matrix(0.857493 0.514496 0.514496 -0.857493 483.706 316.204)" stroke="#20201F" stroke-width="5.40794"/>
<line x1="482.315" y1="320.375" x2="525.578" y2="294.417" stroke="#20201F" stroke-width="5.40794"/>
<line x1="484.247" y1="321.23" x2="484.247" y2="270.777" stroke="#20201F" stroke-width="5.40794"/>
<line x1="484.247" y1="367.739" x2="484.247" y2="317.285" stroke="#20201F" stroke-width="5.40794"/>
<line x1="406.141" y1="367.194" x2="362.878" y2="393.152" stroke="#20201F" stroke-width="5.40794"/>
<line y1="-2.70397" x2="50.4535" y2="-2.70397" transform="matrix(-0.857493 -0.514496 -0.514496 0.857493 404.75 371.365)" stroke="#20201F" stroke-width="5.40794"/>
<line y1="-2.70397" x2="50.4535" y2="-2.70397" transform="matrix(0.857493 0.514496 0.514496 -0.857493 403.669 364.875)" stroke="#20201F" stroke-width="5.40794"/>
<line x1="402.277" y1="369.046" x2="445.541" y2="343.088" stroke="#20201F" stroke-width="5.40794"/>
<line x1="404.209" y1="369.902" x2="404.209" y2="319.448" stroke="#20201F" stroke-width="5.40794"/>
<line x1="404.209" y1="416.41" x2="404.209" y2="365.957" stroke="#20201F" stroke-width="5.40794"/>
<line x1="486.179" y1="415.865" x2="442.915" y2="441.823" stroke="#20201F" stroke-width="5.40794"/>
<line y1="-2.70397" x2="50.4535" y2="-2.70397" transform="matrix(-0.857493 -0.514496 -0.514496 0.857493 484.788 420.036)" stroke="#20201F" stroke-width="5.40794"/>
<line y1="-2.70397" x2="50.4535" y2="-2.70397" transform="matrix(0.857493 0.514496 0.514496 -0.857493 483.706 413.547)" stroke="#20201F" stroke-width="5.40794"/>
<line x1="482.315" y1="417.717" x2="525.578" y2="391.759" stroke="#20201F" stroke-width="5.40794"/>
<line x1="484.247" y1="418.573" x2="484.247" y2="368.12" stroke="#20201F" stroke-width="5.40794"/>
<line x1="484.247" y1="465.082" x2="484.247" y2="414.628" stroke="#20201F" stroke-width="5.40794"/>
<line x1="406.141" y1="269.851" x2="362.878" y2="295.809" stroke="#20201F" stroke-width="5.40794"/>
<line y1="-2.70397" x2="50.4535" y2="-2.70397" transform="matrix(-0.857493 -0.514496 -0.514496 0.857493 404.75 274.022)" stroke="#20201F" stroke-width="5.40794"/>
<line y1="-2.70397" x2="50.4535" y2="-2.70397" transform="matrix(0.857493 0.514496 0.514496 -0.857493 403.669 267.532)" stroke="#20201F" stroke-width="5.40794"/>
<line x1="402.277" y1="271.703" x2="445.541" y2="245.745" stroke="#20201F" stroke-width="5.40794"/>
<line x1="404.209" y1="272.559" x2="404.209" y2="222.106" stroke="#20201F" stroke-width="5.40794"/>
<line x1="404.209" y1="319.067" x2="404.209" y2="268.614" stroke="#20201F" stroke-width="5.40794"/>
<line y1="-2.70397" x2="50.4535" y2="-2.70397" transform="matrix(-0.857493 -0.514496 -0.514496 0.857493 404.75 468.708)" stroke="#20201F" stroke-width="5.40794"/>
<line x1="402.277" y1="466.389" x2="445.541" y2="440.431" stroke="#20201F" stroke-width="5.40794"/>
<line x1="404.209" y1="467.245" x2="404.209" y2="416.791" stroke="#20201F" stroke-width="5.40794"/>
<line x1="326.104" y1="415.865" x2="282.84" y2="441.823" stroke="#20201F" stroke-width="5.40794"/>
<line y1="-2.70397" x2="50.4535" y2="-2.70397" transform="matrix(-0.857493 -0.514496 -0.514496 0.857493 324.713 420.036)" stroke="#20201F" stroke-width="5.40794"/>
<line y1="-2.70397" x2="50.4535" y2="-2.70397" transform="matrix(0.857493 0.514496 0.514496 -0.857493 323.631 413.547)" stroke="#20201F" stroke-width="5.40794"/>
<line x1="322.24" y1="417.717" x2="365.504" y2="391.759" stroke="#20201F" stroke-width="5.40794"/>
<line x1="324.172" y1="418.573" x2="324.172" y2="368.12" stroke="#20201F" stroke-width="5.40794"/>
<line x1="324.172" y1="465.082" x2="324.172" y2="414.628" stroke="#20201F" stroke-width="5.40794"/>
<line x1="566.216" y1="367.194" x2="522.953" y2="393.152" stroke="#20201F" stroke-width="5.40794"/>
<line y1="-2.70397" x2="50.4535" y2="-2.70397" transform="matrix(-0.857493 -0.514496 -0.514496 0.857493 564.825 371.365)" stroke="#20201F" stroke-width="5.40794"/>
<line y1="-2.70397" x2="50.4535" y2="-2.70397" transform="matrix(0.857493 0.514496 0.514496 -0.857493 563.744 364.875)" stroke="#20201F" stroke-width="5.40794"/>
<line x1="562.353" y1="369.046" x2="605.616" y2="343.088" stroke="#20201F" stroke-width="5.40794"/>
<line x1="564.284" y1="369.902" x2="564.284" y2="319.448" stroke="#20201F" stroke-width="5.40794"/>
<line x1="564.284" y1="416.41" x2="564.284" y2="365.957" stroke="#20201F" stroke-width="5.40794"/>
<line x1="566.216" y1="269.851" x2="522.953" y2="295.809" stroke="#20201F" stroke-width="5.40794"/>
<line y1="-2.70397" x2="50.4535" y2="-2.70397" transform="matrix(-0.857493 -0.514496 -0.514496 0.857493 564.825 274.022)" stroke="#20201F" stroke-width="5.40794"/>
<line y1="-2.70397" x2="50.4535" y2="-2.70397" transform="matrix(0.857493 0.514496 0.514496 -0.857493 563.744 267.532)" stroke="#20201F" stroke-width="5.40794"/>
<line x1="562.353" y1="271.703" x2="605.616" y2="245.745" stroke="#20201F" stroke-width="5.40794"/>
<line x1="564.284" y1="272.559" x2="564.284" y2="222.106" stroke="#20201F" stroke-width="5.40794"/>
<line x1="564.284" y1="319.067" x2="564.284" y2="268.614" stroke="#20201F" stroke-width="5.40794"/>
<line y1="-2.70397" x2="50.4535" y2="-2.70397" transform="matrix(-0.857493 -0.514496 -0.514496 0.857493 564.825 468.708)" stroke="#20201F" stroke-width="5.40794"/>
<line x1="562.353" y1="466.389" x2="605.616" y2="440.431" stroke="#20201F" stroke-width="5.40794"/>
<line x1="564.284" y1="467.245" x2="564.284" y2="416.791" stroke="#20201F" stroke-width="5.40794"/>
<line y1="-2.70397" x2="50.4535" y2="-2.70397" transform="matrix(-0.857493 -0.514496 -0.514496 0.857493 324.301 225.708)" stroke="#3E3E3D" stroke-width="5.40794"/>
<line x1="321.828" y1="223.389" x2="365.092" y2="197.431" stroke="#3E3E3D" stroke-width="5.40794"/>
<line x1="323.76" y1="270.753" x2="323.76" y2="220.299" stroke="#3E3E3D" stroke-width="5.40794"/>
<line y1="-2.70397" x2="50.4535" y2="-2.70397" transform="matrix(0.857493 0.514496 0.514496 -0.857493 243.182 73.2036)" stroke="#20201F" stroke-width="5.40794"/>
<line x1="241.791" y1="77.3745" x2="285.054" y2="51.4164" stroke="#20201F" stroke-width="5.40794"/>
<line x1="243.723" y1="124.739" x2="243.723" y2="74.285" stroke="#20201F" stroke-width="5.40794"/>
<line x1="405.73" y1="75.5222" x2="362.466" y2="101.48" stroke="#20201F" stroke-width="5.40794"/>
<line y1="-2.70397" x2="50.4535" y2="-2.70397" transform="matrix(-0.857493 -0.514496 -0.514496 0.857493 404.339 79.6931)" stroke="#20201F" stroke-width="5.40794"/>
<line y1="-2.70397" x2="50.4535" y2="-2.70397" transform="matrix(0.857493 0.514496 0.514496 -0.857493 403.257 73.2036)" stroke="#20201F" stroke-width="5.40794"/>
<line x1="401.866" y1="77.3745" x2="445.129" y2="51.4164" stroke="#20201F" stroke-width="5.40794"/>
<line x1="403.798" y1="124.739" x2="403.798" y2="74.285" stroke="#20201F" stroke-width="5.40794"/>
<line x1="325.692" y1="124.194" x2="282.429" y2="150.152" stroke="#20201F" stroke-width="5.40794"/>
<line y1="-2.70397" x2="50.4535" y2="-2.70397" transform="matrix(-0.857493 -0.514496 -0.514496 0.857493 324.301 128.365)" stroke="#20201F" stroke-width="5.40794"/>
<line y1="-2.70397" x2="50.4535" y2="-2.70397" transform="matrix(0.857493 0.514496 0.514496 -0.857493 323.219 121.875)" stroke="#20201F" stroke-width="5.40794"/>
<line x1="321.828" y1="126.046" x2="365.092" y2="100.088" stroke="#20201F" stroke-width="5.40794"/>
<line x1="323.76" y1="126.902" x2="323.76" y2="76.4483" stroke="#20201F" stroke-width="5.40794"/>
<line x1="323.76" y1="173.41" x2="323.76" y2="122.957" stroke="#20201F" stroke-width="5.40794"/>
<line x1="405.73" y1="172.865" x2="362.466" y2="198.823" stroke="#20201F" stroke-width="5.40794"/>
<line y1="-2.70397" x2="50.4535" y2="-2.70397" transform="matrix(-0.857493 -0.514496 -0.514496 0.857493 404.339 177.036)" stroke="#20201F" stroke-width="5.40794"/>
<line y1="-2.70397" x2="50.4535" y2="-2.70397" transform="matrix(0.857493 0.514496 0.514496 -0.857493 403.257 170.547)" stroke="#20201F" stroke-width="5.40794"/>
<line x1="401.866" y1="174.717" x2="445.129" y2="148.759" stroke="#20201F" stroke-width="5.40794"/>
<line x1="403.798" y1="175.573" x2="403.798" y2="125.12" stroke="#20201F" stroke-width="5.40794"/>
<line x1="403.798" y1="222.082" x2="403.798" y2="171.628" stroke="#20201F" stroke-width="5.40794"/>
<line x1="325.692" y1="26.8509" x2="282.429" y2="52.809" stroke="#20201F" stroke-width="5.40794"/>
<line y1="-2.70397" x2="50.4535" y2="-2.70397" transform="matrix(0.857493 0.514496 0.514496 -0.857493 323.219 24.5322)" stroke="#20201F" stroke-width="5.40794"/>
<line x1="323.76" y1="76.0671" x2="323.76" y2="25.6136" stroke="#20201F" stroke-width="5.40794"/>
<line x1="325.692" y1="221.537" x2="282.429" y2="247.495" stroke="#92928D" stroke-width="5.40794"/>
<line y1="-2.70397" x2="50.4535" y2="-2.70397" transform="matrix(0.857493 0.514496 0.514496 -0.857493 323.219 219.218)" stroke="#92928D" stroke-width="5.40794"/>
<line x1="323.76" y1="224.245" x2="323.76" y2="173.791" stroke="#92928D" stroke-width="5.40794"/>
<line x1="245.655" y1="172.865" x2="202.391" y2="198.823" stroke="#20201F" stroke-width="5.40794"/>
<line y1="-2.70397" x2="50.4535" y2="-2.70397" transform="matrix(0.857493 0.514496 0.514496 -0.857493 243.182 170.547)" stroke="#20201F" stroke-width="5.40794"/>
<line x1="241.791" y1="174.717" x2="285.054" y2="148.759" stroke="#20201F" stroke-width="5.40794"/>
<line x1="243.723" y1="175.573" x2="243.723" y2="125.12" stroke="#20201F" stroke-width="5.40794"/>
<line x1="243.723" y1="222.082" x2="243.723" y2="171.628" stroke="#20201F" stroke-width="5.40794"/>
<line x1="485.767" y1="124.194" x2="442.504" y2="150.152" stroke="#20201F" stroke-width="5.40794"/>
<line y1="-2.70397" x2="50.4535" y2="-2.70397" transform="matrix(-0.857493 -0.514496 -0.514496 0.857493 484.376 128.365)" stroke="#20201F" stroke-width="5.40794"/>
<line y1="-2.70397" x2="50.4535" y2="-2.70397" transform="matrix(0.857493 0.514496 0.514496 -0.857493 483.294 121.875)" stroke="#20201F" stroke-width="5.40794"/>
<line x1="481.903" y1="126.046" x2="525.167" y2="100.088" stroke="#20201F" stroke-width="5.40794"/>
<line x1="483.835" y1="126.902" x2="483.835" y2="76.4483" stroke="#20201F" stroke-width="5.40794"/>
<line x1="483.835" y1="173.41" x2="483.835" y2="122.957" stroke="#20201F" stroke-width="5.40794"/>
<line x1="485.767" y1="26.8509" x2="442.504" y2="52.809" stroke="#20201F" stroke-width="5.40794"/>
<line y1="-2.70397" x2="50.4535" y2="-2.70397" transform="matrix(0.857493 0.514496 0.514496 -0.857493 483.294 24.5322)" stroke="#20201F" stroke-width="5.40794"/>
<line x1="483.835" y1="76.0671" x2="483.835" y2="25.6136" stroke="#20201F" stroke-width="5.40794"/>
<line x1="485.767" y1="221.537" x2="442.504" y2="247.495" stroke="#20201F" stroke-width="5.40794"/>
<line y1="-2.70397" x2="50.4535" y2="-2.70397" transform="matrix(-0.857493 -0.514496 -0.514496 0.857493 484.376 225.708)" stroke="#20201F" stroke-width="5.40794"/>
<line y1="-2.70397" x2="50.4535" y2="-2.70397" transform="matrix(0.857493 0.514496 0.514496 -0.857493 483.294 219.218)" stroke="#20201F" stroke-width="5.40794"/>
<line x1="481.903" y1="223.389" x2="525.167" y2="197.431" stroke="#20201F" stroke-width="5.40794"/>
<line x1="483.835" y1="224.245" x2="483.835" y2="173.791" stroke="#20201F" stroke-width="5.40794"/>
<line x1="483.835" y1="270.753" x2="483.835" y2="220.299" stroke="#20201F" stroke-width="5.40794"/>
<line x1="165.653" y1="220.893" x2="122.389" y2="246.851" stroke="#20201F" stroke-width="5.40794"/>
<line y1="-2.70397" x2="50.4535" y2="-2.70397" transform="matrix(0.857493 0.514496 0.514496 -0.857493 163.184 218.574)" stroke="#20201F" stroke-width="5.40794"/>
<line x1="161.792" y1="222.745" x2="205.056" y2="196.787" stroke="#20201F" stroke-width="5.40794"/>
<line x1="163.722" y1="270.108" x2="163.722" y2="219.655" stroke="#20201F" stroke-width="5.40794"/>
<line x1="566.655" y1="75.5222" x2="523.391" y2="101.48" stroke="#20201F" stroke-width="5.40794"/>
<line y1="-2.70397" x2="50.4535" y2="-2.70397" transform="matrix(-0.857493 -0.514496 -0.514496 0.857493 565.264 79.6931)" stroke="#20201F" stroke-width="5.40794"/>
<line y1="-2.70397" x2="50.4535" y2="-2.70397" transform="matrix(0.857493 0.514496 0.514496 -0.857493 564.182 73.2036)" stroke="#20201F" stroke-width="5.40794"/>
<line x1="562.791" y1="77.3745" x2="606.054" y2="51.4164" stroke="#20201F" stroke-width="5.40794"/>
<line x1="564.723" y1="124.739" x2="564.723" y2="74.285" stroke="#20201F" stroke-width="5.40794"/>
<line x1="646.692" y1="124.194" x2="603.429" y2="150.152" stroke="#20201F" stroke-width="5.40794"/>
<line y1="-2.70397" x2="50.4535" y2="-2.70397" transform="matrix(-0.857493 -0.514496 -0.514496 0.857493 645.301 128.365)" stroke="#20201F" stroke-width="5.40794"/>
<line x1="646.692" y1="26.8506" x2="603.429" y2="52.8087" stroke="#20201F" stroke-width="5.40794"/>
<line x1="646.692" y1="221.536" x2="603.429" y2="247.495" stroke="#20201F" stroke-width="5.40794"/>
<line y1="-2.70397" x2="50.4535" y2="-2.70397" transform="matrix(-0.857493 -0.514496 -0.514496 0.857493 645.301 225.708)" stroke="#20201F" stroke-width="5.40794"/>
<line x1="566.655" y1="172.865" x2="523.391" y2="198.823" stroke="#20201F" stroke-width="5.40794"/>
<line y1="-2.70397" x2="50.4535" y2="-2.70397" transform="matrix(-0.857493 -0.514496 -0.514496 0.857493 565.264 177.036)" stroke="#20201F" stroke-width="5.40794"/>
<line y1="-2.70397" x2="50.4535" y2="-2.70397" transform="matrix(0.857493 0.514496 0.514496 -0.857493 564.182 170.546)" stroke="#20201F" stroke-width="5.40794"/>
<line x1="562.791" y1="174.717" x2="606.054" y2="148.759" stroke="#20201F" stroke-width="5.40794"/>
<line x1="564.723" y1="175.573" x2="564.723" y2="125.119" stroke="#20201F" stroke-width="5.40794"/>
<line x1="564.723" y1="222.081" x2="564.723" y2="171.628" stroke="#20201F" stroke-width="5.40794"/>
</svg>
