<svg width="1281" height="499" viewBox="0 0 1281 499" fill="none" xmlns="http://www.w3.org/2000/svg">
<g clip-path="url(#clip0_215_14440)">
<g clip-path="url(#clip1_215_14440)">
<path d="M681.941 341.906V296.943H671.675V341.906L633.693 364.695L638.974 373.498L676.808 350.798L714.641 373.498L719.923 364.695L681.941 341.906Z" fill="#20201F"/>
<path d="M671.675 361.029V393.077H681.941V361.024L676.811 357.947L671.675 361.029Z" fill="#20201F"/>
<path d="M665.516 338.416V332.373L638.974 316.448L633.693 325.25L660.575 341.38L665.516 338.416Z" fill="#20201F"/>
<path d="M688.108 332.368V338.416L693.044 341.377L719.923 325.25L714.641 316.448L688.108 332.368Z" fill="#20201F"/>
<path d="M840.029 341.906V296.943H829.763V341.906L791.781 364.695L797.063 373.498L834.896 350.798L872.73 373.498L878.011 364.695L840.029 341.906Z" fill="#20201F"/>
<path d="M829.763 361.029V393.077H840.029V361.024L834.9 357.947L829.763 361.029Z" fill="#20201F"/>
<path d="M823.604 338.416V332.373L797.063 316.448L791.781 325.25L818.664 341.38L823.604 338.416Z" fill="#20201F"/>
<path d="M846.196 332.368V338.416L851.133 341.377L878.011 325.25L872.73 316.448L846.196 332.368Z" fill="#20201F"/>
<path d="M671.675 266.586V298.635H681.941V266.582L676.811 263.504L671.675 266.586Z" fill="#20201F"/>
<path d="M665.516 243.973V237.93L638.974 222.005L633.693 230.808L660.575 246.937L665.516 243.973Z" fill="#20201F"/>
<path d="M688.108 237.925V243.973L693.044 246.935L719.923 230.808L714.641 222.005L688.108 237.925Z" fill="#20201F"/>
<path d="M829.763 266.586V298.635H840.029V266.582L834.9 263.504L829.763 266.586Z" fill="#20201F"/>
<path d="M823.604 243.973V237.93L797.063 222.005L791.781 230.808L818.664 246.937L823.604 243.973Z" fill="#20201F"/>
<path d="M846.196 237.925V243.973L851.133 246.935L878.011 230.808L872.73 222.005L846.196 237.925Z" fill="#20201F"/>
<path d="M760.985 294.685V249.722H750.72V294.685L712.737 317.474L718.019 326.277L755.852 303.577L793.686 326.277L798.967 317.474L760.985 294.685Z" fill="#20201F"/>
<path d="M750.72 313.807V345.856H760.985V313.803L755.856 310.726L750.72 313.807Z" fill="#20201F"/>
<path d="M744.56 291.194V285.151L718.019 269.227L712.737 278.029L739.62 294.159L744.56 291.194Z" fill="#20201F"/>
<path d="M767.152 285.147V291.194L772.089 294.156L798.967 278.029L793.686 269.227L767.152 285.147Z" fill="#20201F"/>
<path d="M760.985 389.127V344.165H750.72V389.127L712.737 411.917L718.019 420.719L755.852 398.019L793.686 420.719L798.967 411.917L760.985 389.127Z" fill="#20201F"/>
<path d="M750.72 408.25V440.298H760.985V408.245L755.856 405.168L750.72 408.25Z" fill="#20201F"/>
<path d="M744.56 385.637V379.594L718.019 363.669L712.737 372.472L739.62 388.601L744.56 385.637Z" fill="#20201F"/>
<path d="M767.152 379.589V385.637L772.089 388.599L798.967 372.472L793.686 363.669L767.152 379.589Z" fill="#20201F"/>
</g>
<g clip-path="url(#clip2_215_14440)">
<path d="M840.029 341.906V296.943H829.763V341.906L791.781 364.695L797.063 373.498L834.896 350.798L872.73 373.498L878.011 364.695L840.029 341.906Z" fill="#20201F"/>
<path d="M829.763 361.029V393.077H840.029V361.024L834.9 357.947L829.763 361.029Z" fill="#20201F"/>
<path d="M823.604 338.416V332.373L797.063 316.448L791.781 325.25L818.664 341.38L823.604 338.416Z" fill="#20201F"/>
<path d="M846.196 332.368V338.416L851.133 341.377L878.011 325.25L872.73 316.448L846.196 332.368Z" fill="#20201F"/>
<path d="M998.117 341.906V296.943H987.852V341.906L949.87 364.695L955.151 373.498L992.985 350.798L1030.82 373.498L1036.1 364.695L998.117 341.906Z" fill="#20201F"/>
<path d="M987.852 361.029V393.077H998.117V361.024L992.988 357.947L987.852 361.029Z" fill="#20201F"/>
<path d="M981.693 338.416V332.373L955.151 316.448L949.87 325.25L976.752 341.38L981.693 338.416Z" fill="#20201F"/>
<path d="M1004.28 332.368V338.416L1009.22 341.377L1036.1 325.25L1030.82 316.448L1004.28 332.368Z" fill="#20201F"/>
<path d="M829.763 266.586V298.635H840.029V266.582L834.9 263.504L829.763 266.586Z" fill="#20201F"/>
<path d="M823.604 243.973V237.93L797.063 222.005L791.781 230.808L818.664 246.937L823.604 243.973Z" fill="#20201F"/>
<path d="M846.196 237.925V243.973L851.133 246.935L878.011 230.808L872.73 222.005L846.196 237.925Z" fill="#20201F"/>
<path d="M987.852 266.586V298.635H998.117V266.582L992.988 263.504L987.852 266.586Z" fill="#20201F"/>
<path d="M981.693 243.973V237.93L955.151 222.005L949.87 230.808L976.752 246.937L981.693 243.973Z" fill="#20201F"/>
<path d="M1004.28 237.925V243.973L1009.22 246.935L1036.1 230.808L1030.82 222.005L1004.28 237.925Z" fill="#20201F"/>
<path d="M919.073 294.685V249.722H908.808V294.685L870.826 317.474L876.107 326.277L913.941 303.577L951.774 326.277L957.056 317.474L919.073 294.685Z" fill="#20201F"/>
<path d="M908.808 313.807V345.856H919.073V313.803L913.944 310.726L908.808 313.807Z" fill="#20201F"/>
<path d="M902.649 291.194V285.151L876.107 269.227L870.826 278.029L897.708 294.159L902.649 291.194Z" fill="#20201F"/>
<path d="M925.241 285.147V291.194L930.177 294.156L957.056 278.029L951.774 269.227L925.241 285.147Z" fill="#20201F"/>
<path d="M919.073 389.127V344.165H908.808V389.127L870.826 411.917L876.107 420.719L913.941 398.019L951.774 420.719L957.056 411.917L919.073 389.127Z" fill="#20201F"/>
<path d="M908.808 408.25V440.298H919.073V408.245L913.944 405.168L908.808 408.25Z" fill="#20201F"/>
<path d="M902.649 385.637V379.594L876.107 363.669L870.826 372.472L897.708 388.601L902.649 385.637Z" fill="#20201F"/>
<path d="M925.241 379.589V385.637L930.177 388.599L957.056 372.472L951.774 363.669L925.241 379.589Z" fill="#20201F"/>
</g>
<g clip-path="url(#clip3_215_14440)">
<path d="M998.117 341.906V296.943H987.851V341.906L949.869 364.695L955.151 373.498L992.984 350.798L1030.82 373.498L1036.1 364.695L998.117 341.906Z" fill="#20201F"/>
<path d="M987.851 361.029V393.077H998.117V361.024L992.988 357.947L987.851 361.029Z" fill="#20201F"/>
<path d="M981.692 338.416V332.373L955.151 316.448L949.869 325.25L976.752 341.38L981.692 338.416Z" fill="#20201F"/>
<path d="M1004.28 332.368V338.416L1009.22 341.377L1036.1 325.25L1030.82 316.448L1004.28 332.368Z" fill="#20201F"/>
<path d="M1156.21 341.906V296.943H1145.94V341.906L1107.96 364.695L1113.24 373.498L1151.07 350.798L1188.91 373.498L1194.19 364.695L1156.21 341.906Z" fill="#20201F"/>
<path d="M1145.94 361.029V393.077H1156.21V361.024L1151.08 357.947L1145.94 361.029Z" fill="#20201F"/>
<path d="M1139.78 338.416V332.373L1113.24 316.448L1107.96 325.25L1134.84 341.38L1139.78 338.416Z" fill="#20201F"/>
<path d="M1162.37 332.368V338.416L1167.31 341.377L1194.19 325.25L1188.91 316.448L1162.37 332.368Z" fill="#20201F"/>
<path d="M987.851 266.586V298.635H998.117V266.582L992.988 263.504L987.851 266.586Z" fill="#20201F"/>
<path d="M981.692 243.973V237.93L955.151 222.005L949.869 230.808L976.752 246.937L981.692 243.973Z" fill="#20201F"/>
<path d="M1004.28 237.925V243.973L1009.22 246.935L1036.1 230.808L1030.82 222.005L1004.28 237.925Z" fill="#20201F"/>
<path d="M1145.94 266.586V298.635H1156.21V266.582L1151.08 263.504L1145.94 266.586Z" fill="#20201F"/>
<path d="M1139.78 243.973V237.93L1113.24 222.005L1107.96 230.808L1134.84 246.937L1139.78 243.973Z" fill="#20201F"/>
<path d="M1162.37 237.925V243.973L1167.31 246.935L1194.19 230.808L1188.91 222.005L1162.37 237.925Z" fill="#20201F"/>
<path d="M1077.16 294.685V249.722H1066.9V294.685L1028.91 317.474L1034.2 326.277L1072.03 303.577L1109.86 326.277L1115.14 317.474L1077.16 294.685Z" fill="#20201F"/>
<path d="M1066.9 313.807V345.856H1077.16V313.803L1072.03 310.726L1066.9 313.807Z" fill="#20201F"/>
<path d="M1060.74 291.194V285.151L1034.2 269.227L1028.91 278.029L1055.8 294.159L1060.74 291.194Z" fill="#20201F"/>
<path d="M1083.33 285.147V291.194L1088.26 294.156L1115.14 278.029L1109.86 269.227L1083.33 285.147Z" fill="#20201F"/>
<path d="M1077.16 389.127V344.165H1066.9V389.127L1028.91 411.917L1034.2 420.719L1072.03 398.019L1109.86 420.719L1115.14 411.917L1077.16 389.127Z" fill="#20201F"/>
<path d="M1066.9 408.25V440.298H1077.16V408.245L1072.03 405.168L1066.9 408.25Z" fill="#20201F"/>
<path d="M1060.74 385.637V379.594L1034.2 363.669L1028.91 372.472L1055.8 388.601L1060.74 385.637Z" fill="#20201F"/>
<path d="M1083.33 379.589V385.637L1088.26 388.599L1115.14 372.472L1109.86 363.669L1083.33 379.589Z" fill="#20201F"/>
</g>
<g clip-path="url(#clip4_215_14440)">
<path d="M1156.2 341.906V296.943H1145.94V341.906L1107.96 364.695L1113.24 373.498L1151.07 350.798L1188.91 373.498L1194.19 364.695L1156.2 341.906Z" fill="#20201F"/>
<path d="M1145.94 361.029V393.077H1156.2V361.024L1151.08 357.947L1145.94 361.029Z" fill="#20201F"/>
<path d="M1139.78 338.416V332.373L1113.24 316.448L1107.96 325.25L1134.84 341.38L1139.78 338.416Z" fill="#20201F"/>
<path d="M1162.37 332.368V338.416L1167.31 341.377L1194.19 325.25L1188.91 316.448L1162.37 332.368Z" fill="#20201F"/>
<path d="M1314.29 341.906V296.943H1304.03V341.906L1266.05 364.695L1271.33 373.498L1309.16 350.798L1346.99 373.498L1352.28 364.695L1314.29 341.906Z" fill="#20201F"/>
<path d="M1304.03 361.029V393.077H1314.29V361.024L1309.16 357.947L1304.03 361.029Z" fill="#20201F"/>
<path d="M1297.87 338.416V332.373L1271.33 316.448L1266.05 325.25L1292.93 341.38L1297.87 338.416Z" fill="#20201F"/>
<path d="M1320.46 332.368V338.416L1325.4 341.377L1352.28 325.25L1346.99 316.448L1320.46 332.368Z" fill="#20201F"/>
<path d="M1145.94 266.586V298.635H1156.2V266.582L1151.08 263.504L1145.94 266.586Z" fill="#20201F"/>
<path d="M1139.78 243.973V237.93L1113.24 222.005L1107.96 230.808L1134.84 246.937L1139.78 243.973Z" fill="#20201F"/>
<path d="M1162.37 237.925V243.973L1167.31 246.935L1194.19 230.808L1188.91 222.005L1162.37 237.925Z" fill="#20201F"/>
<path d="M1304.03 266.586V298.635H1314.29V266.582L1309.16 263.504L1304.03 266.586Z" fill="#20201F"/>
<path d="M1297.87 243.973V237.93L1271.33 222.005L1266.05 230.808L1292.93 246.937L1297.87 243.973Z" fill="#20201F"/>
<path d="M1320.46 237.925V243.973L1325.4 246.935L1352.28 230.808L1346.99 222.005L1320.46 237.925Z" fill="#20201F"/>
<path d="M1235.25 294.685V249.722H1224.98V294.685L1187 317.474L1192.28 326.277L1230.12 303.577L1267.95 326.277L1273.23 317.474L1235.25 294.685Z" fill="#20201F"/>
<path d="M1224.98 313.807V345.856H1235.25V313.803L1230.12 310.726L1224.98 313.807Z" fill="#20201F"/>
<path d="M1218.82 291.194V285.151L1192.28 269.227L1187 278.029L1213.88 294.159L1218.82 291.194Z" fill="#20201F"/>
<path d="M1241.42 285.147V291.194L1246.35 294.156L1273.23 278.029L1267.95 269.227L1241.42 285.147Z" fill="#20201F"/>
<path d="M1235.25 389.127V344.165H1224.98V389.127L1187 411.917L1192.28 420.719L1230.12 398.019L1267.95 420.719L1273.23 411.917L1235.25 389.127Z" fill="#20201F"/>
<path d="M1224.98 408.25V440.298H1235.25V408.245L1230.12 405.168L1224.98 408.25Z" fill="#20201F"/>
<path d="M1218.82 385.637V379.594L1192.28 363.669L1187 372.472L1213.88 388.601L1218.82 385.637Z" fill="#20201F"/>
<path d="M1241.42 379.589V385.637L1246.35 388.599L1273.23 372.472L1267.95 363.669L1241.42 379.589Z" fill="#20201F"/>
</g>
<g clip-path="url(#clip5_215_14440)">
<path d="M1156.2 153.022V108.06H1145.94V153.022L1107.96 175.812L1113.24 184.614L1151.07 161.914L1188.91 184.614L1194.19 175.812L1156.2 153.022Z" fill="#20201F"/>
<path d="M1145.94 172.145V204.193H1156.2V172.14L1151.08 169.063L1145.94 172.145Z" fill="#20201F"/>
<path d="M1139.78 149.532V143.489L1113.24 127.564L1107.96 136.367L1134.84 152.496L1139.78 149.532Z" fill="#20201F"/>
<path d="M1162.37 143.484V149.532L1167.31 152.494L1194.19 136.367L1188.91 127.564L1162.37 143.484Z" fill="#20201F"/>
<path d="M1314.29 153.022V108.06H1304.03V153.022L1266.05 175.812L1271.33 184.614L1309.16 161.914L1346.99 184.614L1352.28 175.812L1314.29 153.022Z" fill="#20201F"/>
<path d="M1304.03 172.145V204.193H1314.29V172.14L1309.16 169.063L1304.03 172.145Z" fill="#20201F"/>
<path d="M1297.87 149.532V143.489L1271.33 127.564L1266.05 136.367L1292.93 152.496L1297.87 149.532Z" fill="#20201F"/>
<path d="M1320.46 143.484V149.532L1325.4 152.494L1352.28 136.367L1346.99 127.564L1320.46 143.484Z" fill="#20201F"/>
<path d="M1145.94 77.7023V109.751H1156.2V77.698L1151.08 74.6206L1145.94 77.7023Z" fill="#20201F"/>
<path d="M1139.78 55.0893V49.0464L1113.24 33.1216L1107.96 41.9241L1134.84 58.0536L1139.78 55.0893Z" fill="#20201F"/>
<path d="M1162.37 49.0416V55.0893L1167.31 58.0512L1194.19 41.9241L1188.91 33.1216L1162.37 49.0416Z" fill="#20201F"/>
<path d="M1304.03 77.7023V109.751H1314.29V77.698L1309.16 74.6206L1304.03 77.7023Z" fill="#20201F"/>
<path d="M1297.87 55.0893V49.0464L1271.33 33.1216L1266.05 41.9241L1292.93 58.0536L1297.87 55.0893Z" fill="#20201F"/>
<path d="M1320.46 49.0416V55.0893L1325.4 58.0512L1352.28 41.9241L1346.99 33.1216L1320.46 49.0416Z" fill="#20201F"/>
<path d="M1235.25 105.801V60.8384H1224.98V105.801L1187 128.59L1192.28 137.393L1230.12 114.693L1267.95 137.393L1273.23 128.59L1235.25 105.801Z" fill="#20201F"/>
<path d="M1224.98 124.924V156.972H1235.25V124.919L1230.12 121.842L1224.98 124.924Z" fill="#20201F"/>
<path d="M1218.82 102.311V96.2676L1192.28 80.3428L1187 89.1453L1213.88 105.275L1218.82 102.311Z" fill="#20201F"/>
<path d="M1241.42 96.2628V102.311L1246.35 105.272L1273.23 89.1453L1267.95 80.3428L1241.42 96.2628Z" fill="#20201F"/>
<path d="M1235.25 200.243V155.281H1224.98V200.243L1187 223.033L1192.28 231.835L1230.12 209.135L1267.95 231.835L1273.23 223.033L1235.25 200.243Z" fill="#20201F"/>
<path d="M1224.98 219.366V251.414H1235.25V219.362L1230.12 216.284L1224.98 219.366Z" fill="#20201F"/>
<path d="M1218.82 196.753V190.71L1192.28 174.785L1187 183.588L1213.88 199.717L1218.82 196.753Z" fill="#20201F"/>
<path d="M1241.42 190.705V196.753L1246.35 199.715L1273.23 183.588L1267.95 174.785L1241.42 190.705Z" fill="#20201F"/>
</g>
<g clip-path="url(#clip6_215_14440)">
<path d="M49.5885 436.348V391.386H39.323V436.348L1.34082 459.138L6.62235 467.94L44.4558 445.24L82.2891 467.94L87.5707 459.138L49.5885 436.348Z" fill="#20201F"/>
<path d="M39.323 455.47V487.519H49.5885V455.466L44.4593 452.389L39.323 455.47Z" fill="#20201F"/>
<path d="M33.1637 432.857V426.814L6.62235 410.89L1.34082 419.692L28.2233 435.822L33.1637 432.857Z" fill="#20201F"/>
<path d="M55.7558 426.81V432.857L60.6922 435.819L87.5707 419.692L82.2891 410.89L55.7558 426.81Z" fill="#20201F"/>
<path d="M39.323 361.029V393.077H49.5885V361.024L44.4593 357.947L39.323 361.029Z" fill="#20201F"/>
<path d="M33.1637 338.416V332.373L6.62235 316.448L1.34082 325.25L28.2233 341.38L33.1637 338.416Z" fill="#20201F"/>
<path d="M55.7558 332.368V338.416L60.6922 341.377L87.5707 325.25L82.2891 316.448L55.7558 332.368Z" fill="#20201F"/>
<path d="M-29.4555 389.127V344.165H-39.7209V389.127L-77.7031 411.917L-72.4216 420.719L-34.5882 398.019L3.24521 420.719L8.52675 411.917L-29.4555 389.127Z" fill="#20201F"/>
<path d="M-39.7209 408.25V440.298H-29.4555V408.245L-34.5846 405.168L-39.7209 408.25Z" fill="#20201F"/>
<path d="M-45.8802 385.637V379.594L-72.4216 363.669L-77.7031 372.472L-50.8207 388.601L-45.8802 385.637Z" fill="#20201F"/>
<path d="M-23.2882 379.589V385.637L-18.3517 388.599L8.52675 372.472L3.24521 363.669L-23.2882 379.589Z" fill="#20201F"/>
<path d="M-29.4555 483.569V438.606H-39.7209V483.569L-77.7031 506.358L-72.4216 515.161L-34.5882 492.461L3.24521 515.161L8.52675 506.358L-29.4555 483.569Z" fill="#20201F"/>
<path d="M-39.7209 502.692V534.741H-29.4555V502.688L-34.5846 499.61L-39.7209 502.692Z" fill="#20201F"/>
<path d="M-45.8802 480.079V474.036L-72.4216 458.111L-77.7031 466.914L-50.8207 483.043L-45.8802 480.079Z" fill="#20201F"/>
<path d="M-23.2882 474.031V480.079L-18.3517 483.041L8.52675 466.914L3.24521 458.111L-23.2882 474.031Z" fill="#20201F"/>
</g>
<g clip-path="url(#clip7_215_14440)">
<path d="M49.588 436.348V391.386H39.3225V436.348L1.34033 459.138L6.62187 467.94L44.4553 445.24L82.2887 467.94L87.5702 459.138L49.588 436.348Z" fill="#20201F"/>
<path d="M39.3225 455.47V487.519H49.588V455.466L44.4588 452.389L39.3225 455.47Z" fill="#20201F"/>
<path d="M33.1633 432.857V426.814L6.62187 410.89L1.34033 419.692L28.2228 435.822L33.1633 432.857Z" fill="#20201F"/>
<path d="M55.7553 426.81V432.857L60.6918 435.819L87.5702 419.692L82.2887 410.89L55.7553 426.81Z" fill="#20201F"/>
<path d="M207.676 436.348V391.386H197.411V436.348L159.429 459.138L164.71 467.94L202.544 445.24L240.377 467.94L245.659 459.138L207.676 436.348Z" fill="#20201F"/>
<path d="M197.411 455.47V487.519H207.676V455.466L202.547 452.389L197.411 455.47Z" fill="#20201F"/>
<path d="M191.252 432.857V426.814L164.71 410.89L159.429 419.692L186.311 435.822L191.252 432.857Z" fill="#20201F"/>
<path d="M213.844 426.81V432.857L218.78 435.819L245.659 419.692L240.377 410.89L213.844 426.81Z" fill="#20201F"/>
<path d="M39.3225 361.029V393.077H49.588V361.024L44.4588 357.947L39.3225 361.029Z" fill="#20201F"/>
<path d="M33.1633 338.416V332.373L6.62187 316.448L1.34033 325.25L28.2228 341.38L33.1633 338.416Z" fill="#20201F"/>
<path d="M55.7553 332.368V338.416L60.6918 341.377L87.5702 325.25L82.2887 316.448L55.7553 332.368Z" fill="#20201F"/>
<path d="M197.411 361.029V393.077H207.676V361.024L202.547 357.947L197.411 361.029Z" fill="#20201F"/>
<path d="M191.252 338.416V332.373L164.71 316.448L159.429 325.25L186.311 341.38L191.252 338.416Z" fill="#20201F"/>
<path d="M213.844 332.368V338.416L218.78 341.377L245.659 325.25L240.377 316.448L213.844 332.368Z" fill="#20201F"/>
<path d="M128.632 389.127V344.165H118.367V389.127L80.3848 411.917L85.6663 420.719L123.5 398.019L161.333 420.719L166.615 411.917L128.632 389.127Z" fill="#20201F"/>
<path d="M118.367 408.25V440.298H128.632V408.245L123.503 405.168L118.367 408.25Z" fill="#20201F"/>
<path d="M112.208 385.637V379.594L85.6663 363.669L80.3848 372.472L107.267 388.601L112.208 385.637Z" fill="#20201F"/>
<path d="M134.8 379.589V385.637L139.736 388.599L166.615 372.472L161.333 363.669L134.8 379.589Z" fill="#20201F"/>
<path d="M128.632 483.569V438.606H118.367V483.569L80.3848 506.358L85.6663 515.161L123.5 492.461L161.333 515.161L166.615 506.358L128.632 483.569Z" fill="#20201F"/>
<path d="M118.367 502.692V534.741H128.632V502.688L123.503 499.61L118.367 502.692Z" fill="#20201F"/>
<path d="M112.208 480.079V474.036L85.6663 458.111L80.3848 466.914L107.267 483.043L112.208 480.079Z" fill="#20201F"/>
<path d="M134.8 474.031V480.079L139.736 483.041L166.615 466.914L161.333 458.111L134.8 474.031Z" fill="#20201F"/>
</g>
<g clip-path="url(#clip8_215_14440)">
<path d="M840.029 436.348V391.386H829.763V436.348L791.781 459.138L797.063 467.94L834.896 445.24L872.73 467.94L878.011 459.138L840.029 436.348Z" fill="#20201F"/>
<path d="M829.763 455.47V487.519H840.029V455.466L834.9 452.389L829.763 455.47Z" fill="#20201F"/>
<path d="M823.604 432.857V426.814L797.063 410.89L791.781 419.692L818.664 435.822L823.604 432.857Z" fill="#20201F"/>
<path d="M846.196 426.81V432.857L851.133 435.819L878.011 419.692L872.73 410.89L846.196 426.81Z" fill="#20201F"/>
<path d="M998.117 436.348V391.386H987.852V436.348L949.87 459.138L955.151 467.94L992.985 445.24L1030.82 467.94L1036.1 459.138L998.117 436.348Z" fill="#20201F"/>
<path d="M987.852 455.47V487.519H998.117V455.466L992.988 452.389L987.852 455.47Z" fill="#20201F"/>
<path d="M981.693 432.857V426.814L955.151 410.89L949.87 419.692L976.752 435.822L981.693 432.857Z" fill="#20201F"/>
<path d="M1004.28 426.81V432.857L1009.22 435.819L1036.1 419.692L1030.82 410.89L1004.28 426.81Z" fill="#20201F"/>
<path d="M829.763 361.029V393.077H840.029V361.024L834.9 357.947L829.763 361.029Z" fill="#20201F"/>
<path d="M823.604 338.416V332.373L797.063 316.448L791.781 325.25L818.664 341.38L823.604 338.416Z" fill="#20201F"/>
<path d="M846.196 332.368V338.416L851.133 341.377L878.011 325.25L872.73 316.448L846.196 332.368Z" fill="#20201F"/>
<path d="M987.852 361.029V393.077H998.117V361.024L992.988 357.947L987.852 361.029Z" fill="#20201F"/>
<path d="M981.693 338.416V332.373L955.151 316.448L949.87 325.25L976.752 341.38L981.693 338.416Z" fill="#20201F"/>
<path d="M1004.28 332.368V338.416L1009.22 341.377L1036.1 325.25L1030.82 316.448L1004.28 332.368Z" fill="#20201F"/>
<path d="M919.073 389.127V344.165H908.808V389.127L870.826 411.917L876.107 420.719L913.941 398.019L951.774 420.719L957.056 411.917L919.073 389.127Z" fill="#20201F"/>
<path d="M908.808 408.25V440.298H919.073V408.245L913.944 405.168L908.808 408.25Z" fill="#20201F"/>
<path d="M902.649 385.637V379.594L876.107 363.669L870.826 372.472L897.708 388.601L902.649 385.637Z" fill="#20201F"/>
<path d="M925.241 379.589V385.637L930.177 388.599L957.056 372.472L951.774 363.669L925.241 379.589Z" fill="#20201F"/>
<path d="M919.073 483.569V438.606H908.808V483.569L870.826 506.358L876.107 515.161L913.941 492.461L951.774 515.161L957.056 506.358L919.073 483.569Z" fill="#20201F"/>
<path d="M908.808 502.692V534.741H919.073V502.688L913.944 499.61L908.808 502.692Z" fill="#20201F"/>
<path d="M902.649 480.079V474.036L876.107 458.111L870.826 466.914L897.708 483.043L902.649 480.079Z" fill="#20201F"/>
<path d="M925.241 474.031V480.079L930.177 483.041L957.056 466.914L951.774 458.111L925.241 474.031Z" fill="#20201F"/>
</g>
<g clip-path="url(#clip9_215_14440)">
<path d="M998.117 436.348V391.386H987.851V436.348L949.869 459.138L955.151 467.94L992.984 445.24L1030.82 467.94L1036.1 459.138L998.117 436.348Z" fill="#20201F"/>
<path d="M987.851 455.47V487.519H998.117V455.466L992.988 452.389L987.851 455.47Z" fill="#20201F"/>
<path d="M981.692 432.857V426.814L955.151 410.89L949.869 419.692L976.752 435.822L981.692 432.857Z" fill="#20201F"/>
<path d="M1004.28 426.81V432.857L1009.22 435.819L1036.1 419.692L1030.82 410.89L1004.28 426.81Z" fill="#20201F"/>
<path d="M1156.21 436.348V391.386H1145.94V436.348L1107.96 459.138L1113.24 467.94L1151.07 445.24L1188.91 467.94L1194.19 459.138L1156.21 436.348Z" fill="#20201F"/>
<path d="M1145.94 455.47V487.519H1156.21V455.466L1151.08 452.389L1145.94 455.47Z" fill="#20201F"/>
<path d="M1139.78 432.857V426.814L1113.24 410.89L1107.96 419.692L1134.84 435.822L1139.78 432.857Z" fill="#20201F"/>
<path d="M1162.37 426.81V432.857L1167.31 435.819L1194.19 419.692L1188.91 410.89L1162.37 426.81Z" fill="#20201F"/>
<path d="M987.851 361.029V393.077H998.117V361.024L992.988 357.947L987.851 361.029Z" fill="#20201F"/>
<path d="M981.692 338.416V332.373L955.151 316.448L949.869 325.25L976.752 341.38L981.692 338.416Z" fill="#20201F"/>
<path d="M1004.28 332.368V338.416L1009.22 341.377L1036.1 325.25L1030.82 316.448L1004.28 332.368Z" fill="#20201F"/>
<path d="M1145.94 361.029V393.077H1156.21V361.024L1151.08 357.947L1145.94 361.029Z" fill="#20201F"/>
<path d="M1139.78 338.416V332.373L1113.24 316.448L1107.96 325.25L1134.84 341.38L1139.78 338.416Z" fill="#20201F"/>
<path d="M1162.37 332.368V338.416L1167.31 341.377L1194.19 325.25L1188.91 316.448L1162.37 332.368Z" fill="#20201F"/>
<path d="M1077.16 389.127V344.165H1066.9V389.127L1028.91 411.917L1034.2 420.719L1072.03 398.019L1109.86 420.719L1115.14 411.917L1077.16 389.127Z" fill="#20201F"/>
<path d="M1066.9 408.25V440.298H1077.16V408.245L1072.03 405.168L1066.9 408.25Z" fill="#20201F"/>
<path d="M1060.74 385.637V379.594L1034.2 363.669L1028.91 372.472L1055.8 388.601L1060.74 385.637Z" fill="#20201F"/>
<path d="M1083.33 379.589V385.637L1088.26 388.599L1115.14 372.472L1109.86 363.669L1083.33 379.589Z" fill="#20201F"/>
<path d="M1077.16 483.569V438.606H1066.9V483.569L1028.91 506.358L1034.2 515.161L1072.03 492.461L1109.86 515.161L1115.14 506.358L1077.16 483.569Z" fill="#20201F"/>
<path d="M1066.9 502.692V534.741H1077.16V502.688L1072.03 499.61L1066.9 502.692Z" fill="#20201F"/>
<path d="M1060.74 480.079V474.036L1034.2 458.111L1028.91 466.914L1055.8 483.043L1060.74 480.079Z" fill="#20201F"/>
<path d="M1083.33 474.031V480.079L1088.26 483.041L1115.14 466.914L1109.86 458.111L1083.33 474.031Z" fill="#20201F"/>
</g>
<g clip-path="url(#clip10_215_14440)">
<path d="M1156.2 436.348V391.386H1145.94V436.348L1107.96 459.138L1113.24 467.94L1151.07 445.24L1188.91 467.94L1194.19 459.138L1156.2 436.348Z" fill="#20201F"/>
<path d="M1145.94 455.47V487.519H1156.2V455.466L1151.08 452.389L1145.94 455.47Z" fill="#20201F"/>
<path d="M1139.78 432.857V426.814L1113.24 410.89L1107.96 419.692L1134.84 435.822L1139.78 432.857Z" fill="#20201F"/>
<path d="M1162.37 426.81V432.857L1167.31 435.819L1194.19 419.692L1188.91 410.89L1162.37 426.81Z" fill="#20201F"/>
<path d="M1314.29 436.348V391.386H1304.03V436.348L1266.05 459.138L1271.33 467.94L1309.16 445.24L1346.99 467.94L1352.28 459.138L1314.29 436.348Z" fill="#20201F"/>
<path d="M1304.03 455.47V487.519H1314.29V455.466L1309.16 452.389L1304.03 455.47Z" fill="#20201F"/>
<path d="M1297.87 432.857V426.814L1271.33 410.89L1266.05 419.692L1292.93 435.822L1297.87 432.857Z" fill="#20201F"/>
<path d="M1320.46 426.81V432.857L1325.4 435.819L1352.28 419.692L1346.99 410.89L1320.46 426.81Z" fill="#20201F"/>
<path d="M1145.94 361.029V393.077H1156.2V361.024L1151.08 357.947L1145.94 361.029Z" fill="#20201F"/>
<path d="M1139.78 338.416V332.373L1113.24 316.448L1107.96 325.25L1134.84 341.38L1139.78 338.416Z" fill="#20201F"/>
<path d="M1162.37 332.368V338.416L1167.31 341.377L1194.19 325.25L1188.91 316.448L1162.37 332.368Z" fill="#20201F"/>
<path d="M1304.03 361.029V393.077H1314.29V361.024L1309.16 357.947L1304.03 361.029Z" fill="#20201F"/>
<path d="M1297.87 338.416V332.373L1271.33 316.448L1266.05 325.25L1292.93 341.38L1297.87 338.416Z" fill="#20201F"/>
<path d="M1320.46 332.368V338.416L1325.4 341.377L1352.28 325.25L1346.99 316.448L1320.46 332.368Z" fill="#20201F"/>
<path d="M1235.25 389.127V344.165H1224.98V389.127L1187 411.917L1192.28 420.719L1230.12 398.019L1267.95 420.719L1273.23 411.917L1235.25 389.127Z" fill="#20201F"/>
<path d="M1224.98 408.25V440.298H1235.25V408.245L1230.12 405.168L1224.98 408.25Z" fill="#20201F"/>
<path d="M1218.82 385.637V379.594L1192.28 363.669L1187 372.472L1213.88 388.601L1218.82 385.637Z" fill="#20201F"/>
<path d="M1241.42 379.589V385.637L1246.35 388.599L1273.23 372.472L1267.95 363.669L1241.42 379.589Z" fill="#20201F"/>
<path d="M1235.25 483.569V438.606H1224.98V483.569L1187 506.358L1192.28 515.161L1230.12 492.461L1267.95 515.161L1273.23 506.358L1235.25 483.569Z" fill="#20201F"/>
<path d="M1224.98 502.692V534.741H1235.25V502.688L1230.12 499.61L1224.98 502.692Z" fill="#20201F"/>
<path d="M1218.82 480.079V474.036L1192.28 458.111L1187 466.914L1213.88 483.043L1218.82 480.079Z" fill="#20201F"/>
<path d="M1241.42 474.031V480.079L1246.35 483.041L1273.23 466.914L1267.95 458.111L1241.42 474.031Z" fill="#20201F"/>
</g>
<g clip-path="url(#clip11_215_14440)">
<path d="M207.676 436.348V391.386H197.411V436.348L159.429 459.138L164.71 467.94L202.544 445.24L240.377 467.94L245.659 459.138L207.676 436.348Z" fill="#20201F"/>
<path d="M197.411 455.47V487.519H207.676V455.466L202.547 452.389L197.411 455.47Z" fill="#20201F"/>
<path d="M191.252 432.857V426.814L164.71 410.89L159.429 419.692L186.311 435.822L191.252 432.857Z" fill="#20201F"/>
<path d="M213.844 426.81V432.857L218.78 435.819L245.659 419.692L240.377 410.89L213.844 426.81Z" fill="#20201F"/>
<path d="M365.765 436.348V391.386H355.499V436.348L317.517 459.138L322.799 467.94L360.632 445.24L398.465 467.94L403.747 459.138L365.765 436.348Z" fill="#20201F"/>
<path d="M355.499 455.47V487.519H365.765V455.466L360.636 452.389L355.499 455.47Z" fill="#20201F"/>
<path d="M349.34 432.857V426.814L322.799 410.89L317.517 419.692L344.4 435.822L349.34 432.857Z" fill="#20201F"/>
<path d="M371.932 426.81V432.857L376.869 435.819L403.747 419.692L398.465 410.89L371.932 426.81Z" fill="#20201F"/>
<path d="M197.411 361.029V393.077H207.676V361.024L202.547 357.947L197.411 361.029Z" fill="#20201F"/>
<path d="M191.252 338.416V332.373L164.71 316.448L159.429 325.25L186.311 341.38L191.252 338.416Z" fill="#20201F"/>
<path d="M213.844 332.368V338.416L218.78 341.377L245.659 325.25L240.377 316.448L213.844 332.368Z" fill="#20201F"/>
<path d="M355.499 361.029V393.077H365.765V361.024L360.636 357.947L355.499 361.029Z" fill="#20201F"/>
<path d="M349.34 338.416V332.373L322.799 316.448L317.517 325.25L344.4 341.38L349.34 338.416Z" fill="#20201F"/>
<path d="M371.932 332.368V338.416L376.869 341.377L403.747 325.25L398.465 316.448L371.932 332.368Z" fill="#20201F"/>
<path d="M286.721 389.127V344.165H276.455V389.127L238.473 411.917L243.755 420.719L281.588 398.019L319.421 420.719L324.703 411.917L286.721 389.127Z" fill="#20201F"/>
<path d="M276.455 408.25V440.298H286.721V408.245L281.592 405.168L276.455 408.25Z" fill="#20201F"/>
<path d="M270.296 385.637V379.594L243.755 363.669L238.473 372.472L265.356 388.601L270.296 385.637Z" fill="#20201F"/>
<path d="M292.888 379.589V385.637L297.825 388.599L324.703 372.472L319.421 363.669L292.888 379.589Z" fill="#20201F"/>
<path d="M286.721 483.569V438.606H276.455V483.569L238.473 506.358L243.755 515.161L281.588 492.461L319.421 515.161L324.703 506.358L286.721 483.569Z" fill="#20201F"/>
<path d="M276.455 502.692V534.741H286.721V502.688L281.592 499.61L276.455 502.692Z" fill="#20201F"/>
<path d="M270.296 480.079V474.036L243.755 458.111L238.473 466.914L265.356 483.043L270.296 480.079Z" fill="#20201F"/>
<path d="M292.888 474.031V480.079L297.825 483.041L324.703 466.914L319.421 458.111L292.888 474.031Z" fill="#20201F"/>
</g>
<g clip-path="url(#clip12_215_14440)">
<path d="M365.764 436.348V391.386H355.499V436.348L317.517 459.138L322.798 467.94L360.632 445.24L398.465 467.94L403.746 459.138L365.764 436.348Z" fill="#20201F"/>
<path d="M355.499 455.47V487.519H365.764V455.466L360.635 452.389L355.499 455.47Z" fill="#20201F"/>
<path d="M349.34 432.857V426.814L322.798 410.89L317.517 419.692L344.399 435.822L349.34 432.857Z" fill="#20201F"/>
<path d="M371.932 426.81V432.857L376.868 435.819L403.746 419.692L398.465 410.89L371.932 426.81Z" fill="#20201F"/>
<path d="M523.853 436.348V391.386H513.587V436.348L475.605 459.138L480.887 467.94L518.72 445.24L556.553 467.94L561.835 459.138L523.853 436.348Z" fill="#20201F"/>
<path d="M513.587 455.47V487.519H523.853V455.466L518.723 452.389L513.587 455.47Z" fill="#20201F"/>
<path d="M507.428 432.857V426.814L480.887 410.89L475.605 419.692L502.487 435.822L507.428 432.857Z" fill="#20201F"/>
<path d="M530.02 426.81V432.857L534.956 435.819L561.835 419.692L556.553 410.89L530.02 426.81Z" fill="#20201F"/>
<path d="M355.499 361.029V393.077H365.764V361.024L360.635 357.947L355.499 361.029Z" fill="#20201F"/>
<path d="M349.34 338.416V332.373L322.798 316.448L317.517 325.25L344.399 341.38L349.34 338.416Z" fill="#20201F"/>
<path d="M371.932 332.368V338.416L376.868 341.377L403.746 325.25L398.465 316.448L371.932 332.368Z" fill="#20201F"/>
<path d="M513.587 361.029V393.077H523.853V361.024L518.723 357.947L513.587 361.029Z" fill="#20201F"/>
<path d="M507.428 338.416V332.373L480.887 316.448L475.605 325.25L502.487 341.38L507.428 338.416Z" fill="#20201F"/>
<path d="M530.02 332.368V338.416L534.956 341.377L561.835 325.25L556.553 316.448L530.02 332.368Z" fill="#20201F"/>
<path d="M444.809 389.127V344.165H434.543V389.127L396.561 411.917L401.843 420.719L439.676 398.019L477.509 420.719L482.791 411.917L444.809 389.127Z" fill="#20201F"/>
<path d="M434.543 408.25V440.298H444.809V408.245L439.68 405.168L434.543 408.25Z" fill="#20201F"/>
<path d="M428.384 385.637V379.594L401.843 363.669L396.561 372.472L423.443 388.601L428.384 385.637Z" fill="#20201F"/>
<path d="M450.976 379.589V385.637L455.912 388.599L482.791 372.472L477.509 363.669L450.976 379.589Z" fill="#20201F"/>
<path d="M444.809 483.569V438.606H434.543V483.569L396.561 506.358L401.843 515.161L439.676 492.461L477.509 515.161L482.791 506.358L444.809 483.569Z" fill="#20201F"/>
<path d="M434.543 502.692V534.741H444.809V502.688L439.68 499.61L434.543 502.692Z" fill="#20201F"/>
<path d="M428.384 480.079V474.036L401.843 458.111L396.561 466.914L423.443 483.043L428.384 480.079Z" fill="#20201F"/>
<path d="M450.976 474.031V480.079L455.912 483.041L482.791 466.914L477.509 458.111L450.976 474.031Z" fill="#20201F"/>
</g>
<g clip-path="url(#clip13_215_14440)">
<path d="M523.852 436.348V391.386H513.587V436.348L475.604 459.138L480.886 467.94L518.719 445.24L556.553 467.94L561.834 459.138L523.852 436.348Z" fill="#20201F"/>
<path d="M513.587 455.47V487.519H523.852V455.466L518.723 452.389L513.587 455.47Z" fill="#20201F"/>
<path d="M507.427 432.857V426.814L480.886 410.89L475.604 419.692L502.487 435.822L507.427 432.857Z" fill="#20201F"/>
<path d="M530.019 426.81V432.857L534.956 435.819L561.834 419.692L556.553 410.89L530.019 426.81Z" fill="#20201F"/>
<path d="M681.941 436.348V391.386H671.675V436.348L633.693 459.138L638.974 467.94L676.808 445.24L714.641 467.94L719.923 459.138L681.941 436.348Z" fill="#20201F"/>
<path d="M671.675 455.47V487.519H681.941V455.466L676.811 452.389L671.675 455.47Z" fill="#20201F"/>
<path d="M665.516 432.857V426.814L638.974 410.89L633.693 419.692L660.575 435.822L665.516 432.857Z" fill="#20201F"/>
<path d="M688.108 426.81V432.857L693.044 435.819L719.923 419.692L714.641 410.89L688.108 426.81Z" fill="#20201F"/>
<path d="M513.587 361.029V393.077H523.852V361.024L518.723 357.947L513.587 361.029Z" fill="#20201F"/>
<path d="M507.427 338.416V332.373L480.886 316.448L475.604 325.25L502.487 341.38L507.427 338.416Z" fill="#20201F"/>
<path d="M530.019 332.368V338.416L534.956 341.377L561.834 325.25L556.553 316.448L530.019 332.368Z" fill="#20201F"/>
<path d="M671.675 361.029V393.077H681.941V361.024L676.811 357.947L671.675 361.029Z" fill="#20201F"/>
<path d="M665.516 338.416V332.373L638.974 316.448L633.693 325.25L660.575 341.38L665.516 338.416Z" fill="#20201F"/>
<path d="M688.108 332.368V338.416L693.044 341.377L719.923 325.25L714.641 316.448L688.108 332.368Z" fill="#20201F"/>
<path d="M602.897 389.127V344.165H592.631V389.127L554.649 411.917L559.93 420.719L597.764 398.019L635.597 420.719L640.879 411.917L602.897 389.127Z" fill="#20201F"/>
<path d="M592.631 408.25V440.298H602.897V408.245L597.767 405.168L592.631 408.25Z" fill="#20201F"/>
<path d="M586.472 385.637V379.594L559.93 363.669L554.649 372.472L581.531 388.601L586.472 385.637Z" fill="#20201F"/>
<path d="M609.064 379.589V385.637L614 388.599L640.879 372.472L635.597 363.669L609.064 379.589Z" fill="#20201F"/>
<path d="M602.897 483.569V438.606H592.631V483.569L554.649 506.358L559.93 515.161L597.764 492.461L635.597 515.161L640.879 506.358L602.897 483.569Z" fill="#20201F"/>
<path d="M592.631 502.692V534.741H602.897V502.688L597.767 499.61L592.631 502.692Z" fill="#20201F"/>
<path d="M586.472 480.079V474.036L559.93 458.111L554.649 466.914L581.531 483.043L586.472 480.079Z" fill="#20201F"/>
<path d="M609.064 474.031V480.079L614 483.041L640.879 466.914L635.597 458.111L609.064 474.031Z" fill="#20201F"/>
</g>
<g clip-path="url(#clip14_215_14440)">
<path d="M681.941 436.348V391.386H671.675V436.348L633.693 459.138L638.974 467.94L676.808 445.24L714.641 467.94L719.923 459.138L681.941 436.348Z" fill="#20201F"/>
<path d="M671.675 455.47V487.519H681.941V455.466L676.811 452.389L671.675 455.47Z" fill="#20201F"/>
<path d="M665.516 432.857V426.814L638.974 410.89L633.693 419.692L660.575 435.822L665.516 432.857Z" fill="#20201F"/>
<path d="M688.108 426.81V432.857L693.044 435.819L719.923 419.692L714.641 410.89L688.108 426.81Z" fill="#20201F"/>
<path d="M840.029 436.348V391.386H829.763V436.348L791.781 459.138L797.063 467.94L834.896 445.24L872.73 467.94L878.011 459.138L840.029 436.348Z" fill="#20201F"/>
<path d="M829.763 455.47V487.519H840.029V455.466L834.9 452.389L829.763 455.47Z" fill="#20201F"/>
<path d="M823.604 432.857V426.814L797.063 410.89L791.781 419.692L818.664 435.822L823.604 432.857Z" fill="#20201F"/>
<path d="M846.196 426.81V432.857L851.133 435.819L878.011 419.692L872.73 410.89L846.196 426.81Z" fill="#20201F"/>
<path d="M671.675 361.029V393.077H681.941V361.024L676.811 357.947L671.675 361.029Z" fill="#20201F"/>
<path d="M665.516 338.416V332.373L638.974 316.448L633.693 325.25L660.575 341.38L665.516 338.416Z" fill="#20201F"/>
<path d="M688.108 332.368V338.416L693.044 341.377L719.923 325.25L714.641 316.448L688.108 332.368Z" fill="#20201F"/>
<path d="M829.763 361.029V393.077H840.029V361.024L834.9 357.947L829.763 361.029Z" fill="#20201F"/>
<path d="M823.604 338.416V332.373L797.063 316.448L791.781 325.25L818.664 341.38L823.604 338.416Z" fill="#20201F"/>
<path d="M846.196 332.368V338.416L851.133 341.377L878.011 325.25L872.73 316.448L846.196 332.368Z" fill="#20201F"/>
<path d="M760.985 389.127V344.165H750.72V389.127L712.737 411.917L718.019 420.719L755.852 398.019L793.686 420.719L798.967 411.917L760.985 389.127Z" fill="#20201F"/>
<path d="M750.72 408.25V440.298H760.985V408.245L755.856 405.168L750.72 408.25Z" fill="#20201F"/>
<path d="M744.56 385.637V379.594L718.019 363.669L712.737 372.472L739.62 388.601L744.56 385.637Z" fill="#20201F"/>
<path d="M767.152 379.589V385.637L772.089 388.599L798.967 372.472L793.686 363.669L767.152 379.589Z" fill="#20201F"/>
<path d="M760.985 483.569V438.606H750.72V483.569L712.737 506.358L718.019 515.161L755.852 492.461L793.686 515.161L798.967 506.358L760.985 483.569Z" fill="#20201F"/>
<path d="M750.72 502.692V534.741H760.985V502.688L755.856 499.61L750.72 502.692Z" fill="#20201F"/>
<path d="M744.56 480.079V474.036L718.019 458.111L712.737 466.914L739.62 483.043L744.56 480.079Z" fill="#20201F"/>
<path d="M767.152 474.031V480.079L772.089 483.041L798.967 466.914L793.686 458.111L767.152 474.031Z" fill="#20201F"/>
</g>
<g clip-path="url(#clip15_215_14440)">
<path d="M840.029 247.465V202.502H829.763V247.465L791.781 270.254L797.063 279.056L834.896 256.356L872.73 279.056L878.011 270.254L840.029 247.465Z" fill="#20201F"/>
<path d="M829.763 266.587V298.636H840.029V266.583L834.9 263.505L829.763 266.587Z" fill="#20201F"/>
<path d="M823.604 243.974V237.931L797.063 222.006L791.781 230.809L818.664 246.938L823.604 243.974Z" fill="#20201F"/>
<path d="M846.196 237.926V243.974L851.133 246.936L878.011 230.809L872.73 222.006L846.196 237.926Z" fill="#20201F"/>
<path d="M998.117 247.465V202.502H987.852V247.465L949.87 270.254L955.151 279.056L992.985 256.356L1030.82 279.056L1036.1 270.254L998.117 247.465Z" fill="#20201F"/>
<path d="M987.852 266.587V298.636H998.117V266.583L992.988 263.505L987.852 266.587Z" fill="#20201F"/>
<path d="M981.693 243.974V237.931L955.151 222.006L949.87 230.809L976.752 246.938L981.693 243.974Z" fill="#20201F"/>
<path d="M1004.28 237.926V243.974L1009.22 246.936L1036.1 230.809L1030.82 222.006L1004.28 237.926Z" fill="#20201F"/>
<path d="M829.763 172.145V204.193H840.029V172.14L834.9 169.063L829.763 172.145Z" fill="#20201F"/>
<path d="M823.604 149.532V143.489L797.063 127.564L791.781 136.367L818.664 152.496L823.604 149.532Z" fill="#20201F"/>
<path d="M846.196 143.484V149.532L851.133 152.494L878.011 136.367L872.73 127.564L846.196 143.484Z" fill="#20201F"/>
<path d="M987.852 172.145V204.193H998.117V172.14L992.988 169.063L987.852 172.145Z" fill="#20201F"/>
<path d="M981.693 149.532V143.489L955.151 127.564L949.87 136.367L976.752 152.496L981.693 149.532Z" fill="#20201F"/>
<path d="M1004.28 143.484V149.532L1009.22 152.494L1036.1 136.367L1030.82 127.564L1004.28 143.484Z" fill="#20201F"/>
<path d="M919.073 200.243V155.281H908.808V200.243L870.826 223.033L876.107 231.835L913.941 209.135L951.774 231.835L957.056 223.033L919.073 200.243Z" fill="#20201F"/>
<path d="M908.808 219.366V251.414H919.073V219.362L913.944 216.284L908.808 219.366Z" fill="#20201F"/>
<path d="M902.649 196.753V190.71L876.107 174.785L870.826 183.588L897.708 199.717L902.649 196.753Z" fill="#20201F"/>
<path d="M925.241 190.705V196.753L930.177 199.715L957.056 183.588L951.774 174.785L925.241 190.705Z" fill="#20201F"/>
<path d="M919.073 294.686V249.723H908.808V294.686L870.826 317.475L876.107 326.278L913.941 303.578L951.774 326.278L957.056 317.475L919.073 294.686Z" fill="#20201F"/>
<path d="M908.808 313.808V345.857H919.073V313.804L913.944 310.727L908.808 313.808Z" fill="#20201F"/>
<path d="M902.649 291.195V285.152L876.107 269.228L870.826 278.03L897.708 294.16L902.649 291.195Z" fill="#20201F"/>
<path d="M925.241 285.148V291.195L930.177 294.157L957.056 278.03L951.774 269.228L925.241 285.148Z" fill="#20201F"/>
</g>
<g clip-path="url(#clip16_215_14440)">
<path d="M681.941 247.465L676.916 249.826L676.808 256.357L714.641 279.057L719.923 270.254L681.941 247.465Z" fill="#20201F"/>
<path d="M671.675 266.587V298.636H681.941V266.583L676.811 263.505L671.675 266.587Z" fill="#20201F"/>
<path d="M665.516 243.974V237.931L638.974 222.006L633.693 230.809L660.575 246.938L665.516 243.974Z" fill="#20201F"/>
<path d="M688.108 237.926V243.974L693.044 246.936L719.923 230.809L714.641 222.006L688.108 237.926Z" fill="#20201F"/>
<path d="M840.029 247.464H829.763L791.781 270.254L797.063 279.056L834.896 256.356L872.73 279.056L878.011 270.254L840.029 247.464Z" fill="#20201F"/>
<path d="M829.763 266.587V298.636H840.029V266.583L834.9 263.505L829.763 266.587Z" fill="#20201F"/>
<path d="M823.604 243.974V237.931L797.063 222.006L791.781 230.809L818.664 246.938L823.604 243.974Z" fill="#20201F"/>
<path d="M846.196 237.926V243.974L851.133 246.936L878.011 230.809L872.73 222.006L846.196 237.926Z" fill="#20201F"/>
<path d="M681.941 341.906V296.944H671.675V341.906L633.693 364.696L638.974 373.498L676.808 350.798L714.641 373.498L719.923 364.696L681.941 341.906Z" fill="#20201F"/>
<path d="M750.719 219.366V251.414H760.985V219.362L755.856 216.284L750.719 219.366Z" fill="#20201F"/>
<path d="M760.985 294.686V249.723H750.72V294.686L712.737 317.475L718.019 326.278L755.852 303.578L793.686 326.278L798.967 317.475L760.985 294.686Z" fill="#20201F"/>
<path d="M750.72 313.808V345.857H760.985V313.804L755.856 310.726L750.72 313.808Z" fill="#20201F"/>
<path d="M744.56 291.195V285.152L718.019 269.228L712.737 278.03L739.62 294.16L744.56 291.195Z" fill="#20201F"/>
<path d="M767.152 285.148V291.195L772.089 294.157L798.967 278.03L793.686 269.228L767.152 285.148Z" fill="#20201F"/>
<path d="M756.095 197.392L713.264 223.091L718.51 231.835L756.095 209.285L793.679 231.835L798.926 223.091L756.095 197.392Z" fill="#20201F"/>
</g>
<g clip-path="url(#clip17_215_14440)">
<path d="M839.485 153.022L834.461 155.383L834.353 161.914L872.186 184.614L877.467 175.812L839.485 153.022Z" fill="#20201F"/>
<path d="M829.22 172.145V204.193H839.485V172.14L834.356 169.063L829.22 172.145Z" fill="#20201F"/>
<path d="M823.06 149.532V143.489L796.519 127.564L791.237 136.367L818.12 152.496L823.06 149.532Z" fill="#20201F"/>
<path d="M845.652 143.484V149.532L850.589 152.494L877.467 136.367L872.186 127.564L845.652 143.484Z" fill="#20201F"/>
<path d="M997.573 153.022H987.308L949.326 175.811L954.607 184.614L992.441 161.914L1030.27 184.614L1035.56 175.811L997.573 153.022Z" fill="#20201F"/>
<path d="M987.308 172.145V204.193H997.573V172.14L992.444 169.063L987.308 172.145Z" fill="#20201F"/>
<path d="M981.149 149.532V143.489L954.607 127.564L949.326 136.367L976.208 152.496L981.149 149.532Z" fill="#20201F"/>
<path d="M1003.74 143.484V149.532L1008.68 152.494L1035.56 136.367L1030.27 127.564L1003.74 143.484Z" fill="#20201F"/>
<path d="M839.485 247.464V202.501H829.22V247.464L791.237 270.253L796.519 279.056L834.352 256.356L872.186 279.056L877.467 270.253L839.485 247.464Z" fill="#20201F"/>
<path d="M908.264 124.924V156.972H918.529V124.919L913.4 121.842L908.264 124.924Z" fill="#20201F"/>
<path d="M918.529 200.243V155.281H908.264V200.243L870.282 223.033L875.563 231.835L913.397 209.135L951.23 231.835L956.512 223.033L918.529 200.243Z" fill="#20201F"/>
<path d="M908.264 219.366V251.414H918.529V219.362L913.4 216.284L908.264 219.366Z" fill="#20201F"/>
<path d="M902.105 196.753V190.71L875.563 174.785L870.282 183.588L897.164 199.717L902.105 196.753Z" fill="#20201F"/>
<path d="M924.697 190.705V196.753L929.633 199.715L956.512 183.588L951.23 174.785L924.697 190.705Z" fill="#20201F"/>
<path d="M913.639 102.95L870.808 128.648L876.055 137.393L913.639 114.842L951.224 137.393L956.471 128.648L913.639 102.95Z" fill="#20201F"/>
</g>
<g clip-path="url(#clip18_215_14440)">
<path d="M1155.78 58.5801L1150.76 60.9408L1150.65 67.4719L1188.48 90.172L1193.76 81.3694L1155.78 58.5801Z" fill="#20201F"/>
<path d="M1145.52 77.7023V109.751H1155.78V77.698L1150.65 74.6205L1145.52 77.7023Z" fill="#20201F"/>
<path d="M1139.36 55.0893V49.0464L1112.82 33.1216L1107.53 41.9241L1134.42 58.0536L1139.36 55.0893Z" fill="#20201F"/>
<path d="M1161.95 49.0416V55.0893L1166.89 58.0512L1193.76 41.9241L1188.48 33.1216L1161.95 49.0416Z" fill="#20201F"/>
<path d="M1313.87 58.5796H1303.61L1265.62 81.3689L1270.9 90.1715L1308.74 67.4714L1346.57 90.1715L1351.85 81.3689L1313.87 58.5796Z" fill="#20201F"/>
<path d="M1303.61 77.7023V109.751H1313.87V77.698L1308.74 74.6205L1303.61 77.7023Z" fill="#20201F"/>
<path d="M1297.45 55.0893V49.0464L1270.9 33.1216L1265.62 41.9241L1292.51 58.0536L1297.45 55.0893Z" fill="#20201F"/>
<path d="M1320.04 49.0416V55.0893L1324.97 58.0512L1351.85 41.9241L1346.57 33.1216L1320.04 49.0416Z" fill="#20201F"/>
<path d="M1155.78 153.022V108.059H1145.52V153.022L1107.53 175.811L1112.82 184.614L1150.65 161.914L1188.48 184.614L1193.76 175.811L1155.78 153.022Z" fill="#20201F"/>
<path d="M1224.56 30.4812V62.5297H1234.83V30.4769L1229.7 27.3994L1224.56 30.4812Z" fill="#20201F"/>
<path d="M1234.83 105.801V60.8384H1224.56V105.801L1186.58 128.59L1191.86 137.393L1229.69 114.693L1267.53 137.393L1272.81 128.59L1234.83 105.801Z" fill="#20201F"/>
<path d="M1224.56 124.924V156.972H1234.83V124.919L1229.7 121.842L1224.56 124.924Z" fill="#20201F"/>
<path d="M1218.4 102.311V96.2676L1191.86 80.3428L1186.58 89.1453L1213.46 105.275L1218.4 102.311Z" fill="#20201F"/>
<path d="M1240.99 96.2628V102.311L1245.93 105.272L1272.81 89.1453L1267.53 80.3428L1240.99 96.2628Z" fill="#20201F"/>
<path d="M1229.94 8.50732L1187.11 34.2061L1192.35 42.9507L1229.94 20.4L1267.52 42.9507L1272.77 34.2061L1229.94 8.50732Z" fill="#20201F"/>
</g>
<g clip-path="url(#clip19_215_14440)">
<path d="M998.117 247.465V202.502H987.851V247.465L949.869 270.254L955.151 279.056L992.984 256.356L1030.82 279.056L1036.1 270.254L998.117 247.465Z" fill="#20201F"/>
<path d="M987.851 266.587V298.636H998.117V266.583L992.988 263.505L987.851 266.587Z" fill="#20201F"/>
<path d="M981.692 243.974V237.931L955.151 222.006L949.869 230.809L976.752 246.938L981.692 243.974Z" fill="#20201F"/>
<path d="M1004.28 237.926V243.974L1009.22 246.936L1036.1 230.809L1030.82 222.006L1004.28 237.926Z" fill="#20201F"/>
<path d="M1156.21 247.465V202.502H1145.94V247.465L1107.96 270.254L1113.24 279.056L1151.07 256.356L1188.91 279.056L1194.19 270.254L1156.21 247.465Z" fill="#20201F"/>
<path d="M1145.94 266.587V298.636H1156.21V266.583L1151.08 263.505L1145.94 266.587Z" fill="#20201F"/>
<path d="M1139.78 243.974V237.931L1113.24 222.006L1107.96 230.809L1134.84 246.938L1139.78 243.974Z" fill="#20201F"/>
<path d="M1162.37 237.926V243.974L1167.31 246.936L1194.19 230.809L1188.91 222.006L1162.37 237.926Z" fill="#20201F"/>
<path d="M987.851 172.145V204.193H998.117V172.14L992.988 169.063L987.851 172.145Z" fill="#20201F"/>
<path d="M981.692 149.532V143.489L955.151 127.564L949.869 136.367L976.752 152.496L981.692 149.532Z" fill="#20201F"/>
<path d="M1004.28 143.484V149.532L1009.22 152.494L1036.1 136.367L1030.82 127.564L1004.28 143.484Z" fill="#20201F"/>
<path d="M1145.94 172.145V204.193H1156.21V172.14L1151.08 169.063L1145.94 172.145Z" fill="#20201F"/>
<path d="M1139.78 149.532V143.489L1113.24 127.564L1107.96 136.367L1134.84 152.496L1139.78 149.532Z" fill="#20201F"/>
<path d="M1162.37 143.484V149.532L1167.31 152.494L1194.19 136.367L1188.91 127.564L1162.37 143.484Z" fill="#20201F"/>
<path d="M1077.16 200.243V155.281H1066.9V200.243L1028.91 223.033L1034.2 231.835L1072.03 209.135L1109.86 231.835L1115.14 223.033L1077.16 200.243Z" fill="#20201F"/>
<path d="M1066.9 219.366V251.414H1077.16V219.362L1072.03 216.284L1066.9 219.366Z" fill="#20201F"/>
<path d="M1060.74 196.753V190.71L1034.2 174.785L1028.91 183.588L1055.8 199.717L1060.74 196.753Z" fill="#20201F"/>
<path d="M1083.33 190.705V196.753L1088.26 199.715L1115.14 183.588L1109.86 174.785L1083.33 190.705Z" fill="#20201F"/>
<path d="M1077.16 294.686V249.723H1066.9V294.686L1028.91 317.475L1034.2 326.278L1072.03 303.578L1109.86 326.278L1115.14 317.475L1077.16 294.686Z" fill="#20201F"/>
<path d="M1066.9 313.808V345.857H1077.16V313.804L1072.03 310.727L1066.9 313.808Z" fill="#20201F"/>
<path d="M1060.74 291.195V285.152L1034.2 269.228L1028.91 278.03L1055.8 294.16L1060.74 291.195Z" fill="#20201F"/>
<path d="M1083.33 285.148V291.195L1088.26 294.157L1115.14 278.03L1109.86 269.228L1083.33 285.148Z" fill="#20201F"/>
</g>
<g clip-path="url(#clip20_215_14440)">
<path d="M1156.2 247.465V202.502H1145.94V247.465L1107.96 270.254L1113.24 279.056L1151.07 256.356L1188.91 279.056L1194.19 270.254L1156.2 247.465Z" fill="#20201F"/>
<path d="M1145.94 266.587V298.636H1156.2V266.583L1151.08 263.505L1145.94 266.587Z" fill="#20201F"/>
<path d="M1139.78 243.974V237.931L1113.24 222.006L1107.96 230.809L1134.84 246.938L1139.78 243.974Z" fill="#20201F"/>
<path d="M1162.37 237.926V243.974L1167.31 246.936L1194.19 230.809L1188.91 222.006L1162.37 237.926Z" fill="#20201F"/>
<path d="M1314.29 247.465V202.502H1304.03V247.465L1266.05 270.254L1271.33 279.056L1309.16 256.356L1346.99 279.056L1352.28 270.254L1314.29 247.465Z" fill="#20201F"/>
<path d="M1304.03 266.587V298.636H1314.29V266.583L1309.16 263.505L1304.03 266.587Z" fill="#20201F"/>
<path d="M1297.87 243.974V237.931L1271.33 222.006L1266.05 230.809L1292.93 246.938L1297.87 243.974Z" fill="#20201F"/>
<path d="M1320.46 237.926V243.974L1325.4 246.936L1352.28 230.809L1346.99 222.006L1320.46 237.926Z" fill="#20201F"/>
<path d="M1145.94 172.145V204.193H1156.2V172.14L1151.08 169.063L1145.94 172.145Z" fill="#20201F"/>
<path d="M1139.78 149.532V143.489L1113.24 127.564L1107.96 136.367L1134.84 152.496L1139.78 149.532Z" fill="#20201F"/>
<path d="M1162.37 143.484V149.532L1167.31 152.494L1194.19 136.367L1188.91 127.564L1162.37 143.484Z" fill="#20201F"/>
<path d="M1304.03 172.145V204.193H1314.29V172.14L1309.16 169.063L1304.03 172.145Z" fill="#20201F"/>
<path d="M1297.87 149.532V143.489L1271.33 127.564L1266.05 136.367L1292.93 152.496L1297.87 149.532Z" fill="#20201F"/>
<path d="M1320.46 143.484V149.532L1325.4 152.494L1352.28 136.367L1346.99 127.564L1320.46 143.484Z" fill="#20201F"/>
<path d="M1235.25 200.243V155.281H1224.98V200.243L1187 223.033L1192.28 231.835L1230.12 209.135L1267.95 231.835L1273.23 223.033L1235.25 200.243Z" fill="#20201F"/>
<path d="M1224.98 219.366V251.414H1235.25V219.362L1230.12 216.284L1224.98 219.366Z" fill="#20201F"/>
<path d="M1218.82 196.753V190.71L1192.28 174.785L1187 183.588L1213.88 199.717L1218.82 196.753Z" fill="#20201F"/>
<path d="M1241.42 190.705V196.753L1246.35 199.715L1273.23 183.588L1267.95 174.785L1241.42 190.705Z" fill="#20201F"/>
<path d="M1235.25 294.686V249.723H1224.98V294.686L1187 317.475L1192.28 326.278L1230.12 303.578L1267.95 326.278L1273.23 317.475L1235.25 294.686Z" fill="#20201F"/>
<path d="M1224.98 313.808V345.857H1235.25V313.804L1230.12 310.727L1224.98 313.808Z" fill="#20201F"/>
<path d="M1218.82 291.195V285.152L1192.28 269.228L1187 278.03L1213.88 294.16L1218.82 291.195Z" fill="#20201F"/>
<path d="M1241.42 285.148V291.195L1246.35 294.157L1273.23 278.03L1267.95 269.228L1241.42 285.148Z" fill="#20201F"/>
</g>
<g clip-path="url(#clip21_215_14440)">
<path d="M49.5885 530.791V485.828H39.323V530.791L1.34082 553.58L6.62235 562.383L44.4558 539.683L82.2891 562.383L87.5707 553.58L49.5885 530.791Z" fill="#20201F"/>
<path d="M39.323 455.471V487.52H49.5885V455.467L44.4593 452.39L39.323 455.471Z" fill="#20201F"/>
<path d="M33.1637 432.858V426.815L6.62235 410.891L1.34082 419.693L28.2233 435.823L33.1637 432.858Z" fill="#20201F"/>
<path d="M55.7558 426.811V432.858L60.6922 435.82L87.5707 419.693L82.2891 410.891L55.7558 426.811Z" fill="#20201F"/>
<path d="M-29.4555 483.57V438.607H-39.7209V483.57L-77.7031 506.359L-72.4216 515.162L-34.5882 492.462L3.24521 515.162L8.52675 506.359L-29.4555 483.57Z" fill="#20201F"/>
<path d="M-39.7209 502.692V534.741H-29.4555V502.688L-34.5846 499.61L-39.7209 502.692Z" fill="#20201F"/>
<path d="M-45.8802 480.079V474.036L-72.4216 458.111L-77.7031 466.914L-50.8207 483.043L-45.8802 480.079Z" fill="#20201F"/>
<path d="M-23.2882 474.031V480.079L-18.3517 483.041L8.52675 466.914L3.24521 458.111L-23.2882 474.031Z" fill="#20201F"/>
</g>
<g clip-path="url(#clip22_215_14440)">
<path d="M49.588 530.791V485.828H39.3225V530.791L1.34033 553.58L6.62187 562.383L44.4553 539.683L82.2887 562.383L87.5702 553.58L49.588 530.791Z" fill="#20201F"/>
<path d="M207.676 530.791V485.828H197.411V530.791L159.429 553.58L164.71 562.383L202.544 539.683L240.377 562.383L245.659 553.58L207.676 530.791Z" fill="#20201F"/>
<path d="M39.3225 455.471V487.52H49.588V455.467L44.4588 452.39L39.3225 455.471Z" fill="#20201F"/>
<path d="M33.1633 432.858V426.815L6.62187 410.891L1.34033 419.693L28.2228 435.823L33.1633 432.858Z" fill="#20201F"/>
<path d="M55.7553 426.811V432.858L60.6918 435.82L87.5702 419.693L82.2887 410.891L55.7553 426.811Z" fill="#20201F"/>
<path d="M197.411 455.471V487.52H207.676V455.467L202.547 452.39L197.411 455.471Z" fill="#20201F"/>
<path d="M191.252 432.858V426.815L164.71 410.891L159.429 419.693L186.311 435.823L191.252 432.858Z" fill="#20201F"/>
<path d="M213.844 426.811V432.858L218.78 435.82L245.659 419.693L240.377 410.891L213.844 426.811Z" fill="#20201F"/>
<path d="M128.632 483.57V438.607H118.367V483.57L80.3848 506.359L85.6663 515.162L123.5 492.462L161.333 515.162L166.615 506.359L128.632 483.57Z" fill="#20201F"/>
<path d="M118.367 502.692V534.741H128.632V502.688L123.503 499.61L118.367 502.692Z" fill="#20201F"/>
<path d="M112.208 480.079V474.036L85.6663 458.111L80.3848 466.914L107.267 483.043L112.208 480.079Z" fill="#20201F"/>
<path d="M134.8 474.031V480.079L139.736 483.041L166.615 466.914L161.333 458.111L134.8 474.031Z" fill="#20201F"/>
</g>
<g clip-path="url(#clip23_215_14440)">
<path d="M207.676 530.791V485.828H197.411V530.791L159.429 553.58L164.71 562.383L202.544 539.683L240.377 562.383L245.659 553.58L207.676 530.791Z" fill="#20201F"/>
<path d="M365.765 530.791V485.828H355.499V530.791L317.517 553.58L322.799 562.383L360.632 539.683L398.465 562.383L403.747 553.58L365.765 530.791Z" fill="#20201F"/>
<path d="M197.411 455.471V487.52H207.676V455.467L202.547 452.39L197.411 455.471Z" fill="#20201F"/>
<path d="M191.252 432.858V426.815L164.71 410.891L159.429 419.693L186.311 435.823L191.252 432.858Z" fill="#20201F"/>
<path d="M213.844 426.811V432.858L218.78 435.82L245.659 419.693L240.377 410.891L213.844 426.811Z" fill="#20201F"/>
<path d="M355.499 455.471V487.52H365.765V455.467L360.636 452.39L355.499 455.471Z" fill="#20201F"/>
<path d="M349.34 432.858V426.815L322.799 410.891L317.517 419.693L344.4 435.823L349.34 432.858Z" fill="#20201F"/>
<path d="M371.932 426.811V432.858L376.869 435.82L403.747 419.693L398.465 410.891L371.932 426.811Z" fill="#20201F"/>
<path d="M286.721 483.57V438.607H276.455V483.57L238.473 506.359L243.755 515.162L281.588 492.462L319.421 515.162L324.703 506.359L286.721 483.57Z" fill="#20201F"/>
<path d="M276.455 502.692V534.741H286.721V502.688L281.592 499.61L276.455 502.692Z" fill="#20201F"/>
<path d="M270.296 480.079V474.036L243.755 458.111L238.473 466.914L265.356 483.043L270.296 480.079Z" fill="#20201F"/>
<path d="M292.888 474.031V480.079L297.825 483.041L324.703 466.914L319.421 458.111L292.888 474.031Z" fill="#20201F"/>
</g>
<g clip-path="url(#clip24_215_14440)">
<path d="M365.764 530.791V485.828H355.499V530.791L317.517 553.58L322.798 562.383L360.632 539.683L398.465 562.383L403.746 553.58L365.764 530.791Z" fill="#20201F"/>
<path d="M523.853 530.791V485.828H513.587V530.791L475.605 553.58L480.887 562.383L518.72 539.683L556.553 562.383L561.835 553.58L523.853 530.791Z" fill="#20201F"/>
<path d="M355.499 455.471V487.52H365.764V455.467L360.635 452.39L355.499 455.471Z" fill="#20201F"/>
<path d="M349.34 432.858V426.815L322.798 410.891L317.517 419.693L344.399 435.823L349.34 432.858Z" fill="#20201F"/>
<path d="M371.932 426.811V432.858L376.868 435.82L403.746 419.693L398.465 410.891L371.932 426.811Z" fill="#20201F"/>
<path d="M513.587 455.471V487.52H523.853V455.467L518.723 452.39L513.587 455.471Z" fill="#20201F"/>
<path d="M507.428 432.858V426.815L480.887 410.891L475.605 419.693L502.487 435.823L507.428 432.858Z" fill="#20201F"/>
<path d="M530.02 426.811V432.858L534.956 435.82L561.835 419.693L556.553 410.891L530.02 426.811Z" fill="#20201F"/>
<path d="M444.809 483.57V438.607H434.543V483.57L396.561 506.359L401.843 515.162L439.676 492.462L477.509 515.162L482.791 506.359L444.809 483.57Z" fill="#20201F"/>
<path d="M434.543 502.692V534.741H444.809V502.688L439.68 499.61L434.543 502.692Z" fill="#20201F"/>
<path d="M428.384 480.079V474.036L401.843 458.111L396.561 466.914L423.443 483.043L428.384 480.079Z" fill="#20201F"/>
<path d="M450.976 474.031V480.079L455.912 483.041L482.791 466.914L477.509 458.111L450.976 474.031Z" fill="#20201F"/>
</g>
<g clip-path="url(#clip25_215_14440)">
<path d="M523.852 530.791V485.828H513.587V530.791L475.604 553.58L480.886 562.383L518.719 539.683L556.553 562.383L561.834 553.58L523.852 530.791Z" fill="#20201F"/>
<path d="M681.941 530.791V485.828H671.675V530.791L633.693 553.58L638.974 562.383L676.808 539.683L714.641 562.383L719.923 553.58L681.941 530.791Z" fill="#20201F"/>
<path d="M513.587 455.471V487.52H523.852V455.467L518.723 452.39L513.587 455.471Z" fill="#20201F"/>
<path d="M507.427 432.858V426.815L480.886 410.891L475.604 419.693L502.487 435.823L507.427 432.858Z" fill="#20201F"/>
<path d="M530.019 426.811V432.858L534.956 435.82L561.834 419.693L556.553 410.891L530.019 426.811Z" fill="#20201F"/>
<path d="M671.675 455.471V487.52H681.941V455.467L676.811 452.39L671.675 455.471Z" fill="#20201F"/>
<path d="M665.516 432.858V426.815L638.974 410.891L633.693 419.693L660.575 435.823L665.516 432.858Z" fill="#20201F"/>
<path d="M688.108 426.811V432.858L693.044 435.82L719.923 419.693L714.641 410.891L688.108 426.811Z" fill="#20201F"/>
<path d="M602.897 483.57V438.607H592.631V483.57L554.649 506.359L559.93 515.162L597.764 492.462L635.597 515.162L640.879 506.359L602.897 483.57Z" fill="#20201F"/>
<path d="M592.631 502.692V534.741H602.897V502.688L597.767 499.61L592.631 502.692Z" fill="#20201F"/>
<path d="M586.472 480.079V474.036L559.93 458.111L554.649 466.914L581.531 483.043L586.472 480.079Z" fill="#20201F"/>
<path d="M609.064 474.031V480.079L614 483.041L640.879 466.914L635.597 458.111L609.064 474.031Z" fill="#20201F"/>
</g>
<g clip-path="url(#clip26_215_14440)">
<path d="M681.941 530.791V485.828H671.675V530.791L633.693 553.58L638.974 562.383L676.808 539.683L714.641 562.383L719.923 553.58L681.941 530.791Z" fill="#20201F"/>
<path d="M840.029 530.791V485.828H829.763V530.791L791.781 553.58L797.063 562.383L834.896 539.683L872.73 562.383L878.011 553.58L840.029 530.791Z" fill="#20201F"/>
<path d="M671.675 455.471V487.52H681.941V455.467L676.811 452.39L671.675 455.471Z" fill="#20201F"/>
<path d="M665.516 432.858V426.815L638.974 410.891L633.693 419.693L660.575 435.823L665.516 432.858Z" fill="#20201F"/>
<path d="M688.108 426.811V432.858L693.044 435.82L719.923 419.693L714.641 410.891L688.108 426.811Z" fill="#20201F"/>
<path d="M829.763 455.471V487.52H840.029V455.467L834.9 452.39L829.763 455.471Z" fill="#20201F"/>
<path d="M823.604 432.858V426.815L797.063 410.891L791.781 419.693L818.664 435.823L823.604 432.858Z" fill="#20201F"/>
<path d="M846.196 426.811V432.858L851.133 435.82L878.011 419.693L872.73 410.891L846.196 426.811Z" fill="#20201F"/>
<path d="M760.985 483.57V438.607H750.72V483.57L712.737 506.359L718.019 515.162L755.852 492.462L793.686 515.162L798.967 506.359L760.985 483.57Z" fill="#20201F"/>
<path d="M750.72 502.692V534.741H760.985V502.688L755.856 499.61L750.72 502.692Z" fill="#20201F"/>
<path d="M744.56 480.079V474.036L718.019 458.111L712.737 466.914L739.62 483.043L744.56 480.079Z" fill="#20201F"/>
<path d="M767.152 474.031V480.079L772.089 483.041L798.967 466.914L793.686 458.111L767.152 474.031Z" fill="#20201F"/>
</g>
<g clip-path="url(#clip27_215_14440)">
<path d="M840.029 530.791V485.828H829.763V530.791L791.781 553.58L797.063 562.383L834.896 539.683L872.73 562.383L878.011 553.58L840.029 530.791Z" fill="#20201F"/>
<path d="M998.117 530.791V485.828H987.852V530.791L949.87 553.58L955.151 562.383L992.985 539.683L1030.82 562.383L1036.1 553.58L998.117 530.791Z" fill="#20201F"/>
<path d="M829.763 455.471V487.52H840.029V455.467L834.9 452.39L829.763 455.471Z" fill="#20201F"/>
<path d="M823.604 432.858V426.815L797.063 410.891L791.781 419.693L818.664 435.823L823.604 432.858Z" fill="#20201F"/>
<path d="M846.196 426.811V432.858L851.133 435.82L878.011 419.693L872.73 410.891L846.196 426.811Z" fill="#20201F"/>
<path d="M987.852 455.471V487.52H998.117V455.467L992.988 452.39L987.852 455.471Z" fill="#20201F"/>
<path d="M981.693 432.858V426.815L955.151 410.891L949.87 419.693L976.752 435.823L981.693 432.858Z" fill="#20201F"/>
<path d="M1004.28 426.811V432.858L1009.22 435.82L1036.1 419.693L1030.82 410.891L1004.28 426.811Z" fill="#20201F"/>
<path d="M919.073 483.57V438.607H908.808V483.57L870.826 506.359L876.107 515.162L913.941 492.462L951.774 515.162L957.056 506.359L919.073 483.57Z" fill="#20201F"/>
<path d="M908.808 502.692V534.741H919.073V502.688L913.944 499.61L908.808 502.692Z" fill="#20201F"/>
<path d="M902.649 480.079V474.036L876.107 458.111L870.826 466.914L897.708 483.043L902.649 480.079Z" fill="#20201F"/>
<path d="M925.241 474.031V480.079L930.177 483.041L957.056 466.914L951.774 458.111L925.241 474.031Z" fill="#20201F"/>
</g>
<g clip-path="url(#clip28_215_14440)">
<path d="M998.117 530.791V485.828H987.851V530.791L949.869 553.58L955.151 562.383L992.984 539.683L1030.82 562.383L1036.1 553.58L998.117 530.791Z" fill="#20201F"/>
<path d="M1156.21 530.791V485.828H1145.94V530.791L1107.96 553.58L1113.24 562.383L1151.07 539.683L1188.91 562.383L1194.19 553.58L1156.21 530.791Z" fill="#20201F"/>
<path d="M987.851 455.471V487.52H998.117V455.467L992.988 452.39L987.851 455.471Z" fill="#20201F"/>
<path d="M981.692 432.858V426.815L955.151 410.891L949.869 419.693L976.752 435.823L981.692 432.858Z" fill="#20201F"/>
<path d="M1004.28 426.811V432.858L1009.22 435.82L1036.1 419.693L1030.82 410.891L1004.28 426.811Z" fill="#20201F"/>
<path d="M1145.94 455.471V487.52H1156.21V455.467L1151.08 452.39L1145.94 455.471Z" fill="#20201F"/>
<path d="M1139.78 432.858V426.815L1113.24 410.891L1107.96 419.693L1134.84 435.823L1139.78 432.858Z" fill="#20201F"/>
<path d="M1162.37 426.811V432.858L1167.31 435.82L1194.19 419.693L1188.91 410.891L1162.37 426.811Z" fill="#20201F"/>
<path d="M1077.16 483.57V438.607H1066.9V483.57L1028.91 506.359L1034.2 515.162L1072.03 492.462L1109.86 515.162L1115.14 506.359L1077.16 483.57Z" fill="#20201F"/>
<path d="M1066.9 502.692V534.741H1077.16V502.688L1072.03 499.61L1066.9 502.692Z" fill="#20201F"/>
<path d="M1060.74 480.079V474.036L1034.2 458.111L1028.91 466.914L1055.8 483.043L1060.74 480.079Z" fill="#20201F"/>
<path d="M1083.33 474.031V480.079L1088.26 483.041L1115.14 466.914L1109.86 458.111L1083.33 474.031Z" fill="#20201F"/>
</g>
<g clip-path="url(#clip29_215_14440)">
<path d="M1156.2 530.791V485.828H1145.94V530.791L1107.96 553.58L1113.24 562.383L1151.07 539.683L1188.91 562.383L1194.19 553.58L1156.2 530.791Z" fill="#20201F"/>
<path d="M1314.29 530.791V485.828H1304.03V530.791L1266.05 553.58L1271.33 562.383L1309.16 539.683L1346.99 562.383L1352.28 553.58L1314.29 530.791Z" fill="#20201F"/>
<path d="M1145.94 455.471V487.52H1156.2V455.467L1151.08 452.39L1145.94 455.471Z" fill="#20201F"/>
<path d="M1139.78 432.858V426.815L1113.24 410.891L1107.96 419.693L1134.84 435.823L1139.78 432.858Z" fill="#20201F"/>
<path d="M1162.37 426.811V432.858L1167.31 435.82L1194.19 419.693L1188.91 410.891L1162.37 426.811Z" fill="#20201F"/>
<path d="M1304.03 455.471V487.52H1314.29V455.467L1309.16 452.39L1304.03 455.471Z" fill="#20201F"/>
<path d="M1297.87 432.858V426.815L1271.33 410.891L1266.05 419.693L1292.93 435.823L1297.87 432.858Z" fill="#20201F"/>
<path d="M1320.46 426.811V432.858L1325.4 435.82L1352.28 419.693L1346.99 410.891L1320.46 426.811Z" fill="#20201F"/>
<path d="M1235.25 483.57V438.607H1224.98V483.57L1187 506.359L1192.28 515.162L1230.12 492.462L1267.95 515.162L1273.23 506.359L1235.25 483.57Z" fill="#20201F"/>
<path d="M1224.98 502.692V534.741H1235.25V502.688L1230.12 499.61L1224.98 502.692Z" fill="#20201F"/>
<path d="M1218.82 480.079V474.036L1192.28 458.111L1187 466.914L1213.88 483.043L1218.82 480.079Z" fill="#20201F"/>
<path d="M1241.42 474.031V480.079L1246.35 483.041L1273.23 466.914L1267.95 458.111L1241.42 474.031Z" fill="#20201F"/>
</g>
<g clip-path="url(#clip30_215_14440)">
<path d="M513.587 359.563V391.611H523.852V359.558L518.723 356.481L513.587 359.563Z" fill="#20201F"/>
<path d="M507.427 336.95V330.907L480.886 314.982L475.604 323.784L502.487 339.914L507.427 336.95Z" fill="#20201F"/>
<path d="M530.019 330.902V336.95L534.956 339.912L561.834 323.784L556.553 314.982L530.019 330.902Z" fill="#20201F"/>
<path d="M681.941 340.44V295.478H671.675V340.44L633.693 363.229L638.974 372.032L676.808 349.332L714.641 372.032L719.923 363.229L681.941 340.44Z" fill="#20201F"/>
<path d="M671.675 359.563V391.611H681.941V359.558L676.811 356.481L671.675 359.563Z" fill="#20201F"/>
<path d="M665.516 336.95V330.907L638.974 314.982L633.693 323.784L660.575 339.914L665.516 336.95Z" fill="#20201F"/>
<path d="M688.108 330.902V336.95L693.044 339.912L719.923 323.784L714.641 314.982L688.108 330.902Z" fill="#20201F"/>
<path d="M671.675 265.12V297.169H681.941V265.116L676.811 262.039L671.675 265.12Z" fill="#20201F"/>
<path d="M665.516 242.507V236.464L638.974 220.54L633.693 229.342L660.575 245.472L665.516 242.507Z" fill="#20201F"/>
<path d="M688.108 236.46V242.507L693.044 245.469L719.923 229.342L714.641 220.54L688.108 236.46Z" fill="#20201F"/>
<path d="M602.897 293.219V248.256H592.631V293.219L554.649 316.008L559.93 324.811L597.764 302.111L635.597 324.811L640.879 316.008L602.897 293.219Z" fill="#20201F"/>
<path d="M592.631 312.341V344.39H602.897V312.337L597.767 309.26L592.631 312.341Z" fill="#20201F"/>
<path d="M586.472 289.729V283.686L559.93 267.761L554.649 276.563L581.531 292.693L586.472 289.729Z" fill="#20201F"/>
<path d="M609.064 283.681V289.729L614 292.69L640.879 276.563L635.597 267.761L609.064 283.681Z" fill="#20201F"/>
<path d="M602.897 387.661V342.699H592.631V387.661L554.649 410.451L559.93 419.253L597.764 396.553L635.597 419.253L640.879 410.451L602.897 387.661Z" fill="#20201F"/>
<path d="M592.631 406.784V438.832H602.897V406.78L597.767 403.702L592.631 406.784Z" fill="#20201F"/>
<path d="M586.472 384.171V378.128L559.93 362.203L554.649 371.006L581.531 387.135L586.472 384.171Z" fill="#20201F"/>
<path d="M609.064 378.123V384.171L614 387.133L640.879 371.006L635.597 362.203L609.064 378.123Z" fill="#20201F"/>
<path d="M518.462 337.503L475.631 363.202L480.878 371.947L518.462 349.396L556.047 371.947L561.293 363.202L518.462 337.503Z" fill="#20201F"/>
</g>
<path d="M597.765 291.708L554.934 317.407L560.181 326.151L597.765 303.601L635.35 326.151L640.597 317.407L597.765 291.708Z" fill="#20201F"/>
<g clip-path="url(#clip31_215_14440)">
<path d="M355.499 359.563V391.611H365.764V359.558L360.635 356.481L355.499 359.563Z" fill="#20201F"/>
<path d="M349.34 336.95V330.907L322.798 314.982L317.517 323.784L344.399 339.914L349.34 336.95Z" fill="#20201F"/>
<path d="M371.932 330.902V336.95L376.868 339.912L403.746 323.784L398.465 314.982L371.932 330.902Z" fill="#20201F"/>
<path d="M523.853 340.44V295.478H513.587V340.44L475.605 363.229L480.887 372.032L518.72 349.332L556.553 372.032L561.835 363.229L523.853 340.44Z" fill="#20201F"/>
<path d="M513.587 359.563V391.611H523.853V359.558L518.723 356.481L513.587 359.563Z" fill="#20201F"/>
<path d="M507.428 336.95V330.907L480.887 314.982L475.605 323.784L502.487 339.914L507.428 336.95Z" fill="#20201F"/>
<path d="M530.02 330.902V336.95L534.956 339.912L561.835 323.784L556.553 314.982L530.02 330.902Z" fill="#20201F"/>
<path d="M513.587 265.12V297.169H523.853V265.116L518.723 262.039L513.587 265.12Z" fill="#20201F"/>
<path d="M507.428 242.507V236.464L480.887 220.54L475.605 229.342L502.487 245.472L507.428 242.507Z" fill="#20201F"/>
<path d="M530.02 236.46V242.507L534.956 245.469L561.835 229.342L556.553 220.54L530.02 236.46Z" fill="#20201F"/>
<path d="M444.809 293.219V248.256H434.543V293.219L396.561 316.008L401.843 324.811L439.676 302.111L477.509 324.811L482.791 316.008L444.809 293.219Z" fill="#20201F"/>
<path d="M434.543 312.341V344.39H444.809V312.337L439.68 309.26L434.543 312.341Z" fill="#20201F"/>
<path d="M428.384 289.729V283.686L401.843 267.761L396.561 276.563L423.443 292.693L428.384 289.729Z" fill="#20201F"/>
<path d="M450.976 283.681V289.729L455.912 292.69L482.791 276.563L477.509 267.761L450.976 283.681Z" fill="#20201F"/>
<path d="M444.809 387.661V342.699H434.543V387.661L396.561 410.451L401.843 419.253L439.676 396.553L477.509 419.253L482.791 410.451L444.809 387.661Z" fill="#20201F"/>
<path d="M434.543 406.784V438.832H444.809V406.78L439.68 403.702L434.543 406.784Z" fill="#20201F"/>
<path d="M428.384 384.171V378.128L401.843 362.203L396.561 371.006L423.443 387.135L428.384 384.171Z" fill="#20201F"/>
<path d="M450.976 378.123V384.171L455.912 387.133L482.791 371.006L477.509 362.203L450.976 378.123Z" fill="#20201F"/>
<path d="M360.374 337.503L317.543 363.202L322.79 371.947L360.374 349.396L397.959 371.947L403.205 363.202L360.374 337.503Z" fill="#20201F"/>
</g>
<path d="M439.677 291.708L396.846 317.407L402.093 326.151L439.677 303.601L477.262 326.151L482.509 317.407L439.677 291.708Z" fill="#20201F"/>
<g clip-path="url(#clip32_215_14440)">
<path d="M987.851 170.679V202.727H998.117V170.675L992.988 167.597L987.851 170.679Z" fill="#20201F"/>
<path d="M981.692 148.066V142.023L955.151 126.098L949.869 134.901L976.752 151.03L981.692 148.066Z" fill="#20201F"/>
<path d="M1004.28 142.018V148.066L1009.22 151.028L1036.1 134.901L1030.82 126.098L1004.28 142.018Z" fill="#20201F"/>
<path d="M1156.21 151.556V106.594H1145.94V151.556L1107.96 174.346L1113.24 183.148L1151.07 160.448L1188.91 183.148L1194.19 174.346L1156.21 151.556Z" fill="#20201F"/>
<path d="M1145.94 170.679V202.727H1156.21V170.675L1151.08 167.597L1145.94 170.679Z" fill="#20201F"/>
<path d="M1139.78 148.066V142.023L1113.24 126.098L1107.96 134.901L1134.84 151.03L1139.78 148.066Z" fill="#20201F"/>
<path d="M1162.37 142.018V148.066L1167.31 151.028L1194.19 134.901L1188.91 126.098L1162.37 142.018Z" fill="#20201F"/>
<path d="M1145.94 76.2365V108.285H1156.21V76.2322L1151.08 73.1547L1145.94 76.2365Z" fill="#20201F"/>
<path d="M1139.78 53.6235V47.5806L1113.24 31.6558L1107.96 40.4583L1134.84 56.5878L1139.78 53.6235Z" fill="#20201F"/>
<path d="M1162.37 47.5758V53.6235L1167.31 56.5854L1194.19 40.4583L1188.91 31.6558L1162.37 47.5758Z" fill="#20201F"/>
<path d="M1077.16 104.335V59.3726H1066.9V104.335L1028.91 127.125L1034.2 135.927L1072.03 113.227L1109.86 135.927L1115.14 127.125L1077.16 104.335Z" fill="#20201F"/>
<path d="M1066.9 123.458V155.506H1077.16V123.453L1072.03 120.376L1066.9 123.458Z" fill="#20201F"/>
<path d="M1060.74 100.845V94.8018L1034.2 78.877L1028.91 87.6795L1055.8 103.809L1060.74 100.845Z" fill="#20201F"/>
<path d="M1083.33 94.797V100.845L1088.26 103.807L1115.14 87.6795L1109.86 78.877L1083.33 94.797Z" fill="#20201F"/>
<path d="M1077.16 198.778V153.815H1066.9V198.778L1028.91 221.567L1034.2 230.369L1072.03 207.669L1109.86 230.369L1115.14 221.567L1077.16 198.778Z" fill="#20201F"/>
<path d="M1066.9 217.9V249.949H1077.16V217.896L1072.03 214.818L1066.9 217.9Z" fill="#20201F"/>
<path d="M1060.74 195.287V189.244L1034.2 173.319L1028.91 182.122L1055.8 198.251L1060.74 195.287Z" fill="#20201F"/>
<path d="M1083.33 189.239V195.287L1088.26 198.249L1115.14 182.122L1109.86 173.319L1083.33 189.239Z" fill="#20201F"/>
<path d="M992.727 148.62L949.896 174.318L955.142 183.063L992.727 160.512L1030.31 183.063L1035.56 174.318L992.727 148.62Z" fill="#20201F"/>
</g>
<path d="M1072.03 102.824L1029.2 128.523L1034.45 137.268L1072.03 114.717L1109.61 137.268L1114.86 128.523L1072.03 102.824Z" fill="#20201F"/>
<g clip-path="url(#clip33_215_14440)">
<path d="M197.411 359.563V391.611H207.676V359.558L202.547 356.481L197.411 359.563Z" fill="#20201F"/>
<path d="M191.252 336.95V330.907L164.71 314.982L159.429 323.784L186.311 339.914L191.252 336.95Z" fill="#20201F"/>
<path d="M213.844 330.902V336.95L218.78 339.912L245.659 323.784L240.377 314.982L213.844 330.902Z" fill="#20201F"/>
<path d="M365.765 340.44V295.478H355.499V340.44L317.517 363.229L322.799 372.032L360.632 349.332L398.465 372.032L403.747 363.229L365.765 340.44Z" fill="#20201F"/>
<path d="M355.499 359.563V391.611H365.765V359.558L360.636 356.481L355.499 359.563Z" fill="#20201F"/>
<path d="M349.34 336.95V330.907L322.799 314.982L317.517 323.784L344.4 339.914L349.34 336.95Z" fill="#20201F"/>
<path d="M371.932 330.902V336.95L376.869 339.912L403.747 323.784L398.465 314.982L371.932 330.902Z" fill="#20201F"/>
<path d="M355.499 265.12V297.169H365.765V265.116L360.636 262.039L355.499 265.12Z" fill="#20201F"/>
<path d="M349.34 242.507V236.464L322.799 220.54L317.517 229.342L344.4 245.472L349.34 242.507Z" fill="#20201F"/>
<path d="M371.932 236.46V242.507L376.869 245.469L403.747 229.342L398.465 220.54L371.932 236.46Z" fill="#20201F"/>
<path d="M286.721 293.219V248.256H276.455V293.219L238.473 316.008L243.755 324.811L281.588 302.111L319.421 324.811L324.703 316.008L286.721 293.219Z" fill="#20201F"/>
<path d="M276.455 312.341V344.39H286.721V312.337L281.592 309.26L276.455 312.341Z" fill="#20201F"/>
<path d="M270.296 289.729V283.686L243.755 267.761L238.473 276.563L265.356 292.693L270.296 289.729Z" fill="#20201F"/>
<path d="M292.888 283.681V289.729L297.825 292.69L324.703 276.563L319.421 267.761L292.888 283.681Z" fill="#20201F"/>
<path d="M286.721 387.661V342.699H276.455V387.661L238.473 410.451L243.755 419.253L281.588 396.553L319.421 419.253L324.703 410.451L286.721 387.661Z" fill="#20201F"/>
<path d="M276.455 406.784V438.832H286.721V406.78L281.592 403.702L276.455 406.784Z" fill="#20201F"/>
<path d="M270.296 384.171V378.128L243.755 362.203L238.473 371.006L265.356 387.135L270.296 384.171Z" fill="#20201F"/>
<path d="M292.888 378.123V384.171L297.825 387.133L324.703 371.006L319.421 362.203L292.888 378.123Z" fill="#20201F"/>
<path d="M202.286 337.503L159.455 363.202L164.702 371.947L202.286 349.396L239.871 371.947L245.118 363.202L202.286 337.503Z" fill="#20201F"/>
</g>
<path d="M281.59 291.708L238.758 317.407L244.005 326.151L281.59 303.601L319.174 326.151L324.421 317.407L281.59 291.708Z" fill="#20201F"/>
<g clip-path="url(#clip34_215_14440)">
<path d="M39.3225 359.563V391.611H49.588V359.558L44.4588 356.481L39.3225 359.563Z" fill="#20201F"/>
<path d="M33.1633 336.95V330.907L6.62187 314.982L1.34033 323.784L28.2228 339.914L33.1633 336.95Z" fill="#20201F"/>
<path d="M55.7553 330.902V336.95L60.6918 339.912L87.5702 323.784L82.2887 314.982L55.7553 330.902Z" fill="#20201F"/>
<path d="M207.676 340.44V295.478H197.411V340.44L159.429 363.229L164.71 372.032L202.544 349.332L240.377 372.032L245.659 363.229L207.676 340.44Z" fill="#20201F"/>
<path d="M197.411 359.563V391.611H207.676V359.558L202.547 356.481L197.411 359.563Z" fill="#20201F"/>
<path d="M191.252 336.95V330.907L164.71 314.982L159.429 323.784L186.311 339.914L191.252 336.95Z" fill="#20201F"/>
<path d="M213.844 330.902V336.95L218.78 339.912L245.659 323.784L240.377 314.982L213.844 330.902Z" fill="#20201F"/>
<path d="M197.411 265.12V297.169H207.676V265.116L202.547 262.039L197.411 265.12Z" fill="#20201F"/>
<path d="M191.252 242.507V236.464L164.71 220.54L159.429 229.342L186.311 245.472L191.252 242.507Z" fill="#20201F"/>
<path d="M213.844 236.46V242.507L218.78 245.469L245.659 229.342L240.377 220.54L213.844 236.46Z" fill="#20201F"/>
<path d="M128.632 293.219V248.256H118.367V293.219L80.3848 316.008L85.6663 324.811L123.5 302.111L161.333 324.811L166.615 316.008L128.632 293.219Z" fill="#20201F"/>
<path d="M118.367 312.341V344.39H128.632V312.337L123.503 309.26L118.367 312.341Z" fill="#20201F"/>
<path d="M112.208 289.729V283.686L85.6663 267.761L80.3848 276.563L107.267 292.693L112.208 289.729Z" fill="#20201F"/>
<path d="M134.8 283.681V289.729L139.736 292.69L166.615 276.563L161.333 267.761L134.8 283.681Z" fill="#20201F"/>
<path d="M128.632 387.661V342.699H118.367V387.661L80.3848 410.451L85.6663 419.253L123.5 396.553L161.333 419.253L166.615 410.451L128.632 387.661Z" fill="#20201F"/>
<path d="M118.367 406.784V438.832H128.632V406.78L123.503 403.702L118.367 406.784Z" fill="#20201F"/>
<path d="M112.208 384.171V378.128L85.6663 362.203L80.3848 371.006L107.267 387.135L112.208 384.171Z" fill="#20201F"/>
<path d="M134.8 378.123V384.171L139.736 387.133L166.615 371.006L161.333 362.203L134.8 378.123Z" fill="#20201F"/>
<path d="M44.1979 337.503L1.3667 363.202L6.61348 371.947L44.1979 349.396L81.7824 371.947L87.0291 363.202L44.1979 337.503Z" fill="#20201F"/>
</g>
<path d="M123.501 291.708L80.6699 317.407L85.9167 326.151L123.501 303.601L161.086 326.151L166.332 317.407L123.501 291.708Z" fill="#20201F"/>
<g clip-path="url(#clip35_215_14440)">
<path d="M49.5885 340.44V295.478H39.323V340.44L1.34082 363.229L6.62235 372.032L44.4558 349.332L82.2891 372.032L87.5707 363.229L49.5885 340.44Z" fill="#20201F"/>
<path d="M39.323 359.563V391.611H49.5885V359.558L44.4593 356.481L39.323 359.563Z" fill="#20201F"/>
<path d="M33.1637 336.95V330.907L6.62235 314.982L1.34082 323.784L28.2233 339.914L33.1637 336.95Z" fill="#20201F"/>
<path d="M55.7558 330.902V336.95L60.6922 339.912L87.5707 323.784L82.2891 314.982L55.7558 330.902Z" fill="#20201F"/>
<path d="M39.323 265.12V297.169H49.5885V265.116L44.4593 262.039L39.323 265.12Z" fill="#20201F"/>
<path d="M33.1637 242.507V236.464L6.62235 220.54L1.34082 229.342L28.2233 245.472L33.1637 242.507Z" fill="#20201F"/>
<path d="M55.7558 236.46V242.507L60.6922 245.469L87.5707 229.342L82.2891 220.54L55.7558 236.46Z" fill="#20201F"/>
<path d="M-29.4555 293.219V248.256H-39.7209V293.219L-77.7031 316.008L-72.4216 324.811L-34.5882 302.111L3.24521 324.811L8.52675 316.008L-29.4555 293.219Z" fill="#20201F"/>
<path d="M-39.7209 312.341V344.39H-29.4555V312.337L-34.5846 309.26L-39.7209 312.341Z" fill="#20201F"/>
<path d="M-45.8802 289.729V283.686L-72.4216 267.761L-77.7031 276.563L-50.8207 292.693L-45.8802 289.729Z" fill="#20201F"/>
<path d="M-23.2882 283.681V289.729L-18.3517 292.69L8.52675 276.563L3.24521 267.761L-23.2882 283.681Z" fill="#20201F"/>
<path d="M-29.4555 387.661V342.699H-39.7209V387.661L-77.7031 410.451L-72.4216 419.253L-34.5882 396.553L3.24521 419.253L8.52675 410.451L-29.4555 387.661Z" fill="#20201F"/>
<path d="M-39.7209 406.784V438.832H-29.4555V406.78L-34.5846 403.702L-39.7209 406.784Z" fill="#20201F"/>
<path d="M-45.8802 384.171V378.128L-72.4216 362.203L-77.7031 371.006L-50.8207 387.135L-45.8802 384.171Z" fill="#20201F"/>
<path d="M-23.2882 378.123V384.171L-18.3517 387.133L8.52675 371.006L3.24521 362.203L-23.2882 378.123Z" fill="#20201F"/>
</g>
<path d="M-34.5868 291.708L-77.418 317.407L-72.1712 326.151L-34.5868 303.601L2.99768 326.151L8.24447 317.407L-34.5868 291.708Z" fill="#20201F"/>
<path d="M997.763 247.413V203.891H987.843V247.413L951.137 269.472L956.241 277.992L992.803 256.02L1029.36 277.992L1034.47 269.472L997.763 247.413Z" fill="#DDDDDA"/>
<path d="M987.843 265.922V296.944H997.763V265.918L992.806 262.939L987.843 265.922Z" fill="#DDDDDA"/>
<path d="M981.89 244.034V238.185L956.241 222.77L951.137 231.291L977.116 246.903L981.89 244.034Z" fill="#DDDDDA"/>
<path d="M1003.72 238.18V244.034L1008.49 246.901L1034.47 231.291L1029.36 222.77L1003.72 238.18Z" fill="#DDDDDA"/>
</g>
<defs>
<clipPath id="clip0_215_14440">
<rect width="1280" height="499" fill="white" transform="translate(0.705566)"/>
</clipPath>
<clipPath id="clip1_215_14440">
<rect width="158.088" height="94.4422" fill="white" transform="translate(671.675 296.943)"/>
</clipPath>
<clipPath id="clip2_215_14440">
<rect width="158.088" height="94.4422" fill="white" transform="translate(829.764 296.943)"/>
</clipPath>
<clipPath id="clip3_215_14440">
<rect width="158.088" height="94.4422" fill="white" transform="translate(987.852 296.943)"/>
</clipPath>
<clipPath id="clip4_215_14440">
<rect width="158.088" height="94.4422" fill="white" transform="translate(1145.94 296.943)"/>
</clipPath>
<clipPath id="clip5_215_14440">
<rect width="158.088" height="94.4422" fill="white" transform="translate(1145.94 108.06)"/>
</clipPath>
<clipPath id="clip6_215_14440">
<rect width="158.088" height="94.4422" fill="white" transform="translate(-118.765 391.386)"/>
</clipPath>
<clipPath id="clip7_215_14440">
<rect width="158.088" height="94.4422" fill="white" transform="translate(39.3228 391.386)"/>
</clipPath>
<clipPath id="clip8_215_14440">
<rect width="158.088" height="94.4422" fill="white" transform="translate(829.764 391.386)"/>
</clipPath>
<clipPath id="clip9_215_14440">
<rect width="158.088" height="94.4422" fill="white" transform="translate(987.852 391.386)"/>
</clipPath>
<clipPath id="clip10_215_14440">
<rect width="158.088" height="94.4422" fill="white" transform="translate(1145.94 391.386)"/>
</clipPath>
<clipPath id="clip11_215_14440">
<rect width="158.088" height="94.4422" fill="white" transform="translate(197.411 391.386)"/>
</clipPath>
<clipPath id="clip12_215_14440">
<rect width="158.088" height="94.4422" fill="white" transform="translate(355.499 391.386)"/>
</clipPath>
<clipPath id="clip13_215_14440">
<rect width="158.088" height="94.4422" fill="white" transform="translate(513.587 391.386)"/>
</clipPath>
<clipPath id="clip14_215_14440">
<rect width="158.088" height="94.4422" fill="white" transform="translate(671.675 391.386)"/>
</clipPath>
<clipPath id="clip15_215_14440">
<rect width="158.088" height="94.4422" fill="white" transform="translate(829.764 202.502)"/>
</clipPath>
<clipPath id="clip16_215_14440">
<rect width="158.33" height="108.331" fill="white" transform="translate(671.977 188.613)"/>
</clipPath>
<clipPath id="clip17_215_14440">
<rect width="158.33" height="108.331" fill="white" transform="translate(829.521 94.1709)"/>
</clipPath>
<clipPath id="clip18_215_14440">
<rect width="158.33" height="108.331" fill="white" transform="translate(1145.82 -0.271484)"/>
</clipPath>
<clipPath id="clip19_215_14440">
<rect width="158.088" height="94.4422" fill="white" transform="translate(987.852 202.502)"/>
</clipPath>
<clipPath id="clip20_215_14440">
<rect width="158.088" height="94.4422" fill="white" transform="translate(1145.94 202.502)"/>
</clipPath>
<clipPath id="clip21_215_14440">
<rect width="158.088" height="94.4422" fill="white" transform="translate(-118.765 485.828)"/>
</clipPath>
<clipPath id="clip22_215_14440">
<rect width="158.088" height="94.4422" fill="white" transform="translate(39.3228 485.828)"/>
</clipPath>
<clipPath id="clip23_215_14440">
<rect width="158.088" height="94.4422" fill="white" transform="translate(197.411 485.828)"/>
</clipPath>
<clipPath id="clip24_215_14440">
<rect width="158.088" height="94.4422" fill="white" transform="translate(355.499 485.828)"/>
</clipPath>
<clipPath id="clip25_215_14440">
<rect width="158.088" height="94.4422" fill="white" transform="translate(513.587 485.828)"/>
</clipPath>
<clipPath id="clip26_215_14440">
<rect width="158.088" height="94.4422" fill="white" transform="translate(671.675 485.828)"/>
</clipPath>
<clipPath id="clip27_215_14440">
<rect width="158.088" height="94.4422" fill="white" transform="translate(829.764 485.828)"/>
</clipPath>
<clipPath id="clip28_215_14440">
<rect width="158.088" height="94.4422" fill="white" transform="translate(987.852 485.828)"/>
</clipPath>
<clipPath id="clip29_215_14440">
<rect width="158.088" height="94.4422" fill="white" transform="translate(1145.94 485.828)"/>
</clipPath>
<clipPath id="clip30_215_14440">
<rect width="158.088" height="94.4422" fill="white" transform="translate(513.587 295.478)"/>
</clipPath>
<clipPath id="clip31_215_14440">
<rect width="158.088" height="94.4422" fill="white" transform="translate(355.499 295.478)"/>
</clipPath>
<clipPath id="clip32_215_14440">
<rect width="158.088" height="94.4422" fill="white" transform="translate(987.852 106.594)"/>
</clipPath>
<clipPath id="clip33_215_14440">
<rect width="158.088" height="94.4422" fill="white" transform="translate(197.411 295.478)"/>
</clipPath>
<clipPath id="clip34_215_14440">
<rect width="158.088" height="94.4422" fill="white" transform="translate(39.3228 295.478)"/>
</clipPath>
<clipPath id="clip35_215_14440">
<rect width="158.088" height="94.4422" fill="white" transform="translate(-118.765 295.478)"/>
</clipPath>
</defs>
</svg>
