<svg width="645" height="198" xmlns="http://www.w3.org/2000/svg" fill="none">

 <g>
  <title>Layer 1</title>
  <line id="svg_1" x1="0.70397" stroke-width="5.40794" stroke="#20201F" y2="78.5707" x2="43.9675" y1="52.61258"/>
  <line id="svg_2" stroke-width="5.40794" stroke="#20201F" y2="28.50674" x2="43.96747" y1="54.46484" x1="0.70397"/>
  <line stroke="#20201F" id="svg_3" stroke-width="5.40794" y2="51.37534" x2="2.63606" y1="104" x1="2.63606"/>
  <line id="svg_4" stroke-width="5.40794" stroke="#20201F" y2="78.57074" x2="121.37927" y1="52.61254" x1="164.64327"/>
  <line id="svg_5" x1="164.64346" stroke-width="5.40794" stroke="#20201F" y2="28.50668" x2="121.37993" y1="54.4648"/>
  <line id="svg_6" x1="160.77909" stroke-width="5.40794" stroke="#20201F" y2="78.5707" x2="204.04262" y1="52.61258"/>
  <line id="svg_7" stroke-width="5.40794" stroke="#20201F" y2="28.50674" x2="204.04227" y1="54.46484" x1="160.77927"/>
  <line id="svg_8" stroke-width="5.40794" stroke="#20201F" y2="55.37534" x2="162.71127" y1="105.82934" x1="162.71127"/>
  <line id="svg_9" stroke-width="5.40794" stroke="#20201F" y2="127.24234" x2="41.34197" y1="101.28434" x1="84.60547"/>
  <line id="svg_10" x1="84.60546" stroke-width="5.40794" stroke="#20201F" y2="77.17858" x2="41.34193" y1="103.1367"/>
  <line id="svg_11" x1="80.74159" stroke-width="5.40794" stroke="#20201F" y2="127.2423" x2="124.00511" y1="101.28417"/>
  <line id="svg_12" stroke-width="5.40794" stroke="#20201F" y2="77.17834" x2="124.00527" y1="103.13634" x1="80.74157"/>
  <line id="svg_13" stroke-width="5.40794" stroke="#20201F" y2="53.53864" x2="82.67357" y1="103.99234" x1="82.67357"/>
  <path id="svg_14" d="m82.67357,155.15737l0,-50.4534" opacity="undefined" stroke-width="5.40794" stroke="#20201F"/>
  <line id="svg_15" stroke-width="5.40794" stroke="#20201F" y2="175.91334" x2="121.37927" y1="149.95534" x1="164.64327"/>
  <line id="svg_16" x1="164.64346" stroke-width="5.40794" stroke="#20201F" y2="125.84957" x2="121.37993" y1="151.8077"/>
  <line id="svg_17" x1="160.77909" stroke-width="5.40794" stroke="#20201F" y2="175.9141" x2="204.04262" y1="149.95597"/>
  <line id="svg_18" stroke-width="5.40794" stroke="#20201F" y2="125.84934" x2="204.04227" y1="151.80734" x1="160.77927"/>
  <line id="svg_19" stroke-width="5.40794" stroke="#20201F" y2="102.21034" x2="162.71127" y1="152.66334" x1="162.71127"/>
  <line id="svg_20" stroke-width="5.40794" stroke="#20201F" y2="148.71834" x2="162.71127" y1="199.17234" x1="162.71127"/>
  <line id="svg_21" stroke-width="5.40794" stroke="#20201F" y2="29.89934" x2="41.34197" y1="3.9412" x1="84.60547"/>
  <line id="svg_22" x1="80.74159" stroke-width="5.40794" stroke="#20201F" y2="29.89933" x2="124.00511" y1="3.9412"/>
  <line stroke="#20201F" id="svg_23" stroke-width="5.40794" y2="1.70397" x2="82.67357" y1="54" x1="82.67357"/>
  <line id="svg_24" x1="84.60546" stroke-width="5.40794" stroke="#20201F" y2="174.52157" x2="41.34193" y1="200.4797"/>
  <line id="svg_25" stroke-width="5.40794" stroke="#20201F" y2="174.52134" x2="124.00527" y1="200.47934" x1="80.74157"/>
  <line id="svg_26" stroke-width="5.40794" stroke="#20201F" y2="150.88134" x2="82.67357" y1="201.33534" x1="82.67357"/>
  <line id="svg_27" x1="0.70397" stroke-width="5.40794" stroke="#20201F" y2="175.9141" x2="43.9675" y1="149.95597"/>
  <line id="svg_28" stroke-width="5.40794" stroke="#20201F" y2="125.84934" x2="43.96747" y1="151.80734" x1="0.70397"/>
  <line id="svg_29" stroke-width="5.40794" stroke="#20201F" y2="102.21034" x2="2.63606" y1="152.66334" x1="2.63606"/>
  <line id="svg_30" stroke-width="5.40794" stroke="#20201F" y2="127.24234" x2="201.41727" y1="101.28434" x1="244.68027"/>
  <line id="svg_31" x1="244.68046" stroke-width="5.40794" stroke="#20201F" y2="77.17858" x2="201.41694" y1="103.1367"/>
  <line id="svg_32" x1="240.8161" stroke-width="5.40794" stroke="#20201F" y2="127.2423" x2="284.07962" y1="101.28417"/>
  <line id="svg_33" stroke-width="5.40794" stroke="#20201F" y2="77.17834" x2="284.08027" y1="103.13634" x1="240.81627"/>
  <line id="svg_34" stroke-width="5.40794" stroke="#20201F" y2="53.53864" x2="242.74827" y1="103.99234" x1="242.74827"/>
  <line id="svg_35" stroke-width="5.40794" stroke="#20201F" y2="102.04694" x2="242.74827" y1="152.50034" x1="242.74827"/>
  <line id="svg_36" stroke-width="5.40794" stroke="#20201F" y2="29.89934" x2="201.41727" y1="3.9412" x1="244.68027"/>
  <line id="svg_37" x1="240.8161" stroke-width="5.40794" stroke="#20201F" y2="29.89933" x2="284.07962" y1="3.9412"/>
  <line id="svg_38" stroke-width="5.40794" stroke="#20201F" y2="4.70397" x2="242.74827" y1="55.15744" x1="242.74827"/>
  <line id="svg_39" x1="244.68046" stroke-width="5.40794" stroke="#20201F" y2="174.52157" x2="201.41694" y1="200.4797"/>
  <line id="svg_40" stroke-width="5.40794" stroke="#20201F" y2="174.52134" x2="284.08027" y1="200.47934" x1="240.81627"/>
  <line id="svg_41" stroke-width="5.40794" stroke="#20201F" y2="150.88134" x2="242.74827" y1="201.33534" x1="242.74827"/>
  <line id="svg_42" stroke-width="5.40794" stroke="#20201F" y2="78.57074" x2="281.45727" y1="52.61254" x1="324.72027"/>
  <line id="svg_43" x1="324.72044" stroke-width="5.40794" stroke="#20201F" y2="28.50668" x2="281.45691" y1="54.4648"/>
  <line id="svg_44" x1="320.85611" stroke-width="5.40794" stroke="#20201F" y2="78.5707" x2="364.11963" y1="52.61258"/>
  <line id="svg_45" stroke-width="5.40794" stroke="#20201F" y2="28.50674" x2="364.12027" y1="54.46484" x1="320.85627"/>
  <line id="svg_46" stroke-width="5.40794" stroke="#20201F" y2="54.37534" x2="322.78827" y1="104.82934" x1="322.78827"/>
  <line id="svg_47" stroke-width="5.40794" stroke="#20201F" y2="78.57074" x2="441.53127" y1="52.61254" x1="484.79527"/>
  <line id="svg_48" x1="484.79545" stroke-width="5.40794" stroke="#20201F" y2="28.50668" x2="441.53193" y1="54.4648"/>
  <line id="svg_49" x1="480.93109" stroke-width="5.40794" stroke="#20201F" y2="78.5707" x2="524.19461" y1="52.61258"/>
  <line id="svg_50" stroke-width="5.40794" stroke="#20201F" y2="28.50674" x2="524.19527" y1="54.46484" x1="480.93127"/>
  <line id="svg_51" stroke-width="5.40794" stroke="#20201F" y2="53.37534" x2="482.86327" y1="103.82934" x1="482.86327"/>
  <line id="svg_52" stroke-width="5.40794" stroke="#20201F" y2="127.24234" x2="361.49427" y1="101.28434" x1="404.75827"/>
  <line id="svg_53" x1="404.75746" stroke-width="5.40794" stroke="#20201F" y2="77.17858" x2="361.49393" y1="103.1367"/>
  <line id="svg_54" x1="400.8941" stroke-width="5.40794" stroke="#20201F" y2="127.2423" x2="444.15762" y1="101.28417"/>
  <line id="svg_55" stroke-width="5.40794" stroke="#20201F" y2="77.17834" x2="444.15727" y1="103.13634" x1="400.89427"/>
  <line id="svg_56" stroke-width="5.40794" stroke="#20201F" y2="53.53864" x2="402.82627" y1="103.99234" x1="402.82627"/>
  <line id="svg_57" stroke-width="5.40794" stroke="#20201F" y2="102.04694" x2="402.82627" y1="152.50034" x1="402.82627"/>
  <line id="svg_58" stroke-width="5.40794" stroke="#20201F" y2="175.91334" x2="441.53127" y1="149.95534" x1="484.79527"/>
  <line id="svg_59" x1="484.79545" stroke-width="5.40794" stroke="#20201F" y2="125.84957" x2="441.53193" y1="151.8077"/>
  <line id="svg_60" x1="480.93109" stroke-width="5.40794" stroke="#20201F" y2="175.9141" x2="524.19461" y1="149.95597"/>
  <line id="svg_61" stroke-width="5.40794" stroke="#20201F" y2="125.84934" x2="524.19527" y1="151.80734" x1="480.93127"/>
  <line id="svg_62" stroke-width="5.40794" stroke="#20201F" y2="102.21034" x2="482.86327" y1="152.66334" x1="482.86327"/>
  <line id="svg_63" stroke-width="5.40794" stroke="#20201F" y2="148.71834" x2="482.86327" y1="199.17234" x1="482.86327"/>
  <line id="svg_64" stroke-width="5.40794" stroke="#20201F" y2="29.89934" x2="361.49427" y1="3.9412" x1="404.75827"/>
  <line id="svg_65" x1="400.8941" stroke-width="5.40794" stroke="#20201F" y2="29.89933" x2="444.15762" y1="3.9412"/>
  <line id="svg_66" stroke-width="5.40794" stroke="#20201F" y2="4.70397" x2="402.82627" y1="55.15744" x1="402.82627"/>
  <line id="svg_67" x1="404.75746" stroke-width="5.40794" stroke="#20201F" y2="174.52157" x2="361.49393" y1="200.4797"/>
  <line id="svg_68" stroke-width="5.40794" stroke="#20201F" y2="174.52134" x2="444.15727" y1="200.47934" x1="400.89427"/>
  <line id="svg_69" stroke-width="5.40794" stroke="#20201F" y2="150.88134" x2="402.82627" y1="201.33534" x1="402.82627"/>
  <line id="svg_70" stroke-width="5.40794" stroke="#20201F" y2="175.91334" x2="281.45727" y1="149.95534" x1="324.72027"/>
  <line id="svg_71" x1="324.72044" stroke-width="5.40794" stroke="#20201F" y2="125.84957" x2="281.45691" y1="151.8077"/>
  <line id="svg_72" x1="320.85611" stroke-width="5.40794" stroke="#20201F" y2="175.9141" x2="364.11963" y1="149.95597"/>
  <line id="svg_73" stroke-width="5.40794" stroke="#20201F" y2="125.84934" x2="364.12027" y1="151.80734" x1="320.85627"/>
  <line id="svg_74" stroke-width="5.40794" stroke="#20201F" y2="102.21034" x2="322.78827" y1="152.66334" x1="322.78827"/>
  <line id="svg_75" stroke-width="5.40794" stroke="#20201F" y2="148.71834" x2="322.78827" y1="199.17234" x1="322.78827"/>
  <line id="svg_76" stroke-width="5.40794" stroke="#20201F" y2="127.24234" x2="521.56927" y1="101.28434" x1="564.83327"/>
  <line id="svg_77" x1="564.83247" stroke-width="5.40794" stroke="#20201F" y2="77.17858" x2="521.56894" y1="103.1367"/>
  <line id="svg_78" x1="560.96911" stroke-width="5.40794" stroke="#20201F" y2="127.2423" x2="604.23264" y1="101.28417"/>
  <line id="svg_79" stroke-width="5.40794" stroke="#20201F" y2="77.17834" x2="604.23227" y1="103.13634" x1="560.96927"/>
  <line id="svg_80" stroke-width="5.40794" stroke="#20201F" y2="53.53864" x2="562.90127" y1="103.99234" x1="562.90127"/>
  <line id="svg_81" stroke-width="5.40794" stroke="#20201F" y2="102.04694" x2="562.90127" y1="152.50034" x1="562.90127"/>
  <line id="svg_82" stroke-width="5.40794" stroke="#20201F" y2="29.89934" x2="521.56927" y1="3.9412" x1="564.83327"/>
  <line id="svg_83" x1="560.96911" stroke-width="5.40794" stroke="#20201F" y2="29.89933" x2="604.23264" y1="3.9412"/>
  <line id="svg_84" stroke-width="5.40794" stroke="#20201F" y2="4.70397" x2="562.90127" y1="55.15744" x1="562.90127"/>
  <line id="svg_85" x1="564.83247" stroke-width="5.40794" stroke="#20201F" y2="174.52157" x2="521.56894" y1="200.4797"/>
  <line id="svg_86" stroke-width="5.40794" stroke="#20201F" y2="174.52134" x2="604.23227" y1="200.47934" x1="560.96927"/>
  <line id="svg_87" stroke-width="5.40794" stroke="#20201F" y2="150.88134" x2="562.90127" y1="201.33534" x1="562.90127"/>
  <line id="svg_88" stroke-width="5.40794" stroke="#20201F" y2="78.57094" x2="601.60527" y1="52.61284" x1="644.86927"/>
  <line id="svg_89" x1="644.86848" stroke-width="5.40794" stroke="#20201F" y2="28.50698" x2="601.60495" y1="54.46511"/>
  <line id="svg_90" stroke-width="5.40794" stroke="#20201F" y2="54.37564" x2="642.93727" y1="104.82934" x1="642.93727"/>
  <line id="svg_91" stroke-width="5.40794" stroke="#20201F" y2="175.91334" x2="601.60527" y1="149.95534" x1="644.86927"/>
  <line id="svg_92" x1="644.86848" stroke-width="5.40794" stroke="#20201F" y2="125.84957" x2="601.60495" y1="151.8077"/>
  <line id="svg_93" stroke-width="5.40794" stroke="#20201F" y2="102.21034" x2="642.93727" y1="152.66334" x1="642.93727"/>
  <line id="svg_94" stroke-width="5.40794" stroke="#20201F" y2="148.71834" x2="642.93727" y1="199.17234" x1="642.93727"/>
 </g>
</svg>