<svg width="634" height="208" viewBox="0 0 634 208" fill="none" xmlns="http://www.w3.org/2000/svg">
<g clip-path="url(#clip0_170_14098)">
<path d="M11.1769 145.348V100.386H0.911407V145.348L-37.0708 168.138L-31.7893 176.94L6.04414 154.24L43.8775 176.94L49.1591 168.138L11.1769 145.348Z" fill="#20201F"/>
<path d="M0.911407 164.47V196.519H11.1769V164.466L6.04771 161.389L0.911407 164.47Z" fill="#20201F"/>
<path d="M-5.24787 141.857V135.814L-31.7893 119.89L-37.0708 128.692L-10.1883 144.822L-5.24787 141.857Z" fill="#20201F"/>
<path d="M17.3442 135.81V141.857L22.2806 144.819L49.1591 128.692L43.8775 119.89L17.3442 135.81Z" fill="#20201F"/>
<path d="M169.265 145.348V100.386H159V145.348L121.018 168.138L126.299 176.94L164.133 154.24L201.966 176.94L207.247 168.138L169.265 145.348Z" fill="#20201F"/>
<path d="M159 164.47V196.519H169.265V164.466L164.136 161.389L159 164.47Z" fill="#20201F"/>
<path d="M152.841 141.857V135.814L126.299 119.89L121.018 128.692L147.9 144.822L152.841 141.857Z" fill="#20201F"/>
<path d="M175.433 135.81V141.857L180.369 144.819L207.247 128.692L201.966 119.89L175.433 135.81Z" fill="#20201F"/>
<path d="M0.911407 70.029V102.077H11.1769V70.0247L6.04771 66.9472L0.911407 70.029Z" fill="#20201F"/>
<path d="M-5.24787 47.416V41.3731L-31.7893 25.4482L-37.0708 34.2508L-10.1883 50.3803L-5.24787 47.416Z" fill="#20201F"/>
<path d="M17.3442 41.3683V47.416L22.2806 50.3779L49.1591 34.2508L43.8775 25.4482L17.3442 41.3683Z" fill="#20201F"/>
<path d="M159 70.029V102.077H169.265V70.0247L164.136 66.9472L159 70.029Z" fill="#20201F"/>
<path d="M152.841 47.416V41.3731L126.299 25.4482L121.018 34.2508L147.9 50.3803L152.841 47.416Z" fill="#20201F"/>
<path d="M175.433 41.3683V47.416L180.369 50.3779L207.247 34.2508L201.966 25.4482L175.433 41.3683Z" fill="#20201F"/>
<path d="M90.2213 98.1277V53.165H79.9558V98.1277L41.9736 120.917L47.2552 129.72L85.0886 107.02L122.922 129.72L128.204 120.917L90.2213 98.1277Z" fill="#20201F"/>
<path d="M79.9558 117.25V149.298H90.2213V117.245L85.0921 114.168L79.9558 117.25Z" fill="#20201F"/>
<path d="M73.7966 94.6367V88.5938L47.2552 72.6689L41.9736 81.4715L68.8561 97.601L73.7966 94.6367Z" fill="#20201F"/>
<path d="M96.3886 88.589V94.6367L101.325 97.5986L128.204 81.4715L122.922 72.6689L96.3886 88.589Z" fill="#20201F"/>
<path d="M90.2213 192.569V147.606H79.9558V192.569L41.9736 215.358L47.2552 224.161L85.0886 201.461L122.922 224.161L128.204 215.358L90.2213 192.569Z" fill="#20201F"/>
<path d="M79.9558 211.692V243.741H90.2213V211.688L85.0921 208.61L79.9558 211.692Z" fill="#20201F"/>
<path d="M73.7966 189.079V183.036L47.2552 167.111L41.9736 175.914L68.8561 192.043L73.7966 189.079Z" fill="#20201F"/>
<path d="M96.3886 183.031V189.079L101.325 192.041L128.204 175.914L122.922 167.111L96.3886 183.031Z" fill="#20201F"/>
</g>
<g clip-path="url(#clip1_170_14098)">
<path d="M169.265 145.348V100.386H159V145.348L121.018 168.138L126.299 176.94L164.133 154.24L201.966 176.94L207.247 168.138L169.265 145.348Z" fill="#20201F"/>
<path d="M159 164.47V196.519H169.265V164.466L164.136 161.389L159 164.47Z" fill="#20201F"/>
<path d="M152.841 141.857V135.814L126.299 119.89L121.018 128.692L147.9 144.822L152.841 141.857Z" fill="#20201F"/>
<path d="M175.433 135.81V141.857L180.369 144.819L207.247 128.692L201.966 119.89L175.433 135.81Z" fill="#20201F"/>
<path d="M327.354 145.348V100.386H317.088V145.348L279.106 168.138L284.387 176.94L322.221 154.24L360.054 176.94L365.336 168.138L327.354 145.348Z" fill="#20201F"/>
<path d="M317.088 164.47V196.519H327.354V164.466L322.224 161.389L317.088 164.47Z" fill="#20201F"/>
<path d="M310.929 141.857V135.814L284.387 119.89L279.106 128.692L305.988 144.822L310.929 141.857Z" fill="#20201F"/>
<path d="M333.521 135.81V141.857L338.457 144.819L365.336 128.692L360.054 119.89L333.521 135.81Z" fill="#20201F"/>
<path d="M159 70.029V102.077H169.265V70.0247L164.136 66.9472L159 70.029Z" fill="#20201F"/>
<path d="M152.841 47.416V41.3731L126.299 25.4482L121.018 34.2508L147.9 50.3803L152.841 47.416Z" fill="#20201F"/>
<path d="M175.433 41.3683V47.416L180.369 50.3779L207.247 34.2508L201.966 25.4482L175.433 41.3683Z" fill="#20201F"/>
<path d="M317.088 70.029V102.077H327.354V70.0247L322.224 66.9472L317.088 70.029Z" fill="#20201F"/>
<path d="M310.929 47.416V41.3731L284.387 25.4482L279.106 34.2508L305.988 50.3803L310.929 47.416Z" fill="#20201F"/>
<path d="M333.521 41.3683V47.416L338.457 50.3779L365.336 34.2508L360.054 25.4482L333.521 41.3683Z" fill="#20201F"/>
<path d="M248.31 98.1277V53.165H238.044V98.1277L200.062 120.917L205.344 129.72L243.177 107.02L281.01 129.72L286.292 120.917L248.31 98.1277Z" fill="#20201F"/>
<path d="M238.044 117.25V149.298H248.31V117.245L243.181 114.168L238.044 117.25Z" fill="#20201F"/>
<path d="M231.885 94.6367V88.5938L205.344 72.6689L200.062 81.4715L226.944 97.601L231.885 94.6367Z" fill="#20201F"/>
<path d="M254.477 88.589V94.6367L259.413 97.5986L286.292 81.4715L281.01 72.6689L254.477 88.589Z" fill="#20201F"/>
<path d="M248.31 192.569V147.606H238.044V192.569L200.062 215.358L205.344 224.161L243.177 201.461L281.01 224.161L286.292 215.358L248.31 192.569Z" fill="#20201F"/>
<path d="M238.044 211.692V243.741H248.31V211.688L243.181 208.61L238.044 211.692Z" fill="#20201F"/>
<path d="M231.885 189.079V183.036L205.344 167.111L200.062 175.914L226.944 192.043L231.885 189.079Z" fill="#20201F"/>
<path d="M254.477 183.031V189.079L259.413 192.041L286.292 175.914L281.01 167.111L254.477 183.031Z" fill="#20201F"/>
</g>
<g clip-path="url(#clip2_170_14098)">
<path d="M327.353 145.348V100.386H317.088V145.348L279.105 168.138L284.387 176.94L322.22 154.24L360.054 176.94L365.335 168.138L327.353 145.348Z" fill="#20201F"/>
<path d="M317.088 164.47V196.519H327.353V164.466L322.224 161.389L317.088 164.47Z" fill="#20201F"/>
<path d="M310.928 141.857V135.814L284.387 119.89L279.105 128.692L305.988 144.822L310.928 141.857Z" fill="#20201F"/>
<path d="M333.52 135.81V141.857L338.457 144.819L365.335 128.692L360.054 119.89L333.52 135.81Z" fill="#20201F"/>
<path d="M485.442 145.348V100.386H475.176V145.348L437.194 168.138L442.475 176.94L480.309 154.24L518.142 176.94L523.424 168.138L485.442 145.348Z" fill="#20201F"/>
<path d="M475.176 164.47V196.519H485.442V164.466L480.312 161.389L475.176 164.47Z" fill="#20201F"/>
<path d="M469.017 141.857V135.814L442.475 119.89L437.194 128.692L464.076 144.822L469.017 141.857Z" fill="#20201F"/>
<path d="M491.609 135.81V141.857L496.545 144.819L523.424 128.692L518.142 119.89L491.609 135.81Z" fill="#20201F"/>
<path d="M317.088 70.029V102.077H327.353V70.0247L322.224 66.9472L317.088 70.029Z" fill="#20201F"/>
<path d="M310.928 47.416V41.3731L284.387 25.4482L279.105 34.2508L305.988 50.3803L310.928 47.416Z" fill="#20201F"/>
<path d="M333.52 41.3683V47.416L338.457 50.3779L365.335 34.2508L360.054 25.4482L333.52 41.3683Z" fill="#20201F"/>
<path d="M475.176 70.029V102.077H485.442V70.0247L480.312 66.9472L475.176 70.029Z" fill="#20201F"/>
<path d="M469.017 47.416V41.3731L442.475 25.4482L437.194 34.2508L464.076 50.3803L469.017 47.416Z" fill="#20201F"/>
<path d="M491.609 41.3683V47.416L496.545 50.3779L523.424 34.2508L518.142 25.4482L491.609 41.3683Z" fill="#20201F"/>
<path d="M406.398 98.1277V53.165H396.132V98.1277L358.15 120.917L363.431 129.72L401.265 107.02L439.098 129.72L444.38 120.917L406.398 98.1277Z" fill="#20201F"/>
<path d="M396.132 117.25V149.298H406.398V117.245L401.268 114.168L396.132 117.25Z" fill="#20201F"/>
<path d="M389.973 94.6367V88.5938L363.431 72.6689L358.15 81.4715L385.032 97.601L389.973 94.6367Z" fill="#20201F"/>
<path d="M412.565 88.589V94.6367L417.501 97.5986L444.38 81.4715L439.098 72.6689L412.565 88.589Z" fill="#20201F"/>
<path d="M406.398 192.569V147.606H396.132V192.569L358.15 215.358L363.431 224.161L401.265 201.461L439.098 224.161L444.38 215.358L406.398 192.569Z" fill="#20201F"/>
<path d="M396.132 211.692V243.741H406.398V211.688L401.268 208.61L396.132 211.692Z" fill="#20201F"/>
<path d="M389.973 189.079V183.036L363.431 167.111L358.15 175.914L385.032 192.043L389.973 189.079Z" fill="#20201F"/>
<path d="M412.565 183.031V189.079L417.501 192.041L444.38 175.914L439.098 167.111L412.565 183.031Z" fill="#20201F"/>
</g>
<g clip-path="url(#clip3_170_14098)">
<path d="M485.441 145.348V100.386H475.176V145.348L437.193 168.138L442.475 176.94L480.308 154.24L518.142 176.94L523.423 168.138L485.441 145.348Z" fill="#20201F"/>
<path d="M475.176 164.47V196.519H485.441V164.466L480.312 161.389L475.176 164.47Z" fill="#20201F"/>
<path d="M469.016 141.857V135.814L442.475 119.89L437.193 128.692L464.076 144.822L469.016 141.857Z" fill="#20201F"/>
<path d="M491.608 135.81V141.857L496.545 144.819L523.423 128.692L518.142 119.89L491.608 135.81Z" fill="#20201F"/>
<path d="M643.529 145.348V100.386H633.264V145.348L595.282 168.138L600.563 176.94L638.397 154.24L676.23 176.94L681.512 168.138L643.529 145.348Z" fill="#20201F"/>
<path d="M633.264 164.47V196.519H643.529V164.466L638.4 161.389L633.264 164.47Z" fill="#20201F"/>
<path d="M627.105 141.857V135.814L600.563 119.89L595.282 128.692L622.164 144.822L627.105 141.857Z" fill="#20201F"/>
<path d="M649.697 135.81V141.857L654.633 144.819L681.512 128.692L676.23 119.89L649.697 135.81Z" fill="#20201F"/>
<path d="M475.176 70.029V102.077H485.441V70.0247L480.312 66.9472L475.176 70.029Z" fill="#20201F"/>
<path d="M469.016 47.416V41.3731L442.475 25.4482L437.193 34.2508L464.076 50.3803L469.016 47.416Z" fill="#20201F"/>
<path d="M491.608 41.3683V47.416L496.545 50.3779L523.423 34.2508L518.142 25.4482L491.608 41.3683Z" fill="#20201F"/>
<path d="M633.264 70.029V102.077H643.529V70.0247L638.4 66.9472L633.264 70.029Z" fill="#20201F"/>
<path d="M627.105 47.416V41.3731L600.563 25.4482L595.282 34.2508L622.164 50.3803L627.105 47.416Z" fill="#20201F"/>
<path d="M649.697 41.3683V47.416L654.633 50.3779L681.512 34.2508L676.23 25.4482L649.697 41.3683Z" fill="#20201F"/>
<path d="M564.485 98.1277V53.165H554.22V98.1277L516.238 120.917L521.519 129.72L559.353 107.02L597.186 129.72L602.468 120.917L564.485 98.1277Z" fill="#20201F"/>
<path d="M554.22 117.25V149.298H564.485V117.245L559.356 114.168L554.22 117.25Z" fill="#20201F"/>
<path d="M548.061 94.6367V88.5938L521.519 72.6689L516.238 81.4715L543.12 97.601L548.061 94.6367Z" fill="#20201F"/>
<path d="M570.653 88.589V94.6367L575.589 97.5986L602.468 81.4715L597.186 72.6689L570.653 88.589Z" fill="#20201F"/>
<path d="M564.485 192.569V147.606H554.22V192.569L516.238 215.358L521.519 224.161L559.353 201.461L597.186 224.161L602.468 215.358L564.485 192.569Z" fill="#20201F"/>
<path d="M554.22 211.692V243.741H564.485V211.688L559.356 208.61L554.22 211.692Z" fill="#20201F"/>
<path d="M548.061 189.079V183.036L521.519 167.111L516.238 175.914L543.12 192.043L548.061 189.079Z" fill="#20201F"/>
<path d="M570.653 183.031V189.079L575.589 192.041L602.468 175.914L597.186 167.111L570.653 183.031Z" fill="#20201F"/>
</g>
<g clip-path="url(#clip4_170_14098)">
<path d="M11.1769 239.791V194.828H0.911407V239.791L-37.0708 262.58L-31.7893 271.383L6.04414 248.683L43.8775 271.383L49.1591 262.58L11.1769 239.791Z" fill="#20201F"/>
<path d="M169.265 239.791V194.828H159V239.791L121.018 262.58L126.299 271.383L164.133 248.683L201.966 271.383L207.247 262.58L169.265 239.791Z" fill="#20201F"/>
<path d="M0.911407 164.471V196.52H11.1769V164.467L6.04771 161.39L0.911407 164.471Z" fill="#20201F"/>
<path d="M-5.24787 141.858V135.815L-31.7893 119.891L-37.0708 128.693L-10.1883 144.823L-5.24787 141.858Z" fill="#20201F"/>
<path d="M17.3442 135.811V141.858L22.2806 144.82L49.1591 128.693L43.8775 119.891L17.3442 135.811Z" fill="#20201F"/>
<path d="M159 164.471V196.52H169.265V164.467L164.136 161.39L159 164.471Z" fill="#20201F"/>
<path d="M152.841 141.858V135.815L126.299 119.891L121.018 128.693L147.9 144.823L152.841 141.858Z" fill="#20201F"/>
<path d="M175.433 135.811V141.858L180.369 144.82L207.247 128.693L201.966 119.891L175.433 135.811Z" fill="#20201F"/>
<path d="M90.2213 192.57V147.607H79.9558V192.57L41.9736 215.359L47.2552 224.162L85.0886 201.462L122.922 224.162L128.204 215.359L90.2213 192.57Z" fill="#20201F"/>
<path d="M79.9558 211.692V243.741H90.2213V211.688L85.0921 208.61L79.9558 211.692Z" fill="#20201F"/>
<path d="M73.7966 189.079V183.036L47.2552 167.111L41.9736 175.914L68.8561 192.043L73.7966 189.079Z" fill="#20201F"/>
<path d="M96.3886 183.031V189.079L101.325 192.041L128.204 175.914L122.922 167.111L96.3886 183.031Z" fill="#20201F"/>
</g>
<g clip-path="url(#clip5_170_14098)">
<path d="M169.265 239.791V194.828H159V239.791L121.018 262.58L126.299 271.383L164.133 248.683L201.966 271.383L207.247 262.58L169.265 239.791Z" fill="#20201F"/>
<path d="M327.354 239.791V194.828H317.088V239.791L279.106 262.58L284.387 271.383L322.221 248.683L360.054 271.383L365.336 262.58L327.354 239.791Z" fill="#20201F"/>
<path d="M159 164.471V196.52H169.265V164.467L164.136 161.39L159 164.471Z" fill="#20201F"/>
<path d="M152.841 141.858V135.815L126.299 119.891L121.018 128.693L147.9 144.823L152.841 141.858Z" fill="#20201F"/>
<path d="M175.433 135.811V141.858L180.369 144.82L207.247 128.693L201.966 119.891L175.433 135.811Z" fill="#20201F"/>
<path d="M317.088 164.471V196.52H327.354V164.467L322.224 161.39L317.088 164.471Z" fill="#20201F"/>
<path d="M310.929 141.858V135.815L284.387 119.891L279.106 128.693L305.988 144.823L310.929 141.858Z" fill="#20201F"/>
<path d="M333.521 135.811V141.858L338.457 144.82L365.336 128.693L360.054 119.891L333.521 135.811Z" fill="#20201F"/>
<path d="M248.31 192.57V147.607H238.044V192.57L200.062 215.359L205.344 224.162L243.177 201.462L281.01 224.162L286.292 215.359L248.31 192.57Z" fill="#20201F"/>
<path d="M238.044 211.692V243.741H248.31V211.688L243.181 208.61L238.044 211.692Z" fill="#20201F"/>
<path d="M231.885 189.079V183.036L205.344 167.111L200.062 175.914L226.944 192.043L231.885 189.079Z" fill="#20201F"/>
<path d="M254.477 183.031V189.079L259.413 192.041L286.292 175.914L281.01 167.111L254.477 183.031Z" fill="#20201F"/>
</g>
<g clip-path="url(#clip6_170_14098)">
<path d="M327.353 239.791V194.828H317.088V239.791L279.105 262.58L284.387 271.383L322.22 248.683L360.054 271.383L365.335 262.58L327.353 239.791Z" fill="#20201F"/>
<path d="M485.442 239.791V194.828H475.176V239.791L437.194 262.58L442.475 271.383L480.309 248.683L518.142 271.383L523.424 262.58L485.442 239.791Z" fill="#20201F"/>
<path d="M317.088 164.471V196.52H327.353V164.467L322.224 161.39L317.088 164.471Z" fill="#20201F"/>
<path d="M310.928 141.858V135.815L284.387 119.891L279.105 128.693L305.988 144.823L310.928 141.858Z" fill="#20201F"/>
<path d="M333.52 135.811V141.858L338.457 144.82L365.335 128.693L360.054 119.891L333.52 135.811Z" fill="#20201F"/>
<path d="M475.176 164.471V196.52H485.442V164.467L480.312 161.39L475.176 164.471Z" fill="#20201F"/>
<path d="M469.017 141.858V135.815L442.475 119.891L437.194 128.693L464.076 144.823L469.017 141.858Z" fill="#20201F"/>
<path d="M491.609 135.811V141.858L496.545 144.82L523.424 128.693L518.142 119.891L491.609 135.811Z" fill="#20201F"/>
<path d="M406.398 192.57V147.607H396.132V192.57L358.15 215.359L363.431 224.162L401.265 201.462L439.098 224.162L444.38 215.359L406.398 192.57Z" fill="#20201F"/>
<path d="M396.132 211.692V243.741H406.398V211.688L401.268 208.61L396.132 211.692Z" fill="#20201F"/>
<path d="M389.973 189.079V183.036L363.431 167.111L358.15 175.914L385.032 192.043L389.973 189.079Z" fill="#20201F"/>
<path d="M412.565 183.031V189.079L417.501 192.041L444.38 175.914L439.098 167.111L412.565 183.031Z" fill="#20201F"/>
</g>
<g clip-path="url(#clip7_170_14098)">
<path d="M485.441 239.791V194.828H475.176V239.791L437.193 262.58L442.475 271.383L480.308 248.683L518.142 271.383L523.423 262.58L485.441 239.791Z" fill="#20201F"/>
<path d="M643.529 239.791V194.828H633.264V239.791L595.282 262.58L600.563 271.383L638.397 248.683L676.23 271.383L681.512 262.58L643.529 239.791Z" fill="#20201F"/>
<path d="M475.176 164.471V196.52H485.441V164.467L480.312 161.39L475.176 164.471Z" fill="#20201F"/>
<path d="M469.016 141.858V135.815L442.475 119.891L437.193 128.693L464.076 144.823L469.016 141.858Z" fill="#20201F"/>
<path d="M491.608 135.811V141.858L496.545 144.82L523.423 128.693L518.142 119.891L491.608 135.811Z" fill="#20201F"/>
<path d="M633.264 164.471V196.52H643.529V164.467L638.4 161.39L633.264 164.471Z" fill="#20201F"/>
<path d="M627.105 141.858V135.815L600.563 119.891L595.282 128.693L622.164 144.823L627.105 141.858Z" fill="#20201F"/>
<path d="M649.697 135.811V141.858L654.633 144.82L681.512 128.693L676.23 119.891L649.697 135.811Z" fill="#20201F"/>
<path d="M564.485 192.57V147.607H554.22V192.57L516.238 215.359L521.519 224.162L559.353 201.462L597.186 224.162L602.468 215.359L564.485 192.57Z" fill="#20201F"/>
<path d="M554.22 211.692V243.741H564.485V211.688L559.356 208.61L554.22 211.692Z" fill="#20201F"/>
<path d="M548.061 189.079V183.036L521.519 167.111L516.238 175.914L543.12 192.043L548.061 189.079Z" fill="#20201F"/>
<path d="M570.653 183.031V189.079L575.589 192.041L602.468 175.914L597.186 167.111L570.653 183.031Z" fill="#20201F"/>
</g>
<g clip-path="url(#clip8_170_14098)">
<path d="M475.176 68.5622V100.611H485.441V68.5579L480.312 65.4804L475.176 68.5622Z" fill="#20201F"/>
<path d="M469.016 45.9492V39.9063L442.475 23.9814L437.193 32.784L464.076 48.9135L469.016 45.9492Z" fill="#20201F"/>
<path d="M491.608 39.9015V45.9492L496.545 48.9111L523.423 32.784L518.142 23.9814L491.608 39.9015Z" fill="#20201F"/>
<path d="M643.529 49.4402V4.47754H633.264V49.4402L595.282 72.2295L600.563 81.0321L638.397 58.332L676.23 81.0321L681.512 72.2295L643.529 49.4402Z" fill="#20201F"/>
<path d="M633.264 68.5622V100.611H643.529V68.5579L638.4 65.4804L633.264 68.5622Z" fill="#20201F"/>
<path d="M627.105 45.9492V39.9063L600.563 23.9814L595.282 32.784L622.164 48.9135L627.105 45.9492Z" fill="#20201F"/>
<path d="M649.697 39.9015V45.9492L654.633 48.9111L681.512 32.784L676.23 23.9814L649.697 39.9015Z" fill="#20201F"/>
<path d="M633.264 -25.8792V6.16926H643.529V-25.8835L638.4 -28.961L633.264 -25.8792Z" fill="#20201F"/>
<path d="M627.105 -48.4922V-54.5351L600.563 -70.46L595.282 -61.6574L622.164 -45.5279L627.105 -48.4922Z" fill="#20201F"/>
<path d="M649.697 -54.5399V-48.4922L654.633 -45.5303L681.512 -61.6574L676.23 -70.46L649.697 -54.5399Z" fill="#20201F"/>
<path d="M564.485 2.21946V-42.7432H554.22V2.21946L516.238 25.0088L521.519 33.8113L559.353 11.1113L597.186 33.8113L602.468 25.0088L564.485 2.21946Z" fill="#20201F"/>
<path d="M554.22 21.3415V53.39H564.485V21.3372L559.356 18.2597L554.22 21.3415Z" fill="#20201F"/>
<path d="M548.061 -1.2715V-7.31442L521.519 -23.2393L516.238 -14.4367L543.12 1.69278L548.061 -1.2715Z" fill="#20201F"/>
<path d="M570.653 -7.31923V-1.2715L575.589 1.69038L602.468 -14.4367L597.186 -23.2393L570.653 -7.31923Z" fill="#20201F"/>
<path d="M564.485 96.6609V51.6982H554.22V96.6609L516.238 119.45L521.519 128.253L559.353 105.553L597.186 128.253L602.468 119.45L564.485 96.6609Z" fill="#20201F"/>
<path d="M554.22 115.784V147.832H564.485V115.78L559.356 112.702L554.22 115.784Z" fill="#20201F"/>
<path d="M548.061 93.1709V87.128L521.519 71.2031L516.238 80.0057L543.12 96.1352L548.061 93.1709Z" fill="#20201F"/>
<path d="M570.653 87.1231V93.1709L575.589 96.1328L602.468 80.0057L597.186 71.2031L570.653 87.1231Z" fill="#20201F"/>
<path d="M480.051 46.5029L437.22 72.2017L442.467 80.9463L480.051 58.3956L517.635 80.9463L522.882 72.2017L480.051 46.5029Z" fill="#20201F"/>
</g>
<path d="M559.354 0.708008L516.523 26.4067L521.77 35.1514L559.354 12.6007L596.939 35.1514L602.185 26.4067L559.354 0.708008Z" fill="#20201F"/>
<g clip-path="url(#clip9_170_14098)">
<path d="M317.088 68.5622V100.611H327.353V68.5579L322.224 65.4804L317.088 68.5622Z" fill="#20201F"/>
<path d="M310.928 45.9492V39.9063L284.387 23.9814L279.105 32.784L305.988 48.9135L310.928 45.9492Z" fill="#20201F"/>
<path d="M333.52 39.9015V45.9492L338.457 48.9111L365.335 32.784L360.054 23.9814L333.52 39.9015Z" fill="#20201F"/>
<path d="M485.442 49.4402V4.47754H475.176V49.4402L437.194 72.2295L442.475 81.0321L480.309 58.332L518.142 81.0321L523.424 72.2295L485.442 49.4402Z" fill="#20201F"/>
<path d="M475.176 68.5622V100.611H485.442V68.5579L480.312 65.4804L475.176 68.5622Z" fill="#20201F"/>
<path d="M469.017 45.9492V39.9063L442.475 23.9814L437.194 32.784L464.076 48.9135L469.017 45.9492Z" fill="#20201F"/>
<path d="M491.609 39.9015V45.9492L496.545 48.9111L523.424 32.784L518.142 23.9814L491.609 39.9015Z" fill="#20201F"/>
<path d="M475.176 -25.8792V6.16926H485.442V-25.8835L480.312 -28.961L475.176 -25.8792Z" fill="#20201F"/>
<path d="M469.017 -48.4922V-54.5351L442.475 -70.46L437.194 -61.6574L464.076 -45.5279L469.017 -48.4922Z" fill="#20201F"/>
<path d="M491.609 -54.5399V-48.4922L496.545 -45.5303L523.424 -61.6574L518.142 -70.46L491.609 -54.5399Z" fill="#20201F"/>
<path d="M406.398 2.21946V-42.7432H396.132V2.21946L358.15 25.0088L363.431 33.8113L401.265 11.1113L439.098 33.8113L444.38 25.0088L406.398 2.21946Z" fill="#20201F"/>
<path d="M396.132 21.3415V53.39H406.398V21.3372L401.268 18.2597L396.132 21.3415Z" fill="#20201F"/>
<path d="M389.973 -1.2715V-7.31442L363.431 -23.2393L358.15 -14.4367L385.032 1.69278L389.973 -1.2715Z" fill="#20201F"/>
<path d="M412.565 -7.31923V-1.2715L417.501 1.69038L444.38 -14.4367L439.098 -23.2393L412.565 -7.31923Z" fill="#20201F"/>
<path d="M406.398 96.6609V51.6982H396.132V96.6609L358.15 119.45L363.431 128.253L401.265 105.553L439.098 128.253L444.38 119.45L406.398 96.6609Z" fill="#20201F"/>
<path d="M396.132 115.784V147.832H406.398V115.78L401.268 112.702L396.132 115.784Z" fill="#20201F"/>
<path d="M389.973 93.1709V87.128L363.431 71.2031L358.15 80.0057L385.032 96.1352L389.973 93.1709Z" fill="#20201F"/>
<path d="M412.565 87.1231V93.1709L417.501 96.1328L444.38 80.0057L439.098 71.2031L412.565 87.1231Z" fill="#20201F"/>
<path d="M321.963 46.5029L279.132 72.2017L284.379 80.9463L321.963 58.3956L359.547 80.9463L364.794 72.2017L321.963 46.5029Z" fill="#20201F"/>
</g>
<path d="M401.266 0.708008L358.435 26.4067L363.682 35.1514L401.266 12.6007L438.851 35.1514L444.097 26.4067L401.266 0.708008Z" fill="#20201F"/>
<g clip-path="url(#clip10_170_14098)">
<path d="M159 68.5622V100.611H169.265V68.5579L164.136 65.4804L159 68.5622Z" fill="#20201F"/>
<path d="M152.841 45.9492V39.9063L126.299 23.9814L121.018 32.784L147.9 48.9135L152.841 45.9492Z" fill="#20201F"/>
<path d="M175.433 39.9015V45.9492L180.369 48.9111L207.247 32.784L201.966 23.9814L175.433 39.9015Z" fill="#20201F"/>
<path d="M327.354 49.4402V4.47754H317.088V49.4402L279.106 72.2295L284.387 81.0321L322.221 58.332L360.054 81.0321L365.336 72.2295L327.354 49.4402Z" fill="#20201F"/>
<path d="M317.088 68.5622V100.611H327.354V68.5579L322.224 65.4804L317.088 68.5622Z" fill="#20201F"/>
<path d="M310.929 45.9492V39.9063L284.387 23.9814L279.106 32.784L305.988 48.9135L310.929 45.9492Z" fill="#20201F"/>
<path d="M333.521 39.9015V45.9492L338.457 48.9111L365.336 32.784L360.054 23.9814L333.521 39.9015Z" fill="#20201F"/>
<path d="M317.088 -25.8792V6.16926H327.354V-25.8835L322.224 -28.961L317.088 -25.8792Z" fill="#20201F"/>
<path d="M310.929 -48.4922V-54.5351L284.387 -70.46L279.106 -61.6574L305.988 -45.5279L310.929 -48.4922Z" fill="#20201F"/>
<path d="M333.521 -54.5399V-48.4922L338.457 -45.5303L365.336 -61.6574L360.054 -70.46L333.521 -54.5399Z" fill="#20201F"/>
<path d="M248.31 2.21946V-42.7432H238.044V2.21946L200.062 25.0088L205.344 33.8113L243.177 11.1113L281.01 33.8113L286.292 25.0088L248.31 2.21946Z" fill="#20201F"/>
<path d="M238.044 21.3415V53.39H248.31V21.3372L243.181 18.2597L238.044 21.3415Z" fill="#20201F"/>
<path d="M231.885 -1.2715V-7.31442L205.344 -23.2393L200.062 -14.4367L226.944 1.69278L231.885 -1.2715Z" fill="#20201F"/>
<path d="M254.477 -7.31923V-1.2715L259.413 1.69038L286.292 -14.4367L281.01 -23.2393L254.477 -7.31923Z" fill="#20201F"/>
<path d="M248.31 96.6609V51.6982H238.044V96.6609L200.062 119.45L205.344 128.253L243.177 105.553L281.01 128.253L286.292 119.45L248.31 96.6609Z" fill="#20201F"/>
<path d="M238.044 115.784V147.832H248.31V115.78L243.181 112.702L238.044 115.784Z" fill="#20201F"/>
<path d="M231.885 93.1709V87.128L205.344 71.2031L200.062 80.0057L226.944 96.1352L231.885 93.1709Z" fill="#20201F"/>
<path d="M254.477 87.1231V93.1709L259.413 96.1328L286.292 80.0057L281.01 71.2031L254.477 87.1231Z" fill="#20201F"/>
<path d="M163.875 46.5029L121.044 72.2017L126.291 80.9463L163.875 58.3956L201.46 80.9463L206.706 72.2017L163.875 46.5029Z" fill="#20201F"/>
</g>
<path d="M243.178 0.708008L200.347 26.4067L205.594 35.1514L243.178 12.6007L280.763 35.1514L286.01 26.4067L243.178 0.708008Z" fill="#20201F"/>
<g clip-path="url(#clip11_170_14098)">
<path d="M0.911407 68.5622V100.611H11.1769V68.5579L6.04771 65.4804L0.911407 68.5622Z" fill="#20201F"/>
<path d="M-5.24787 45.9492V39.9063L-31.7893 23.9814L-37.0708 32.784L-10.1883 48.9135L-5.24787 45.9492Z" fill="#20201F"/>
<path d="M17.3442 39.9015V45.9492L22.2806 48.9111L49.1591 32.784L43.8775 23.9814L17.3442 39.9015Z" fill="#20201F"/>
<path d="M169.265 49.4402V4.47754H159V49.4402L121.018 72.2295L126.299 81.0321L164.133 58.332L201.966 81.0321L207.247 72.2295L169.265 49.4402Z" fill="#20201F"/>
<path d="M159 68.5622V100.611H169.265V68.5579L164.136 65.4804L159 68.5622Z" fill="#20201F"/>
<path d="M152.841 45.9492V39.9063L126.299 23.9814L121.018 32.784L147.9 48.9135L152.841 45.9492Z" fill="#20201F"/>
<path d="M175.433 39.9015V45.9492L180.369 48.9111L207.247 32.784L201.966 23.9814L175.433 39.9015Z" fill="#20201F"/>
<path d="M159 -25.8792V6.16926H169.265V-25.8835L164.136 -28.961L159 -25.8792Z" fill="#20201F"/>
<path d="M152.841 -48.4922V-54.5351L126.299 -70.46L121.018 -61.6574L147.9 -45.5279L152.841 -48.4922Z" fill="#20201F"/>
<path d="M175.433 -54.5399V-48.4922L180.369 -45.5303L207.247 -61.6574L201.966 -70.46L175.433 -54.5399Z" fill="#20201F"/>
<path d="M90.2213 2.21946V-42.7432H79.9558V2.21946L41.9736 25.0088L47.2552 33.8113L85.0886 11.1113L122.922 33.8113L128.204 25.0088L90.2213 2.21946Z" fill="#20201F"/>
<path d="M79.9558 21.3415V53.39H90.2213V21.3372L85.0921 18.2597L79.9558 21.3415Z" fill="#20201F"/>
<path d="M73.7966 -1.2715V-7.31442L47.2552 -23.2393L41.9736 -14.4367L68.8561 1.69278L73.7966 -1.2715Z" fill="#20201F"/>
<path d="M96.3886 -7.31923V-1.2715L101.325 1.69038L128.204 -14.4367L122.922 -23.2393L96.3886 -7.31923Z" fill="#20201F"/>
<path d="M90.2213 96.6609V51.6982H79.9558V96.6609L41.9736 119.45L47.2552 128.253L85.0886 105.553L122.922 128.253L128.204 119.45L90.2213 96.6609Z" fill="#20201F"/>
<path d="M79.9558 115.784V147.832H90.2213V115.78L85.0921 112.702L79.9558 115.784Z" fill="#20201F"/>
<path d="M73.7966 93.1709V87.128L47.2552 71.2031L41.9736 80.0057L68.8561 96.1352L73.7966 93.1709Z" fill="#20201F"/>
<path d="M96.3886 87.1231V93.1709L101.325 96.1328L128.204 80.0057L122.922 71.2031L96.3886 87.1231Z" fill="#20201F"/>
<path d="M5.78679 46.5029L-37.0444 72.2017L-31.7977 80.9463L5.78679 58.3956L43.3712 80.9463L48.618 72.2017L5.78679 46.5029Z" fill="#20201F"/>
</g>
<path d="M85.09 0.708008L42.2588 26.4067L47.5056 35.1514L85.09 12.6007L122.674 35.1514L127.921 26.4067L85.09 0.708008Z" fill="#20201F"/>
<defs>
<clipPath id="clip0_170_14098">
<rect width="158.088" height="94.4422" fill="white" transform="translate(0.911621 100.386)"/>
</clipPath>
<clipPath id="clip1_170_14098">
<rect width="158.088" height="94.4422" fill="white" transform="translate(159 100.386)"/>
</clipPath>
<clipPath id="clip2_170_14098">
<rect width="158.088" height="94.4422" fill="white" transform="translate(317.088 100.386)"/>
</clipPath>
<clipPath id="clip3_170_14098">
<rect width="158.088" height="94.4422" fill="white" transform="translate(475.176 100.386)"/>
</clipPath>
<clipPath id="clip4_170_14098">
<rect width="158.088" height="94.4422" fill="white" transform="translate(0.911621 194.828)"/>
</clipPath>
<clipPath id="clip5_170_14098">
<rect width="158.088" height="94.4422" fill="white" transform="translate(159 194.828)"/>
</clipPath>
<clipPath id="clip6_170_14098">
<rect width="158.088" height="94.4422" fill="white" transform="translate(317.088 194.828)"/>
</clipPath>
<clipPath id="clip7_170_14098">
<rect width="158.088" height="94.4422" fill="white" transform="translate(475.176 194.828)"/>
</clipPath>
<clipPath id="clip8_170_14098">
<rect width="158.088" height="94.4422" fill="white" transform="translate(475.176 4.47754)"/>
</clipPath>
<clipPath id="clip9_170_14098">
<rect width="158.088" height="94.4422" fill="white" transform="translate(317.088 4.47754)"/>
</clipPath>
<clipPath id="clip10_170_14098">
<rect width="158.088" height="94.4422" fill="white" transform="translate(159 4.47754)"/>
</clipPath>
<clipPath id="clip11_170_14098">
<rect width="158.088" height="94.4422" fill="white" transform="translate(0.911621 4.47754)"/>
</clipPath>
</defs>
</svg>
