<svg width="683" height="185" viewBox="0 0 683 185" fill="none" xmlns="http://www.w3.org/2000/svg">
<line x1="40.6547" y1="51.5222" x2="-2.60879" y2="77.4804" stroke="#20201F" stroke-width="5.40794"/>
<line y1="-2.70397" x2="50.4535" y2="-2.70397" transform="matrix(-0.857493 -0.514496 -0.514496 0.857493 39.2635 55.6931)" stroke="#20201F" stroke-width="5.40794"/>
<line y1="-2.70397" x2="50.4535" y2="-2.70397" transform="matrix(0.857493 0.514496 0.514496 -0.857493 38.1819 49.2036)" stroke="#20201F" stroke-width="5.40794"/>
<line x1="36.7907" y1="53.3745" x2="80.0542" y2="27.4164" stroke="#20201F" stroke-width="5.40794"/>
<line x1="38.7228" y1="100.739" x2="38.7228" y2="50.285" stroke="#20201F" stroke-width="5.40794"/>
<line x1="200.73" y1="51.5222" x2="157.466" y2="77.4804" stroke="#20201F" stroke-width="5.40794"/>
<line y1="-2.70397" x2="50.4535" y2="-2.70397" transform="matrix(-0.857493 -0.514496 -0.514496 0.857493 199.339 55.6931)" stroke="#20201F" stroke-width="5.40794"/>
<line y1="-2.70397" x2="50.4535" y2="-2.70397" transform="matrix(0.857493 0.514496 0.514496 -0.857493 198.257 49.2036)" stroke="#20201F" stroke-width="5.40794"/>
<line x1="196.866" y1="53.3745" x2="240.129" y2="27.4164" stroke="#20201F" stroke-width="5.40794"/>
<line x1="198.798" y1="100.739" x2="198.798" y2="50.285" stroke="#20201F" stroke-width="5.40794"/>
<line x1="120.692" y1="100.194" x2="77.4287" y2="126.152" stroke="#20201F" stroke-width="5.40794"/>
<line y1="-2.70397" x2="50.4535" y2="-2.70397" transform="matrix(-0.857493 -0.514496 -0.514496 0.857493 119.301 104.365)" stroke="#20201F" stroke-width="5.40794"/>
<line y1="-2.70397" x2="50.4535" y2="-2.70397" transform="matrix(0.857493 0.514496 0.514496 -0.857493 118.219 97.8752)" stroke="#20201F" stroke-width="5.40794"/>
<line x1="116.828" y1="102.046" x2="160.092" y2="76.088" stroke="#20201F" stroke-width="5.40794"/>
<line x1="118.76" y1="102.902" x2="118.76" y2="52.4483" stroke="#20201F" stroke-width="5.40794"/>
<line x1="118.76" y1="149.41" x2="118.76" y2="98.9566" stroke="#20201F" stroke-width="5.40794"/>
<line x1="200.73" y1="148.865" x2="157.466" y2="174.823" stroke="#20201F" stroke-width="5.40794"/>
<line y1="-2.70397" x2="50.4535" y2="-2.70397" transform="matrix(-0.857493 -0.514496 -0.514496 0.857493 199.339 153.036)" stroke="#20201F" stroke-width="5.40794"/>
<line y1="-2.70397" x2="50.4535" y2="-2.70397" transform="matrix(0.857493 0.514496 0.514496 -0.857493 198.257 146.547)" stroke="#20201F" stroke-width="5.40794"/>
<line x1="196.866" y1="150.717" x2="240.129" y2="124.759" stroke="#20201F" stroke-width="5.40794"/>
<line x1="198.798" y1="151.573" x2="198.798" y2="101.12" stroke="#20201F" stroke-width="5.40794"/>
<line x1="198.798" y1="198.082" x2="198.798" y2="147.628" stroke="#20201F" stroke-width="5.40794"/>
<line x1="120.692" y1="2.85086" x2="77.4287" y2="28.809" stroke="#20201F" stroke-width="5.40794"/>
<line y1="-2.70397" x2="50.4535" y2="-2.70397" transform="matrix(0.857493 0.514496 0.514496 -0.857493 118.219 0.532227)" stroke="#20201F" stroke-width="5.40794"/>
<line x1="118.76" y1="52.0671" x2="118.76" y2="1.61363" stroke="#20201F" stroke-width="5.40794"/>
<line y1="-2.70397" x2="50.4535" y2="-2.70397" transform="matrix(-0.857493 -0.514496 -0.514496 0.857493 119.301 201.708)" stroke="#20201F" stroke-width="5.40794"/>
<line x1="116.828" y1="199.389" x2="160.092" y2="173.431" stroke="#20201F" stroke-width="5.40794"/>
<line x1="118.76" y1="200.245" x2="118.76" y2="149.791" stroke="#20201F" stroke-width="5.40794"/>
<line x1="40.6547" y1="148.865" x2="-2.60879" y2="174.823" stroke="#20201F" stroke-width="5.40794"/>
<line y1="-2.70397" x2="50.4535" y2="-2.70397" transform="matrix(-0.857493 -0.514496 -0.514496 0.857493 39.2635 153.036)" stroke="#20201F" stroke-width="5.40794"/>
<line y1="-2.70397" x2="50.4535" y2="-2.70397" transform="matrix(0.857493 0.514496 0.514496 -0.857493 38.1819 146.547)" stroke="#20201F" stroke-width="5.40794"/>
<line x1="36.7907" y1="150.717" x2="80.0542" y2="124.759" stroke="#20201F" stroke-width="5.40794"/>
<line x1="38.7228" y1="151.573" x2="38.7228" y2="101.12" stroke="#20201F" stroke-width="5.40794"/>
<line x1="38.7228" y1="198.082" x2="38.7228" y2="147.628" stroke="#20201F" stroke-width="5.40794"/>
<line x1="280.767" y1="100.194" x2="237.504" y2="126.152" stroke="#20201F" stroke-width="5.40794"/>
<line y1="-2.70397" x2="50.4535" y2="-2.70397" transform="matrix(-0.857493 -0.514496 -0.514496 0.857493 279.376 104.365)" stroke="#20201F" stroke-width="5.40794"/>
<line y1="-2.70397" x2="50.4535" y2="-2.70397" transform="matrix(0.857493 0.514496 0.514496 -0.857493 278.294 97.8752)" stroke="#20201F" stroke-width="5.40794"/>
<line x1="276.903" y1="102.046" x2="320.167" y2="76.088" stroke="#20201F" stroke-width="5.40794"/>
<line x1="278.835" y1="102.902" x2="278.835" y2="52.4483" stroke="#20201F" stroke-width="5.40794"/>
<line x1="278.835" y1="149.41" x2="278.835" y2="98.9566" stroke="#20201F" stroke-width="5.40794"/>
<line x1="280.767" y1="2.85086" x2="237.504" y2="28.809" stroke="#20201F" stroke-width="5.40794"/>
<line y1="-2.70397" x2="50.4535" y2="-2.70397" transform="matrix(0.857493 0.514496 0.514496 -0.857493 278.294 0.532227)" stroke="#20201F" stroke-width="5.40794"/>
<line x1="278.835" y1="52.0671" x2="278.835" y2="1.61363" stroke="#20201F" stroke-width="5.40794"/>
<line y1="-2.70397" x2="50.4535" y2="-2.70397" transform="matrix(-0.857493 -0.514496 -0.514496 0.857493 279.376 201.708)" stroke="#20201F" stroke-width="5.40794"/>
<line x1="276.903" y1="199.389" x2="320.167" y2="173.431" stroke="#20201F" stroke-width="5.40794"/>
<line x1="278.835" y1="200.245" x2="278.835" y2="149.791" stroke="#20201F" stroke-width="5.40794"/>
<line x1="360.807" y1="51.5222" x2="317.544" y2="77.4804" stroke="#20201F" stroke-width="5.40794"/>
<line y1="-2.70397" x2="50.4535" y2="-2.70397" transform="matrix(-0.857493 -0.514496 -0.514496 0.857493 359.416 55.6931)" stroke="#20201F" stroke-width="5.40794"/>
<line y1="-2.70397" x2="50.4535" y2="-2.70397" transform="matrix(0.857493 0.514496 0.514496 -0.857493 358.334 49.2036)" stroke="#20201F" stroke-width="5.40794"/>
<line x1="356.943" y1="53.3745" x2="400.207" y2="27.4164" stroke="#20201F" stroke-width="5.40794"/>
<line x1="358.875" y1="100.739" x2="358.875" y2="50.285" stroke="#20201F" stroke-width="5.40794"/>
<line x1="520.882" y1="51.5222" x2="477.618" y2="77.4804" stroke="#20201F" stroke-width="5.40794"/>
<line y1="-2.70397" x2="50.4535" y2="-2.70397" transform="matrix(-0.857493 -0.514496 -0.514496 0.857493 519.491 55.6931)" stroke="#20201F" stroke-width="5.40794"/>
<line y1="-2.70397" x2="50.4535" y2="-2.70397" transform="matrix(0.857493 0.514496 0.514496 -0.857493 518.409 49.2036)" stroke="#20201F" stroke-width="5.40794"/>
<line x1="517.018" y1="53.3745" x2="560.282" y2="27.4164" stroke="#20201F" stroke-width="5.40794"/>
<line x1="518.95" y1="100.739" x2="518.95" y2="50.285" stroke="#20201F" stroke-width="5.40794"/>
<line x1="440.845" y1="100.194" x2="397.581" y2="126.152" stroke="#20201F" stroke-width="5.40794"/>
<line y1="-2.70397" x2="50.4535" y2="-2.70397" transform="matrix(-0.857493 -0.514496 -0.514496 0.857493 439.453 104.365)" stroke="#20201F" stroke-width="5.40794"/>
<line y1="-2.70397" x2="50.4535" y2="-2.70397" transform="matrix(0.857493 0.514496 0.514496 -0.857493 438.372 97.8752)" stroke="#20201F" stroke-width="5.40794"/>
<line x1="436.981" y1="102.046" x2="480.244" y2="76.088" stroke="#20201F" stroke-width="5.40794"/>
<line x1="438.913" y1="102.902" x2="438.913" y2="52.4483" stroke="#20201F" stroke-width="5.40794"/>
<line x1="438.913" y1="149.41" x2="438.913" y2="98.9566" stroke="#20201F" stroke-width="5.40794"/>
<line x1="520.882" y1="148.865" x2="477.618" y2="174.823" stroke="#20201F" stroke-width="5.40794"/>
<line y1="-2.70397" x2="50.4535" y2="-2.70397" transform="matrix(-0.857493 -0.514496 -0.514496 0.857493 519.491 153.036)" stroke="#20201F" stroke-width="5.40794"/>
<line y1="-2.70397" x2="50.4535" y2="-2.70397" transform="matrix(0.857493 0.514496 0.514496 -0.857493 518.409 146.547)" stroke="#20201F" stroke-width="5.40794"/>
<line x1="517.018" y1="150.717" x2="560.282" y2="124.759" stroke="#20201F" stroke-width="5.40794"/>
<line x1="518.95" y1="151.573" x2="518.95" y2="101.12" stroke="#20201F" stroke-width="5.40794"/>
<line x1="518.95" y1="198.082" x2="518.95" y2="147.628" stroke="#20201F" stroke-width="5.40794"/>
<line x1="440.845" y1="2.85086" x2="397.581" y2="28.809" stroke="#20201F" stroke-width="5.40794"/>
<line y1="-2.70397" x2="50.4535" y2="-2.70397" transform="matrix(0.857493 0.514496 0.514496 -0.857493 438.372 0.532227)" stroke="#20201F" stroke-width="5.40794"/>
<line x1="438.913" y1="52.0671" x2="438.913" y2="1.61363" stroke="#20201F" stroke-width="5.40794"/>
<line y1="-2.70397" x2="50.4535" y2="-2.70397" transform="matrix(-0.857493 -0.514496 -0.514496 0.857493 439.453 201.708)" stroke="#20201F" stroke-width="5.40794"/>
<line x1="436.981" y1="199.389" x2="480.244" y2="173.431" stroke="#20201F" stroke-width="5.40794"/>
<line x1="438.913" y1="200.245" x2="438.913" y2="149.791" stroke="#20201F" stroke-width="5.40794"/>
<line x1="360.807" y1="148.865" x2="317.544" y2="174.823" stroke="#20201F" stroke-width="5.40794"/>
<line y1="-2.70397" x2="50.4535" y2="-2.70397" transform="matrix(-0.857493 -0.514496 -0.514496 0.857493 359.416 153.036)" stroke="#20201F" stroke-width="5.40794"/>
<line y1="-2.70397" x2="50.4535" y2="-2.70397" transform="matrix(0.857493 0.514496 0.514496 -0.857493 358.334 146.547)" stroke="#20201F" stroke-width="5.40794"/>
<line x1="356.943" y1="150.717" x2="400.207" y2="124.759" stroke="#20201F" stroke-width="5.40794"/>
<line x1="358.875" y1="151.573" x2="358.875" y2="101.12" stroke="#20201F" stroke-width="5.40794"/>
<line x1="358.875" y1="198.082" x2="358.875" y2="147.628" stroke="#20201F" stroke-width="5.40794"/>
<line x1="600.92" y1="100.194" x2="557.656" y2="126.152" stroke="#20201F" stroke-width="5.40794"/>
<line y1="-2.70397" x2="50.4535" y2="-2.70397" transform="matrix(-0.857493 -0.514496 -0.514496 0.857493 599.528 104.365)" stroke="#20201F" stroke-width="5.40794"/>
<line y1="-2.70397" x2="50.4535" y2="-2.70397" transform="matrix(0.857493 0.514496 0.514496 -0.857493 598.447 97.8752)" stroke="#20201F" stroke-width="5.40794"/>
<line x1="597.056" y1="102.046" x2="640.319" y2="76.088" stroke="#20201F" stroke-width="5.40794"/>
<line x1="598.988" y1="102.902" x2="598.988" y2="52.4483" stroke="#20201F" stroke-width="5.40794"/>
<line x1="598.988" y1="149.41" x2="598.988" y2="98.9566" stroke="#20201F" stroke-width="5.40794"/>
<line x1="600.92" y1="2.85086" x2="557.656" y2="28.809" stroke="#20201F" stroke-width="5.40794"/>
<line y1="-2.70397" x2="50.4535" y2="-2.70397" transform="matrix(0.857493 0.514496 0.514496 -0.857493 598.447 0.532227)" stroke="#20201F" stroke-width="5.40794"/>
<line x1="598.988" y1="52.0671" x2="598.988" y2="1.61363" stroke="#20201F" stroke-width="5.40794"/>
<line y1="-2.70397" x2="50.4535" y2="-2.70397" transform="matrix(-0.857493 -0.514496 -0.514496 0.857493 599.528 201.708)" stroke="#20201F" stroke-width="5.40794"/>
<line x1="597.056" y1="199.389" x2="640.319" y2="173.431" stroke="#20201F" stroke-width="5.40794"/>
<line x1="598.988" y1="200.245" x2="598.988" y2="149.791" stroke="#20201F" stroke-width="5.40794"/>
<line x1="680.956" y1="51.5225" x2="637.692" y2="77.4806" stroke="#20201F" stroke-width="5.40794"/>
<line y1="-2.70397" x2="50.4535" y2="-2.70397" transform="matrix(-0.857493 -0.514496 -0.514496 0.857493 679.564 55.6934)" stroke="#20201F" stroke-width="5.40794"/>
<line x1="679.024" y1="100.739" x2="679.024" y2="50.2853" stroke="#20201F" stroke-width="5.40794"/>
<line x1="680.956" y1="148.865" x2="637.692" y2="174.823" stroke="#20201F" stroke-width="5.40794"/>
<line y1="-2.70397" x2="50.4535" y2="-2.70397" transform="matrix(-0.857493 -0.514496 -0.514496 0.857493 679.564 153.036)" stroke="#20201F" stroke-width="5.40794"/>
<line x1="679.024" y1="151.573" x2="679.024" y2="101.12" stroke="#20201F" stroke-width="5.40794"/>
<line x1="679.024" y1="198.082" x2="679.024" y2="147.628" stroke="#20201F" stroke-width="5.40794"/>
</svg>
