<svg width="609" height="500" viewBox="0 0 609 500" fill="none" xmlns="http://www.w3.org/2000/svg">
<g clip-path="url(#clip0_170_14098)">
<path d="M10.5294 342.906V297.943H0.263947V342.906L-37.7183 365.695L-32.4367 374.498L5.39668 351.798L43.2301 374.498L48.5116 365.695L10.5294 342.906Z" fill="#20201F"/>
<path d="M0.263947 362.028V394.076H10.5294V362.024L5.40025 358.946L0.263947 362.028Z" fill="#20201F"/>
<path d="M-5.89533 339.415V333.372L-32.4367 317.447L-37.7183 326.25L-10.8358 342.379L-5.89533 339.415Z" fill="#20201F"/>
<path d="M16.6967 333.367V339.415L21.6332 342.377L48.5116 326.25L43.2301 317.447L16.6967 333.367Z" fill="#20201F"/>
<path d="M168.618 342.906V297.943H158.352V342.906L120.37 365.695L125.652 374.498L163.485 351.798L201.318 374.498L206.6 365.695L168.618 342.906Z" fill="#20201F"/>
<path d="M158.352 362.028V394.076H168.618V362.024L163.489 358.946L158.352 362.028Z" fill="#20201F"/>
<path d="M152.193 339.415V333.372L125.652 317.447L120.37 326.25L147.253 342.379L152.193 339.415Z" fill="#20201F"/>
<path d="M174.785 333.367V339.415L179.722 342.377L206.6 326.25L201.318 317.447L174.785 333.367Z" fill="#20201F"/>
<path d="M0.263947 267.587V299.635H10.5294V267.582L5.40025 264.505L0.263947 267.587Z" fill="#20201F"/>
<path d="M-5.89533 244.974V238.931L-32.4367 223.006L-37.7183 231.808L-10.8358 247.938L-5.89533 244.974Z" fill="#20201F"/>
<path d="M16.6967 238.926V244.974L21.6332 247.935L48.5116 231.808L43.2301 223.006L16.6967 238.926Z" fill="#20201F"/>
<path d="M158.352 267.587V299.635H168.618V267.582L163.489 264.505L158.352 267.587Z" fill="#20201F"/>
<path d="M152.193 244.974V238.931L125.652 223.006L120.37 231.808L147.253 247.938L152.193 244.974Z" fill="#20201F"/>
<path d="M174.785 238.926V244.974L179.722 247.935L206.6 231.808L201.318 223.006L174.785 238.926Z" fill="#20201F"/>
<path d="M89.5738 295.685V250.723H79.3084V295.685L41.3262 318.475L46.6077 327.277L84.4411 304.577L122.275 327.277L127.556 318.475L89.5738 295.685Z" fill="#20201F"/>
<path d="M79.3084 314.807V346.856H89.5738V314.803L84.4447 311.726L79.3084 314.807Z" fill="#20201F"/>
<path d="M73.1491 292.194V286.151L46.6077 270.227L41.3262 279.029L68.2086 295.159L73.1491 292.194Z" fill="#20201F"/>
<path d="M95.7411 286.147V292.194L100.678 295.156L127.556 279.029L122.275 270.227L95.7411 286.147Z" fill="#20201F"/>
<path d="M89.5738 390.127V345.164H79.3084V390.127L41.3262 412.916L46.6077 421.719L84.4411 399.019L122.275 421.719L127.556 412.916L89.5738 390.127Z" fill="#20201F"/>
<path d="M79.3084 409.25V441.298H89.5738V409.245L84.4447 406.168L79.3084 409.25Z" fill="#20201F"/>
<path d="M73.1491 386.637V380.594L46.6077 364.669L41.3262 373.472L68.2086 389.601L73.1491 386.637Z" fill="#20201F"/>
<path d="M95.7411 380.589V386.637L100.678 389.599L127.556 373.472L122.275 364.669L95.7411 380.589Z" fill="#20201F"/>
</g>
<g clip-path="url(#clip1_170_14098)">
<path d="M168.618 342.906V297.943H158.352V342.906L120.37 365.695L125.652 374.498L163.485 351.798L201.318 374.498L206.6 365.695L168.618 342.906Z" fill="#20201F"/>
<path d="M158.352 362.028V394.076H168.618V362.024L163.489 358.946L158.352 362.028Z" fill="#20201F"/>
<path d="M152.193 339.415V333.372L125.652 317.447L120.37 326.25L147.253 342.379L152.193 339.415Z" fill="#20201F"/>
<path d="M174.785 333.367V339.415L179.722 342.377L206.6 326.25L201.318 317.447L174.785 333.367Z" fill="#20201F"/>
<path d="M326.706 342.906V297.943H316.441V342.906L278.458 365.695L283.74 374.498L321.573 351.798L359.407 374.498L364.688 365.695L326.706 342.906Z" fill="#20201F"/>
<path d="M316.441 362.028V394.076H326.706V362.024L321.577 358.946L316.441 362.028Z" fill="#20201F"/>
<path d="M310.281 339.415V333.372L283.74 317.447L278.458 326.25L305.341 342.379L310.281 339.415Z" fill="#20201F"/>
<path d="M332.873 333.367V339.415L337.81 342.377L364.688 326.25L359.407 317.447L332.873 333.367Z" fill="#20201F"/>
<path d="M158.352 267.587V299.635H168.618V267.582L163.489 264.505L158.352 267.587Z" fill="#20201F"/>
<path d="M152.193 244.974V238.931L125.652 223.006L120.37 231.808L147.253 247.938L152.193 244.974Z" fill="#20201F"/>
<path d="M174.785 238.926V244.974L179.722 247.935L206.6 231.808L201.318 223.006L174.785 238.926Z" fill="#20201F"/>
<path d="M316.441 267.587V299.635H326.706V267.582L321.577 264.505L316.441 267.587Z" fill="#20201F"/>
<path d="M310.281 244.974V238.931L283.74 223.006L278.458 231.808L305.341 247.938L310.281 244.974Z" fill="#20201F"/>
<path d="M332.873 238.926V244.974L337.81 247.935L364.688 231.808L359.407 223.006L332.873 238.926Z" fill="#20201F"/>
<path d="M247.662 295.685V250.723H237.397V295.685L199.415 318.475L204.696 327.277L242.529 304.577L280.363 327.277L285.644 318.475L247.662 295.685Z" fill="#20201F"/>
<path d="M237.397 314.807V346.856H247.662V314.803L242.533 311.726L237.397 314.807Z" fill="#20201F"/>
<path d="M231.237 292.194V286.151L204.696 270.227L199.415 279.029L226.297 295.159L231.237 292.194Z" fill="#20201F"/>
<path d="M253.83 286.147V292.194L258.766 295.156L285.644 279.029L280.363 270.227L253.83 286.147Z" fill="#20201F"/>
<path d="M247.662 390.127V345.164H237.397V390.127L199.415 412.916L204.696 421.719L242.529 399.019L280.363 421.719L285.644 412.916L247.662 390.127Z" fill="#20201F"/>
<path d="M237.397 409.25V441.298H247.662V409.245L242.533 406.168L237.397 409.25Z" fill="#20201F"/>
<path d="M231.237 386.637V380.594L204.696 364.669L199.415 373.472L226.297 389.601L231.237 386.637Z" fill="#20201F"/>
<path d="M253.83 380.589V386.637L258.766 389.599L285.644 373.472L280.363 364.669L253.83 380.589Z" fill="#20201F"/>
</g>
<g clip-path="url(#clip2_170_14098)">
<path d="M326.706 342.906V297.943H316.44V342.906L278.458 365.695L283.74 374.498L321.573 351.798L359.406 374.498L364.688 365.695L326.706 342.906Z" fill="#20201F"/>
<path d="M316.44 362.028V394.076H326.706V362.024L321.577 358.946L316.44 362.028Z" fill="#20201F"/>
<path d="M310.281 339.415V333.372L283.74 317.447L278.458 326.25L305.34 342.379L310.281 339.415Z" fill="#20201F"/>
<path d="M332.873 333.367V339.415L337.809 342.377L364.688 326.25L359.406 317.447L332.873 333.367Z" fill="#20201F"/>
<path d="M484.794 342.906V297.943H474.529V342.906L436.546 365.695L441.828 374.498L479.661 351.798L517.495 374.498L522.776 365.695L484.794 342.906Z" fill="#20201F"/>
<path d="M474.529 362.028V394.076H484.794V362.024L479.665 358.946L474.529 362.028Z" fill="#20201F"/>
<path d="M468.369 339.415V333.372L441.828 317.447L436.546 326.25L463.429 342.379L468.369 339.415Z" fill="#20201F"/>
<path d="M490.961 333.367V339.415L495.898 342.377L522.776 326.25L517.495 317.447L490.961 333.367Z" fill="#20201F"/>
<path d="M316.44 267.587V299.635H326.706V267.582L321.577 264.505L316.44 267.587Z" fill="#20201F"/>
<path d="M310.281 244.974V238.931L283.74 223.006L278.458 231.808L305.34 247.938L310.281 244.974Z" fill="#20201F"/>
<path d="M332.873 238.926V244.974L337.809 247.935L364.688 231.808L359.406 223.006L332.873 238.926Z" fill="#20201F"/>
<path d="M474.529 267.587V299.635H484.794V267.582L479.665 264.505L474.529 267.587Z" fill="#20201F"/>
<path d="M468.369 244.974V238.931L441.828 223.006L436.546 231.808L463.429 247.938L468.369 244.974Z" fill="#20201F"/>
<path d="M490.961 238.926V244.974L495.898 247.935L522.776 231.808L517.495 223.006L490.961 238.926Z" fill="#20201F"/>
<path d="M405.75 295.685V250.723H395.485V295.685L357.502 318.475L362.784 327.277L400.617 304.577L438.451 327.277L443.732 318.475L405.75 295.685Z" fill="#20201F"/>
<path d="M395.485 314.807V346.856H405.75V314.803L400.621 311.726L395.485 314.807Z" fill="#20201F"/>
<path d="M389.325 292.194V286.151L362.784 270.227L357.502 279.029L384.385 295.159L389.325 292.194Z" fill="#20201F"/>
<path d="M411.917 286.147V292.194L416.854 295.156L443.732 279.029L438.451 270.227L411.917 286.147Z" fill="#20201F"/>
<path d="M405.75 390.127V345.164H395.485V390.127L357.502 412.916L362.784 421.719L400.617 399.019L438.451 421.719L443.732 412.916L405.75 390.127Z" fill="#20201F"/>
<path d="M395.485 409.25V441.298H405.75V409.245L400.621 406.168L395.485 409.25Z" fill="#20201F"/>
<path d="M389.325 386.637V380.594L362.784 364.669L357.502 373.472L384.385 389.601L389.325 386.637Z" fill="#20201F"/>
<path d="M411.917 380.589V386.637L416.854 389.599L443.732 373.472L438.451 364.669L411.917 380.589Z" fill="#20201F"/>
</g>
<g clip-path="url(#clip3_170_14098)">
<path d="M484.794 342.906V297.943H474.528V342.906L436.546 365.695L441.827 374.498L479.661 351.798L517.494 374.498L522.776 365.695L484.794 342.906Z" fill="#20201F"/>
<path d="M474.528 362.028V394.076H484.794V362.024L479.664 358.946L474.528 362.028Z" fill="#20201F"/>
<path d="M468.369 339.415V333.372L441.827 317.447L436.546 326.25L463.428 342.379L468.369 339.415Z" fill="#20201F"/>
<path d="M490.961 333.367V339.415L495.897 342.377L522.776 326.25L517.494 317.447L490.961 333.367Z" fill="#20201F"/>
<path d="M642.882 342.906V297.943H632.616V342.906L594.634 365.695L599.916 374.498L637.749 351.798L675.583 374.498L680.864 365.695L642.882 342.906Z" fill="#20201F"/>
<path d="M632.616 362.028V394.076H642.882V362.024L637.753 358.946L632.616 362.028Z" fill="#20201F"/>
<path d="M626.457 339.415V333.372L599.916 317.447L594.634 326.25L621.517 342.379L626.457 339.415Z" fill="#20201F"/>
<path d="M649.049 333.367V339.415L653.986 342.377L680.864 326.25L675.583 317.447L649.049 333.367Z" fill="#20201F"/>
<path d="M474.528 267.587V299.635H484.794V267.582L479.664 264.505L474.528 267.587Z" fill="#20201F"/>
<path d="M468.369 244.974V238.931L441.827 223.006L436.546 231.808L463.428 247.938L468.369 244.974Z" fill="#20201F"/>
<path d="M490.961 238.926V244.974L495.897 247.935L522.776 231.808L517.494 223.006L490.961 238.926Z" fill="#20201F"/>
<path d="M632.616 267.587V299.635H642.882V267.582L637.753 264.505L632.616 267.587Z" fill="#20201F"/>
<path d="M626.457 244.974V238.931L599.916 223.006L594.634 231.808L621.517 247.938L626.457 244.974Z" fill="#20201F"/>
<path d="M649.049 238.926V244.974L653.986 247.935L680.864 231.808L675.583 223.006L649.049 238.926Z" fill="#20201F"/>
<path d="M563.838 295.685V250.723H553.573V295.685L515.59 318.475L520.872 327.277L558.705 304.577L596.539 327.277L601.82 318.475L563.838 295.685Z" fill="#20201F"/>
<path d="M553.573 314.807V346.856H563.838V314.803L558.709 311.726L553.573 314.807Z" fill="#20201F"/>
<path d="M547.413 292.194V286.151L520.872 270.227L515.59 279.029L542.473 295.159L547.413 292.194Z" fill="#20201F"/>
<path d="M570.005 286.147V292.194L574.942 295.156L601.82 279.029L596.539 270.227L570.005 286.147Z" fill="#20201F"/>
<path d="M563.838 390.127V345.164H553.573V390.127L515.59 412.916L520.872 421.719L558.705 399.019L596.539 421.719L601.82 412.916L563.838 390.127Z" fill="#20201F"/>
<path d="M553.573 409.25V441.298H563.838V409.245L558.709 406.168L553.573 409.25Z" fill="#20201F"/>
<path d="M547.413 386.637V380.594L520.872 364.669L515.59 373.472L542.473 389.601L547.413 386.637Z" fill="#20201F"/>
<path d="M570.005 380.589V386.637L574.942 389.599L601.82 373.472L596.539 364.669L570.005 380.589Z" fill="#20201F"/>
</g>
<g clip-path="url(#clip4_170_14098)">
<path d="M484.794 154.022V109.06H474.528V154.022L436.546 176.812L441.827 185.614L479.661 162.914L517.494 185.614L522.776 176.812L484.794 154.022Z" fill="#20201F"/>
<path d="M474.528 173.144V205.193H484.794V173.14L479.664 170.062L474.528 173.144Z" fill="#20201F"/>
<path d="M468.369 150.531V144.488L441.827 128.563L436.546 137.366L463.428 153.496L468.369 150.531Z" fill="#20201F"/>
<path d="M490.961 144.484V150.531L495.897 153.493L522.776 137.366L517.494 128.563L490.961 144.484Z" fill="#20201F"/>
<path d="M642.882 154.022V109.06H632.616V154.022L594.634 176.812L599.916 185.614L637.749 162.914L675.583 185.614L680.864 176.812L642.882 154.022Z" fill="#20201F"/>
<path d="M632.616 173.144V205.193H642.882V173.14L637.753 170.062L632.616 173.144Z" fill="#20201F"/>
<path d="M626.457 150.531V144.488L599.916 128.563L594.634 137.366L621.517 153.496L626.457 150.531Z" fill="#20201F"/>
<path d="M649.049 144.484V150.531L653.986 153.493L680.864 137.366L675.583 128.563L649.049 144.484Z" fill="#20201F"/>
<path d="M474.528 78.7028V110.751H484.794V78.6985L479.664 75.621L474.528 78.7028Z" fill="#20201F"/>
<path d="M468.369 56.0898V50.0469L441.827 34.1221L436.546 42.9246L463.428 59.0541L468.369 56.0898Z" fill="#20201F"/>
<path d="M490.961 50.0421V56.0898L495.897 59.0517L522.776 42.9246L517.494 34.1221L490.961 50.0421Z" fill="#20201F"/>
<path d="M632.616 78.7028V110.751H642.882V78.6985L637.753 75.621L632.616 78.7028Z" fill="#20201F"/>
<path d="M626.457 56.0898V50.0469L599.916 34.1221L594.634 42.9246L621.517 59.0541L626.457 56.0898Z" fill="#20201F"/>
<path d="M649.049 50.0421V56.0898L653.986 59.0517L680.864 42.9246L675.583 34.1221L649.049 50.0421Z" fill="#20201F"/>
<path d="M563.838 106.801V61.8389H553.573V106.801L515.59 129.591L520.872 138.393L558.705 115.693L596.539 138.393L601.82 129.591L563.838 106.801Z" fill="#20201F"/>
<path d="M553.573 125.924V157.972H563.838V125.919L558.709 122.842L553.573 125.924Z" fill="#20201F"/>
<path d="M547.413 103.311V97.2676L520.872 81.3428L515.59 90.1453L542.473 106.275L547.413 103.311Z" fill="#20201F"/>
<path d="M570.005 97.2628V103.311L574.942 106.272L601.82 90.1453L596.539 81.3428L570.005 97.2628Z" fill="#20201F"/>
<path d="M563.838 201.243V156.28H553.573V201.243L515.59 224.032L520.872 232.835L558.705 210.135L596.539 232.835L601.82 224.032L563.838 201.243Z" fill="#20201F"/>
<path d="M553.573 220.366V252.414H563.838V220.362L558.709 217.284L553.573 220.366Z" fill="#20201F"/>
<path d="M547.413 197.753V191.71L520.872 175.785L515.59 184.588L542.473 200.717L547.413 197.753Z" fill="#20201F"/>
<path d="M570.005 191.705V197.753L574.942 200.715L601.82 184.588L596.539 175.785L570.005 191.705Z" fill="#20201F"/>
</g>
<g clip-path="url(#clip5_170_14098)">
<path d="M168.618 437.348V392.386H158.352V437.348L120.37 460.138L125.652 468.94L163.485 446.24L201.318 468.94L206.6 460.138L168.618 437.348Z" fill="#20201F"/>
<path d="M158.352 456.47V488.519H168.618V456.466L163.489 453.389L158.352 456.47Z" fill="#20201F"/>
<path d="M152.193 433.857V427.814L125.652 411.89L120.37 420.692L147.253 436.822L152.193 433.857Z" fill="#20201F"/>
<path d="M174.785 427.81V433.857L179.722 436.819L206.6 420.692L201.318 411.89L174.785 427.81Z" fill="#20201F"/>
<path d="M326.706 437.348V392.386H316.441V437.348L278.458 460.138L283.74 468.94L321.573 446.24L359.407 468.94L364.688 460.138L326.706 437.348Z" fill="#20201F"/>
<path d="M316.441 456.47V488.519H326.706V456.466L321.577 453.389L316.441 456.47Z" fill="#20201F"/>
<path d="M310.281 433.857V427.814L283.74 411.89L278.458 420.692L305.341 436.822L310.281 433.857Z" fill="#20201F"/>
<path d="M332.873 427.81V433.857L337.81 436.819L364.688 420.692L359.407 411.89L332.873 427.81Z" fill="#20201F"/>
<path d="M158.352 362.029V394.077H168.618V362.025L163.489 358.947L158.352 362.029Z" fill="#20201F"/>
<path d="M152.193 339.416V333.373L125.652 317.448L120.37 326.251L147.253 342.38L152.193 339.416Z" fill="#20201F"/>
<path d="M174.785 333.368V339.416L179.722 342.378L206.6 326.251L201.318 317.448L174.785 333.368Z" fill="#20201F"/>
<path d="M316.441 362.029V394.077H326.706V362.025L321.577 358.947L316.441 362.029Z" fill="#20201F"/>
<path d="M310.281 339.416V333.373L283.74 317.448L278.458 326.251L305.341 342.38L310.281 339.416Z" fill="#20201F"/>
<path d="M332.873 333.368V339.416L337.81 342.378L364.688 326.251L359.407 317.448L332.873 333.368Z" fill="#20201F"/>
<path d="M247.662 390.128V345.165H237.397V390.128L199.415 412.917L204.696 421.72L242.529 399.02L280.363 421.72L285.644 412.917L247.662 390.128Z" fill="#20201F"/>
<path d="M237.397 409.25V441.298H247.662V409.245L242.533 406.168L237.397 409.25Z" fill="#20201F"/>
<path d="M231.237 386.637V380.594L204.696 364.669L199.415 373.472L226.297 389.601L231.237 386.637Z" fill="#20201F"/>
<path d="M253.83 380.589V386.637L258.766 389.599L285.644 373.472L280.363 364.669L253.83 380.589Z" fill="#20201F"/>
<path d="M247.662 484.569V439.606H237.397V484.569L199.415 507.358L204.696 516.161L242.529 493.461L280.363 516.161L285.644 507.358L247.662 484.569Z" fill="#20201F"/>
<path d="M237.397 503.692V535.741H247.662V503.688L242.533 500.61L237.397 503.692Z" fill="#20201F"/>
<path d="M231.237 481.079V475.036L204.696 459.111L199.415 467.914L226.297 484.043L231.237 481.079Z" fill="#20201F"/>
<path d="M253.83 475.031V481.079L258.766 484.041L285.644 467.914L280.363 459.111L253.83 475.031Z" fill="#20201F"/>
</g>
<g clip-path="url(#clip6_170_14098)">
<path d="M326.706 437.348V392.386H316.44V437.348L278.458 460.138L283.74 468.94L321.573 446.24L359.406 468.94L364.688 460.138L326.706 437.348Z" fill="#20201F"/>
<path d="M316.44 456.47V488.519H326.706V456.466L321.577 453.389L316.44 456.47Z" fill="#20201F"/>
<path d="M310.281 433.857V427.814L283.74 411.89L278.458 420.692L305.34 436.822L310.281 433.857Z" fill="#20201F"/>
<path d="M332.873 427.81V433.857L337.809 436.819L364.688 420.692L359.406 411.89L332.873 427.81Z" fill="#20201F"/>
<path d="M484.794 437.348V392.386H474.529V437.348L436.546 460.138L441.828 468.94L479.661 446.24L517.495 468.94L522.776 460.138L484.794 437.348Z" fill="#20201F"/>
<path d="M474.529 456.47V488.519H484.794V456.466L479.665 453.389L474.529 456.47Z" fill="#20201F"/>
<path d="M468.369 433.857V427.814L441.828 411.89L436.546 420.692L463.429 436.822L468.369 433.857Z" fill="#20201F"/>
<path d="M490.961 427.81V433.857L495.898 436.819L522.776 420.692L517.495 411.89L490.961 427.81Z" fill="#20201F"/>
<path d="M316.44 362.029V394.077H326.706V362.025L321.577 358.947L316.44 362.029Z" fill="#20201F"/>
<path d="M310.281 339.416V333.373L283.74 317.448L278.458 326.251L305.34 342.38L310.281 339.416Z" fill="#20201F"/>
<path d="M332.873 333.368V339.416L337.809 342.378L364.688 326.251L359.406 317.448L332.873 333.368Z" fill="#20201F"/>
<path d="M474.529 362.029V394.077H484.794V362.025L479.665 358.947L474.529 362.029Z" fill="#20201F"/>
<path d="M468.369 339.416V333.373L441.828 317.448L436.546 326.251L463.429 342.38L468.369 339.416Z" fill="#20201F"/>
<path d="M490.961 333.368V339.416L495.898 342.378L522.776 326.251L517.495 317.448L490.961 333.368Z" fill="#20201F"/>
<path d="M405.75 390.128V345.165H395.485V390.128L357.502 412.917L362.784 421.72L400.617 399.02L438.451 421.72L443.732 412.917L405.75 390.128Z" fill="#20201F"/>
<path d="M395.485 409.25V441.298H405.75V409.245L400.621 406.168L395.485 409.25Z" fill="#20201F"/>
<path d="M389.325 386.637V380.594L362.784 364.669L357.502 373.472L384.385 389.601L389.325 386.637Z" fill="#20201F"/>
<path d="M411.917 380.589V386.637L416.854 389.599L443.732 373.472L438.451 364.669L411.917 380.589Z" fill="#20201F"/>
<path d="M405.75 484.569V439.606H395.485V484.569L357.502 507.358L362.784 516.161L400.617 493.461L438.451 516.161L443.732 507.358L405.75 484.569Z" fill="#20201F"/>
<path d="M395.485 503.692V535.741H405.75V503.688L400.621 500.61L395.485 503.692Z" fill="#20201F"/>
<path d="M389.325 481.079V475.036L362.784 459.111L357.502 467.914L384.385 484.043L389.325 481.079Z" fill="#20201F"/>
<path d="M411.917 475.031V481.079L416.854 484.041L443.732 467.914L438.451 459.111L411.917 475.031Z" fill="#20201F"/>
</g>
<g clip-path="url(#clip7_170_14098)">
<path d="M484.794 437.348V392.386H474.528V437.348L436.546 460.138L441.827 468.94L479.661 446.24L517.494 468.94L522.776 460.138L484.794 437.348Z" fill="#20201F"/>
<path d="M474.528 456.47V488.519H484.794V456.466L479.664 453.389L474.528 456.47Z" fill="#20201F"/>
<path d="M468.369 433.857V427.814L441.827 411.89L436.546 420.692L463.428 436.822L468.369 433.857Z" fill="#20201F"/>
<path d="M490.961 427.81V433.857L495.897 436.819L522.776 420.692L517.494 411.89L490.961 427.81Z" fill="#20201F"/>
<path d="M642.882 437.348V392.386H632.616V437.348L594.634 460.138L599.916 468.94L637.749 446.24L675.583 468.94L680.864 460.138L642.882 437.348Z" fill="#20201F"/>
<path d="M632.616 456.47V488.519H642.882V456.466L637.753 453.389L632.616 456.47Z" fill="#20201F"/>
<path d="M626.457 433.857V427.814L599.916 411.89L594.634 420.692L621.517 436.822L626.457 433.857Z" fill="#20201F"/>
<path d="M649.049 427.81V433.857L653.986 436.819L680.864 420.692L675.583 411.89L649.049 427.81Z" fill="#20201F"/>
<path d="M474.528 362.029V394.077H484.794V362.025L479.664 358.947L474.528 362.029Z" fill="#20201F"/>
<path d="M468.369 339.416V333.373L441.827 317.448L436.546 326.251L463.428 342.38L468.369 339.416Z" fill="#20201F"/>
<path d="M490.961 333.368V339.416L495.897 342.378L522.776 326.251L517.494 317.448L490.961 333.368Z" fill="#20201F"/>
<path d="M632.616 362.029V394.077H642.882V362.025L637.753 358.947L632.616 362.029Z" fill="#20201F"/>
<path d="M626.457 339.416V333.373L599.916 317.448L594.634 326.251L621.517 342.38L626.457 339.416Z" fill="#20201F"/>
<path d="M649.049 333.368V339.416L653.986 342.378L680.864 326.251L675.583 317.448L649.049 333.368Z" fill="#20201F"/>
<path d="M563.838 390.128V345.165H553.573V390.128L515.59 412.917L520.872 421.72L558.705 399.02L596.539 421.72L601.82 412.917L563.838 390.128Z" fill="#20201F"/>
<path d="M553.573 409.25V441.298H563.838V409.245L558.709 406.168L553.573 409.25Z" fill="#20201F"/>
<path d="M547.413 386.637V380.594L520.872 364.669L515.59 373.472L542.473 389.601L547.413 386.637Z" fill="#20201F"/>
<path d="M570.005 380.589V386.637L574.942 389.599L601.82 373.472L596.539 364.669L570.005 380.589Z" fill="#20201F"/>
<path d="M563.838 484.569V439.606H553.573V484.569L515.59 507.358L520.872 516.161L558.705 493.461L596.539 516.161L601.82 507.358L563.838 484.569Z" fill="#20201F"/>
<path d="M553.573 503.692V535.741H563.838V503.688L558.709 500.61L553.573 503.692Z" fill="#20201F"/>
<path d="M547.413 481.079V475.036L520.872 459.111L515.59 467.914L542.473 484.043L547.413 481.079Z" fill="#20201F"/>
<path d="M570.005 475.031V481.079L574.942 484.041L601.82 467.914L596.539 459.111L570.005 475.031Z" fill="#20201F"/>
</g>
<g clip-path="url(#clip8_170_14098)">
<path d="M10.5294 437.348V392.386H0.263947V437.348L-37.7183 460.138L-32.4367 468.94L5.39668 446.24L43.2301 468.94L48.5116 460.138L10.5294 437.348Z" fill="#20201F"/>
<path d="M0.263947 456.47V488.519H10.5294V456.466L5.40025 453.389L0.263947 456.47Z" fill="#20201F"/>
<path d="M-5.89533 433.857V427.814L-32.4367 411.89L-37.7183 420.692L-10.8358 436.822L-5.89533 433.857Z" fill="#20201F"/>
<path d="M16.6967 427.81V433.857L21.6332 436.819L48.5116 420.692L43.2301 411.89L16.6967 427.81Z" fill="#20201F"/>
<path d="M168.618 437.348V392.386H158.352V437.348L120.37 460.138L125.652 468.94L163.485 446.24L201.318 468.94L206.6 460.138L168.618 437.348Z" fill="#20201F"/>
<path d="M158.352 456.47V488.519H168.618V456.466L163.489 453.389L158.352 456.47Z" fill="#20201F"/>
<path d="M152.193 433.857V427.814L125.652 411.89L120.37 420.692L147.253 436.822L152.193 433.857Z" fill="#20201F"/>
<path d="M174.785 427.81V433.857L179.722 436.819L206.6 420.692L201.318 411.89L174.785 427.81Z" fill="#20201F"/>
<path d="M0.263947 362.029V394.077H10.5294V362.025L5.40025 358.947L0.263947 362.029Z" fill="#20201F"/>
<path d="M-5.89533 339.416V333.373L-32.4367 317.448L-37.7183 326.251L-10.8358 342.38L-5.89533 339.416Z" fill="#20201F"/>
<path d="M16.6967 333.368V339.416L21.6332 342.378L48.5116 326.251L43.2301 317.448L16.6967 333.368Z" fill="#20201F"/>
<path d="M158.352 362.029V394.077H168.618V362.025L163.489 358.947L158.352 362.029Z" fill="#20201F"/>
<path d="M152.193 339.416V333.373L125.652 317.448L120.37 326.251L147.253 342.38L152.193 339.416Z" fill="#20201F"/>
<path d="M174.785 333.368V339.416L179.722 342.378L206.6 326.251L201.318 317.448L174.785 333.368Z" fill="#20201F"/>
<path d="M89.5738 390.128V345.165H79.3084V390.128L41.3262 412.917L46.6077 421.72L84.4411 399.02L122.275 421.72L127.556 412.917L89.5738 390.128Z" fill="#20201F"/>
<path d="M79.3084 409.25V441.298H89.5738V409.245L84.4447 406.168L79.3084 409.25Z" fill="#20201F"/>
<path d="M73.1491 386.637V380.594L46.6077 364.669L41.3262 373.472L68.2086 389.601L73.1491 386.637Z" fill="#20201F"/>
<path d="M95.7411 380.589V386.637L100.678 389.599L127.556 373.472L122.275 364.669L95.7411 380.589Z" fill="#20201F"/>
<path d="M89.5738 484.569V439.606H79.3084V484.569L41.3262 507.358L46.6077 516.161L84.4411 493.461L122.275 516.161L127.556 507.358L89.5738 484.569Z" fill="#20201F"/>
<path d="M79.3084 503.692V535.741H89.5738V503.688L84.4447 500.61L79.3084 503.692Z" fill="#20201F"/>
<path d="M73.1491 481.079V475.036L46.6077 459.111L41.3262 467.914L68.2086 484.043L73.1491 481.079Z" fill="#20201F"/>
<path d="M95.7411 475.031V481.079L100.678 484.041L127.556 467.914L122.275 459.111L95.7411 475.031Z" fill="#20201F"/>
</g>
<g clip-path="url(#clip9_170_14098)">
<path d="M168.618 248.465V203.502H158.352V248.465L120.37 271.254L125.652 280.056L163.485 257.356L201.318 280.056L206.6 271.254L168.618 248.465Z" fill="#20201F"/>
<path d="M158.352 267.587V299.635H168.618V267.582L163.489 264.505L158.352 267.587Z" fill="#20201F"/>
<path d="M152.193 244.974V238.931L125.652 223.006L120.37 231.808L147.253 247.938L152.193 244.974Z" fill="#20201F"/>
<path d="M174.785 238.926V244.974L179.722 247.935L206.6 231.808L201.318 223.006L174.785 238.926Z" fill="#20201F"/>
<path d="M326.706 248.465V203.502H316.441V248.465L278.458 271.254L283.74 280.056L321.573 257.356L359.407 280.056L364.688 271.254L326.706 248.465Z" fill="#20201F"/>
<path d="M316.441 267.587V299.635H326.706V267.582L321.577 264.505L316.441 267.587Z" fill="#20201F"/>
<path d="M310.281 244.974V238.931L283.74 223.006L278.458 231.808L305.341 247.938L310.281 244.974Z" fill="#20201F"/>
<path d="M332.873 238.926V244.974L337.81 247.935L364.688 231.808L359.407 223.006L332.873 238.926Z" fill="#20201F"/>
<path d="M158.352 173.145V205.194H168.618V173.141L163.489 170.063L158.352 173.145Z" fill="#20201F"/>
<path d="M152.193 150.532V144.489L125.652 128.564L120.37 137.367L147.253 153.496L152.193 150.532Z" fill="#20201F"/>
<path d="M174.785 144.484V150.532L179.722 153.494L206.6 137.367L201.318 128.564L174.785 144.484Z" fill="#20201F"/>
<path d="M316.441 173.145V205.194H326.706V173.141L321.577 170.063L316.441 173.145Z" fill="#20201F"/>
<path d="M310.281 150.532V144.489L283.74 128.564L278.458 137.367L305.341 153.496L310.281 150.532Z" fill="#20201F"/>
<path d="M332.873 144.484V150.532L337.81 153.494L364.688 137.367L359.407 128.564L332.873 144.484Z" fill="#20201F"/>
<path d="M247.662 201.244V156.281H237.397V201.244L199.415 224.033L204.696 232.836L242.529 210.136L280.363 232.836L285.644 224.033L247.662 201.244Z" fill="#20201F"/>
<path d="M237.397 220.366V252.414H247.662V220.362L242.533 217.284L237.397 220.366Z" fill="#20201F"/>
<path d="M231.237 197.753V191.71L204.696 175.785L199.415 184.588L226.297 200.717L231.237 197.753Z" fill="#20201F"/>
<path d="M253.83 191.705V197.753L258.766 200.715L285.644 184.588L280.363 175.785L253.83 191.705Z" fill="#20201F"/>
<path d="M247.662 295.685V250.723H237.397V295.685L199.415 318.475L204.696 327.277L242.529 304.577L280.363 327.277L285.644 318.475L247.662 295.685Z" fill="#20201F"/>
<path d="M237.397 314.808V346.857H247.662V314.804L242.533 311.727L237.397 314.808Z" fill="#20201F"/>
<path d="M231.237 292.195V286.152L204.696 270.228L199.415 279.03L226.297 295.16L231.237 292.195Z" fill="#20201F"/>
<path d="M253.83 286.148V292.195L258.766 295.157L285.644 279.03L280.363 270.228L253.83 286.148Z" fill="#20201F"/>
</g>
<g clip-path="url(#clip10_170_14098)">
<path d="M10.5297 248.465L5.50519 250.826L5.39697 257.357L43.2304 280.057L48.5119 271.254L10.5297 248.465Z" fill="#20201F"/>
<path d="M0.263947 267.587V299.635H10.5294V267.582L5.40025 264.505L0.263947 267.587Z" fill="#20201F"/>
<path d="M-5.89533 244.974V238.931L-32.4367 223.006L-37.7183 231.808L-10.8358 247.938L-5.89533 244.974Z" fill="#20201F"/>
<path d="M16.6967 238.926V244.974L21.6332 247.935L48.5116 231.808L43.2301 223.006L16.6967 238.926Z" fill="#20201F"/>
<path d="M168.618 248.465H158.352L120.37 271.254L125.652 280.057L163.485 257.357L201.318 280.057L206.6 271.254L168.618 248.465Z" fill="#20201F"/>
<path d="M158.352 267.587V299.635H168.618V267.582L163.489 264.505L158.352 267.587Z" fill="#20201F"/>
<path d="M152.193 244.974V238.931L125.652 223.006L120.37 231.808L147.253 247.938L152.193 244.974Z" fill="#20201F"/>
<path d="M174.785 238.926V244.974L179.722 247.935L206.6 231.808L201.318 223.006L174.785 238.926Z" fill="#20201F"/>
<path d="M79.3081 220.366V252.414H89.5736V220.362L84.4444 217.284L79.3081 220.366Z" fill="#20201F"/>
<path d="M89.5738 295.685V250.723H79.3084V295.685L41.3262 318.475L46.6077 327.277L84.4411 304.577L122.275 327.277L127.556 318.475L89.5738 295.685Z" fill="#20201F"/>
<path d="M79.3084 314.808V346.857H89.5738V314.804L84.4447 311.726L79.3084 314.808Z" fill="#20201F"/>
<path d="M73.1491 292.195V286.152L46.6077 270.228L41.3262 279.03L68.2086 295.16L73.1491 292.195Z" fill="#20201F"/>
<path d="M95.7411 286.148V292.195L100.678 295.157L127.556 279.03L122.275 270.228L95.7411 286.148Z" fill="#20201F"/>
<path d="M84.6838 198.392L41.8525 224.09L47.0993 232.835L84.6838 210.284L122.268 232.835L127.515 224.09L84.6838 198.392Z" fill="#20201F"/>
</g>
<g clip-path="url(#clip11_170_14098)">
<path d="M168.074 154.022L163.05 156.383L162.941 162.914L200.775 185.614L206.056 176.812L168.074 154.022Z" fill="#20201F"/>
<path d="M157.808 173.144V205.193H168.074V173.14L162.945 170.062L157.808 173.144Z" fill="#20201F"/>
<path d="M151.649 150.531V144.488L125.108 128.563L119.826 137.366L146.709 153.496L151.649 150.531Z" fill="#20201F"/>
<path d="M174.241 144.483V150.531L179.178 153.493L206.056 137.366L200.775 128.563L174.241 144.483Z" fill="#20201F"/>
<path d="M326.162 154.022H315.897L277.915 176.812L283.196 185.614L321.029 162.914L358.863 185.614L364.144 176.812L326.162 154.022Z" fill="#20201F"/>
<path d="M315.897 173.144V205.193H326.162V173.14L321.033 170.062L315.897 173.144Z" fill="#20201F"/>
<path d="M309.737 150.531V144.488L283.196 128.563L277.915 137.366L304.797 153.496L309.737 150.531Z" fill="#20201F"/>
<path d="M332.33 144.483V150.531L337.266 153.493L364.144 137.366L358.863 128.563L332.33 144.483Z" fill="#20201F"/>
<path d="M236.853 125.924V157.972H247.118V125.919L241.989 122.842L236.853 125.924Z" fill="#20201F"/>
<path d="M247.118 201.243V156.28H236.853V201.243L198.871 224.032L204.152 232.835L241.986 210.135L279.819 232.835L285.1 224.032L247.118 201.243Z" fill="#20201F"/>
<path d="M236.853 220.366V252.414H247.118V220.362L241.989 217.284L236.853 220.366Z" fill="#20201F"/>
<path d="M230.694 197.753V191.71L204.152 175.785L198.871 184.588L225.753 200.717L230.694 197.753Z" fill="#20201F"/>
<path d="M253.286 191.705V197.753L258.222 200.715L285.1 184.588L279.819 175.785L253.286 191.705Z" fill="#20201F"/>
<path d="M242.228 103.949L199.397 129.648L204.644 138.393L242.228 115.842L279.813 138.393L285.059 129.648L242.228 103.949Z" fill="#20201F"/>
</g>
<g clip-path="url(#clip12_170_14098)">
<path d="M484.372 59.5801L479.347 61.9408L479.239 68.4719L517.072 91.172L522.354 82.3694L484.372 59.5801Z" fill="#20201F"/>
<path d="M474.106 78.7018V110.75H484.371V78.6975L479.242 75.6201L474.106 78.7018Z" fill="#20201F"/>
<path d="M467.946 56.0888V50.0459L441.405 34.1211L436.124 42.9237L463.006 59.0531L467.946 56.0888Z" fill="#20201F"/>
<path d="M490.538 50.0411V56.0888L495.475 59.0507L522.353 42.9237L517.072 34.1211L490.538 50.0411Z" fill="#20201F"/>
<path d="M642.46 59.5801H632.194L594.212 82.3694L599.493 91.172L637.327 68.4719L675.16 91.172L680.442 82.3694L642.46 59.5801Z" fill="#20201F"/>
<path d="M632.194 78.7018V110.75H642.46V78.6975L637.33 75.6201L632.194 78.7018Z" fill="#20201F"/>
<path d="M626.035 56.0889V50.0459L599.493 34.1211L594.212 42.9237L621.094 59.0531L626.035 56.0889Z" fill="#20201F"/>
<path d="M648.627 50.0411V56.0889L653.563 59.0507L680.442 42.9237L675.16 34.1211L648.627 50.0411Z" fill="#20201F"/>
<path d="M553.15 31.4812V63.5297H563.415V31.4769L558.286 28.3994L553.15 31.4812Z" fill="#20201F"/>
<path d="M563.416 106.801V61.8379H553.15V106.801L515.168 129.59L520.45 138.392L558.283 115.692L596.116 138.392L601.398 129.59L563.416 106.801Z" fill="#20201F"/>
<path d="M553.15 125.924V157.972H563.416V125.919L558.286 122.842L553.15 125.924Z" fill="#20201F"/>
<path d="M546.991 103.311V97.2676L520.45 81.3428L515.168 90.1453L542.05 106.275L546.991 103.311Z" fill="#20201F"/>
<path d="M569.583 97.2628V103.311L574.519 106.272L601.398 90.1453L596.116 81.3428L569.583 97.2628Z" fill="#20201F"/>
<path d="M558.526 9.50684L515.694 35.2056L520.941 43.9502L558.526 21.3995L596.11 43.9502L601.357 35.2056L558.526 9.50684Z" fill="#20201F"/>
</g>
<g clip-path="url(#clip13_170_14098)">
<path d="M326.706 248.465V203.502H316.44V248.465L278.458 271.254L283.74 280.056L321.573 257.356L359.406 280.056L364.688 271.254L326.706 248.465Z" fill="#20201F"/>
<path d="M316.44 267.587V299.635H326.706V267.582L321.577 264.505L316.44 267.587Z" fill="#20201F"/>
<path d="M310.281 244.974V238.931L283.74 223.006L278.458 231.808L305.34 247.938L310.281 244.974Z" fill="#20201F"/>
<path d="M332.873 238.926V244.974L337.809 247.935L364.688 231.808L359.406 223.006L332.873 238.926Z" fill="#20201F"/>
<path d="M484.794 248.465V203.502H474.529V248.465L436.546 271.254L441.828 280.056L479.661 257.356L517.495 280.056L522.776 271.254L484.794 248.465Z" fill="#20201F"/>
<path d="M474.529 267.587V299.635H484.794V267.582L479.665 264.505L474.529 267.587Z" fill="#20201F"/>
<path d="M468.369 244.974V238.931L441.828 223.006L436.546 231.808L463.429 247.938L468.369 244.974Z" fill="#20201F"/>
<path d="M490.961 238.926V244.974L495.898 247.935L522.776 231.808L517.495 223.006L490.961 238.926Z" fill="#20201F"/>
<path d="M316.44 173.145V205.194H326.706V173.141L321.577 170.063L316.44 173.145Z" fill="#20201F"/>
<path d="M310.281 150.532V144.489L283.74 128.564L278.458 137.367L305.34 153.496L310.281 150.532Z" fill="#20201F"/>
<path d="M332.873 144.484V150.532L337.809 153.494L364.688 137.367L359.406 128.564L332.873 144.484Z" fill="#20201F"/>
<path d="M474.529 173.145V205.194H484.794V173.141L479.665 170.063L474.529 173.145Z" fill="#20201F"/>
<path d="M468.369 150.532V144.489L441.828 128.564L436.546 137.367L463.429 153.496L468.369 150.532Z" fill="#20201F"/>
<path d="M490.961 144.484V150.532L495.898 153.494L522.776 137.367L517.495 128.564L490.961 144.484Z" fill="#20201F"/>
<path d="M405.75 201.244V156.281H395.485V201.244L357.502 224.033L362.784 232.836L400.617 210.136L438.451 232.836L443.732 224.033L405.75 201.244Z" fill="#20201F"/>
<path d="M395.485 220.366V252.414H405.75V220.362L400.621 217.284L395.485 220.366Z" fill="#20201F"/>
<path d="M389.325 197.753V191.71L362.784 175.785L357.502 184.588L384.385 200.717L389.325 197.753Z" fill="#20201F"/>
<path d="M411.917 191.705V197.753L416.854 200.715L443.732 184.588L438.451 175.785L411.917 191.705Z" fill="#20201F"/>
<path d="M405.75 295.685V250.723H395.485V295.685L357.502 318.475L362.784 327.277L400.617 304.577L438.451 327.277L443.732 318.475L405.75 295.685Z" fill="#20201F"/>
<path d="M395.485 314.808V346.857H405.75V314.804L400.621 311.727L395.485 314.808Z" fill="#20201F"/>
<path d="M389.325 292.195V286.152L362.784 270.228L357.502 279.03L384.385 295.16L389.325 292.195Z" fill="#20201F"/>
<path d="M411.917 286.148V292.195L416.854 295.157L443.732 279.03L438.451 270.228L411.917 286.148Z" fill="#20201F"/>
</g>
<g clip-path="url(#clip14_170_14098)">
<path d="M484.794 248.465V203.502H474.528V248.465L436.546 271.254L441.827 280.056L479.661 257.356L517.494 280.056L522.776 271.254L484.794 248.465Z" fill="#20201F"/>
<path d="M474.528 267.587V299.635H484.794V267.582L479.664 264.505L474.528 267.587Z" fill="#20201F"/>
<path d="M468.369 244.974V238.931L441.827 223.006L436.546 231.808L463.428 247.938L468.369 244.974Z" fill="#20201F"/>
<path d="M490.961 238.926V244.974L495.897 247.935L522.776 231.808L517.494 223.006L490.961 238.926Z" fill="#20201F"/>
<path d="M642.882 248.465V203.502H632.616V248.465L594.634 271.254L599.916 280.056L637.749 257.356L675.583 280.056L680.864 271.254L642.882 248.465Z" fill="#20201F"/>
<path d="M632.616 267.587V299.635H642.882V267.582L637.753 264.505L632.616 267.587Z" fill="#20201F"/>
<path d="M626.457 244.974V238.931L599.916 223.006L594.634 231.808L621.517 247.938L626.457 244.974Z" fill="#20201F"/>
<path d="M649.049 238.926V244.974L653.986 247.935L680.864 231.808L675.583 223.006L649.049 238.926Z" fill="#20201F"/>
<path d="M474.528 173.145V205.194H484.794V173.141L479.664 170.063L474.528 173.145Z" fill="#20201F"/>
<path d="M468.369 150.532V144.489L441.827 128.564L436.546 137.367L463.428 153.496L468.369 150.532Z" fill="#20201F"/>
<path d="M490.961 144.484V150.532L495.897 153.494L522.776 137.367L517.494 128.564L490.961 144.484Z" fill="#20201F"/>
<path d="M632.616 173.145V205.194H642.882V173.141L637.753 170.063L632.616 173.145Z" fill="#20201F"/>
<path d="M626.457 150.532V144.489L599.916 128.564L594.634 137.367L621.517 153.496L626.457 150.532Z" fill="#20201F"/>
<path d="M649.049 144.484V150.532L653.986 153.494L680.864 137.367L675.583 128.564L649.049 144.484Z" fill="#20201F"/>
<path d="M563.838 201.244V156.281H553.573V201.244L515.59 224.033L520.872 232.836L558.705 210.136L596.539 232.836L601.82 224.033L563.838 201.244Z" fill="#20201F"/>
<path d="M553.573 220.366V252.414H563.838V220.362L558.709 217.284L553.573 220.366Z" fill="#20201F"/>
<path d="M547.413 197.753V191.71L520.872 175.785L515.59 184.588L542.473 200.717L547.413 197.753Z" fill="#20201F"/>
<path d="M570.005 191.705V197.753L574.942 200.715L601.82 184.588L596.539 175.785L570.005 191.705Z" fill="#20201F"/>
<path d="M563.838 295.685V250.723H553.573V295.685L515.59 318.475L520.872 327.277L558.705 304.577L596.539 327.277L601.82 318.475L563.838 295.685Z" fill="#20201F"/>
<path d="M553.573 314.808V346.857H563.838V314.804L558.709 311.727L553.573 314.808Z" fill="#20201F"/>
<path d="M547.413 292.195V286.152L520.872 270.228L515.59 279.03L542.473 295.16L547.413 292.195Z" fill="#20201F"/>
<path d="M570.005 286.148V292.195L574.942 295.157L601.82 279.03L596.539 270.228L570.005 286.148Z" fill="#20201F"/>
</g>
<g clip-path="url(#clip15_170_14098)">
<path d="M10.5294 531.791V486.828H0.263947V531.791L-37.7183 554.58L-32.4367 563.383L5.39668 540.683L43.2301 563.383L48.5116 554.58L10.5294 531.791Z" fill="#20201F"/>
<path d="M168.618 531.791V486.828H158.352V531.791L120.37 554.58L125.652 563.383L163.485 540.683L201.318 563.383L206.6 554.58L168.618 531.791Z" fill="#20201F"/>
<path d="M0.263947 456.471V488.52H10.5294V456.467L5.40025 453.39L0.263947 456.471Z" fill="#20201F"/>
<path d="M-5.89533 433.858V427.815L-32.4367 411.891L-37.7183 420.693L-10.8358 436.823L-5.89533 433.858Z" fill="#20201F"/>
<path d="M16.6967 427.811V433.858L21.6332 436.82L48.5116 420.693L43.2301 411.891L16.6967 427.811Z" fill="#20201F"/>
<path d="M158.352 456.471V488.52H168.618V456.467L163.489 453.39L158.352 456.471Z" fill="#20201F"/>
<path d="M152.193 433.858V427.815L125.652 411.891L120.37 420.693L147.253 436.823L152.193 433.858Z" fill="#20201F"/>
<path d="M174.785 427.811V433.858L179.722 436.82L206.6 420.693L201.318 411.891L174.785 427.811Z" fill="#20201F"/>
<path d="M89.5738 484.57V439.607H79.3084V484.57L41.3262 507.359L46.6077 516.162L84.4411 493.462L122.275 516.162L127.556 507.359L89.5738 484.57Z" fill="#20201F"/>
<path d="M79.3084 503.692V535.741H89.5738V503.688L84.4447 500.61L79.3084 503.692Z" fill="#20201F"/>
<path d="M73.1491 481.079V475.036L46.6077 459.111L41.3262 467.914L68.2086 484.043L73.1491 481.079Z" fill="#20201F"/>
<path d="M95.7411 475.031V481.079L100.678 484.041L127.556 467.914L122.275 459.111L95.7411 475.031Z" fill="#20201F"/>
</g>
<g clip-path="url(#clip16_170_14098)">
<path d="M168.618 531.791V486.828H158.352V531.791L120.37 554.58L125.652 563.383L163.485 540.683L201.318 563.383L206.6 554.58L168.618 531.791Z" fill="#20201F"/>
<path d="M326.706 531.791V486.828H316.441V531.791L278.458 554.58L283.74 563.383L321.573 540.683L359.407 563.383L364.688 554.58L326.706 531.791Z" fill="#20201F"/>
<path d="M158.352 456.471V488.52H168.618V456.467L163.489 453.39L158.352 456.471Z" fill="#20201F"/>
<path d="M152.193 433.858V427.815L125.652 411.891L120.37 420.693L147.253 436.823L152.193 433.858Z" fill="#20201F"/>
<path d="M174.785 427.811V433.858L179.722 436.82L206.6 420.693L201.318 411.891L174.785 427.811Z" fill="#20201F"/>
<path d="M316.441 456.471V488.52H326.706V456.467L321.577 453.39L316.441 456.471Z" fill="#20201F"/>
<path d="M310.281 433.858V427.815L283.74 411.891L278.458 420.693L305.341 436.823L310.281 433.858Z" fill="#20201F"/>
<path d="M332.873 427.811V433.858L337.81 436.82L364.688 420.693L359.407 411.891L332.873 427.811Z" fill="#20201F"/>
<path d="M247.662 484.57V439.607H237.397V484.57L199.415 507.359L204.696 516.162L242.529 493.462L280.363 516.162L285.644 507.359L247.662 484.57Z" fill="#20201F"/>
<path d="M237.397 503.692V535.741H247.662V503.688L242.533 500.61L237.397 503.692Z" fill="#20201F"/>
<path d="M231.237 481.079V475.036L204.696 459.111L199.415 467.914L226.297 484.043L231.237 481.079Z" fill="#20201F"/>
<path d="M253.83 475.031V481.079L258.766 484.041L285.644 467.914L280.363 459.111L253.83 475.031Z" fill="#20201F"/>
</g>
<g clip-path="url(#clip17_170_14098)">
<path d="M326.706 531.791V486.828H316.44V531.791L278.458 554.58L283.74 563.383L321.573 540.683L359.406 563.383L364.688 554.58L326.706 531.791Z" fill="#20201F"/>
<path d="M484.794 531.791V486.828H474.529V531.791L436.546 554.58L441.828 563.383L479.661 540.683L517.495 563.383L522.776 554.58L484.794 531.791Z" fill="#20201F"/>
<path d="M316.44 456.471V488.52H326.706V456.467L321.577 453.39L316.44 456.471Z" fill="#20201F"/>
<path d="M310.281 433.858V427.815L283.74 411.891L278.458 420.693L305.34 436.823L310.281 433.858Z" fill="#20201F"/>
<path d="M332.873 427.811V433.858L337.809 436.82L364.688 420.693L359.406 411.891L332.873 427.811Z" fill="#20201F"/>
<path d="M474.529 456.471V488.52H484.794V456.467L479.665 453.39L474.529 456.471Z" fill="#20201F"/>
<path d="M468.369 433.858V427.815L441.828 411.891L436.546 420.693L463.429 436.823L468.369 433.858Z" fill="#20201F"/>
<path d="M490.961 427.811V433.858L495.898 436.82L522.776 420.693L517.495 411.891L490.961 427.811Z" fill="#20201F"/>
<path d="M405.75 484.57V439.607H395.485V484.57L357.502 507.359L362.784 516.162L400.617 493.462L438.451 516.162L443.732 507.359L405.75 484.57Z" fill="#20201F"/>
<path d="M395.485 503.692V535.741H405.75V503.688L400.621 500.61L395.485 503.692Z" fill="#20201F"/>
<path d="M389.325 481.079V475.036L362.784 459.111L357.502 467.914L384.385 484.043L389.325 481.079Z" fill="#20201F"/>
<path d="M411.917 475.031V481.079L416.854 484.041L443.732 467.914L438.451 459.111L411.917 475.031Z" fill="#20201F"/>
</g>
<g clip-path="url(#clip18_170_14098)">
<path d="M484.794 531.791V486.828H474.528V531.791L436.546 554.58L441.827 563.383L479.661 540.683L517.494 563.383L522.776 554.58L484.794 531.791Z" fill="#20201F"/>
<path d="M642.882 531.791V486.828H632.616V531.791L594.634 554.58L599.916 563.383L637.749 540.683L675.583 563.383L680.864 554.58L642.882 531.791Z" fill="#20201F"/>
<path d="M474.528 456.471V488.52H484.794V456.467L479.664 453.39L474.528 456.471Z" fill="#20201F"/>
<path d="M468.369 433.858V427.815L441.827 411.891L436.546 420.693L463.428 436.823L468.369 433.858Z" fill="#20201F"/>
<path d="M490.961 427.811V433.858L495.897 436.82L522.776 420.693L517.494 411.891L490.961 427.811Z" fill="#20201F"/>
<path d="M632.616 456.471V488.52H642.882V456.467L637.753 453.39L632.616 456.471Z" fill="#20201F"/>
<path d="M626.457 433.858V427.815L599.916 411.891L594.634 420.693L621.517 436.823L626.457 433.858Z" fill="#20201F"/>
<path d="M649.049 427.811V433.858L653.986 436.82L680.864 420.693L675.583 411.891L649.049 427.811Z" fill="#20201F"/>
<path d="M563.838 484.57V439.607H553.573V484.57L515.59 507.359L520.872 516.162L558.705 493.462L596.539 516.162L601.82 507.359L563.838 484.57Z" fill="#20201F"/>
<path d="M553.573 503.692V535.741H563.838V503.688L558.709 500.61L553.573 503.692Z" fill="#20201F"/>
<path d="M547.413 481.079V475.036L520.872 459.111L515.59 467.914L542.473 484.043L547.413 481.079Z" fill="#20201F"/>
<path d="M570.005 475.031V481.079L574.942 484.041L601.82 467.914L596.539 459.111L570.005 475.031Z" fill="#20201F"/>
</g>
<g clip-path="url(#clip19_170_14098)">
<path d="M316.44 171.678V203.727H326.706V171.674L321.577 168.597L316.44 171.678Z" fill="#20201F"/>
<path d="M310.281 149.065V143.022L283.74 127.098L278.458 135.9L305.34 152.03L310.281 149.065Z" fill="#20201F"/>
<path d="M332.873 143.018V149.065L337.809 152.027L364.688 135.9L359.406 127.098L332.873 143.018Z" fill="#20201F"/>
<path d="M484.794 152.556V107.594H474.529V152.556L436.546 175.346L441.828 184.148L479.661 161.448L517.495 184.148L522.776 175.346L484.794 152.556Z" fill="#20201F"/>
<path d="M474.529 171.678V203.727H484.794V171.674L479.665 168.597L474.529 171.678Z" fill="#20201F"/>
<path d="M468.369 149.065V143.022L441.828 127.098L436.546 135.9L463.429 152.03L468.369 149.065Z" fill="#20201F"/>
<path d="M490.961 143.018V149.065L495.898 152.027L522.776 135.9L517.495 127.098L490.961 143.018Z" fill="#20201F"/>
<path d="M474.529 77.237V109.285H484.794V77.2327L479.665 74.1552L474.529 77.237Z" fill="#20201F"/>
<path d="M468.369 54.624V48.5811L441.828 32.6562L436.546 41.4588L463.429 57.5883L468.369 54.624Z" fill="#20201F"/>
<path d="M490.961 48.5763V54.624L495.898 57.5859L522.776 41.4588L517.495 32.6562L490.961 48.5763Z" fill="#20201F"/>
<path d="M405.75 105.336V60.373H395.485V105.336L357.502 128.125L362.784 136.928L400.617 114.228L438.451 136.928L443.732 128.125L405.75 105.336Z" fill="#20201F"/>
<path d="M395.485 124.458V156.506H405.75V124.453L400.621 121.376L395.485 124.458Z" fill="#20201F"/>
<path d="M389.325 101.845V95.8018L362.784 79.877L357.502 88.6795L384.385 104.809L389.325 101.845Z" fill="#20201F"/>
<path d="M411.917 95.797V101.845L416.854 104.807L443.732 88.6795L438.451 79.877L411.917 95.797Z" fill="#20201F"/>
<path d="M405.75 199.777V154.814H395.485V199.777L357.502 222.566L362.784 231.369L400.617 208.669L438.451 231.369L443.732 222.566L405.75 199.777Z" fill="#20201F"/>
<path d="M395.485 218.9V250.949H405.75V218.896L400.621 215.818L395.485 218.9Z" fill="#20201F"/>
<path d="M389.325 196.287V190.244L362.784 174.319L357.502 183.122L384.385 199.251L389.325 196.287Z" fill="#20201F"/>
<path d="M411.917 190.239V196.287L416.854 199.249L443.732 183.122L438.451 174.319L411.917 190.239Z" fill="#20201F"/>
<path d="M321.316 149.619L278.484 175.318L283.731 184.063L321.316 161.512L358.9 184.063L364.147 175.318L321.316 149.619Z" fill="#20201F"/>
</g>
<path d="M400.619 103.824L357.788 129.523L363.034 138.268L400.619 115.717L438.203 138.268L443.45 129.523L400.619 103.824Z" fill="#20201F"/>
<path d="M326.352 248.413V204.891H316.432V248.413L279.726 270.472L284.83 278.992L321.392 257.02L357.953 278.992L363.057 270.472L326.352 248.413Z" fill="#DDDDDA"/>
<path d="M316.432 266.923V297.944H326.352V266.919L321.395 263.94L316.432 266.923Z" fill="#DDDDDA"/>
<path d="M310.479 245.034V239.185L284.83 223.771L279.726 232.291L305.705 247.904L310.479 245.034Z" fill="#DDDDDA"/>
<path d="M332.312 239.18V245.034L337.082 247.901L363.057 232.291L357.953 223.771L332.312 239.18Z" fill="#DDDDDA"/>
<defs>
<clipPath id="clip0_170_14098">
<rect width="158.088" height="94.4422" fill="white" transform="translate(0.26416 297.943)"/>
</clipPath>
<clipPath id="clip1_170_14098">
<rect width="158.088" height="94.4422" fill="white" transform="translate(158.353 297.943)"/>
</clipPath>
<clipPath id="clip2_170_14098">
<rect width="158.088" height="94.4422" fill="white" transform="translate(316.44 297.943)"/>
</clipPath>
<clipPath id="clip3_170_14098">
<rect width="158.088" height="94.4422" fill="white" transform="translate(474.528 297.943)"/>
</clipPath>
<clipPath id="clip4_170_14098">
<rect width="158.088" height="94.4422" fill="white" transform="translate(474.528 109.06)"/>
</clipPath>
<clipPath id="clip5_170_14098">
<rect width="158.088" height="94.4422" fill="white" transform="translate(158.353 392.386)"/>
</clipPath>
<clipPath id="clip6_170_14098">
<rect width="158.088" height="94.4422" fill="white" transform="translate(316.44 392.386)"/>
</clipPath>
<clipPath id="clip7_170_14098">
<rect width="158.088" height="94.4422" fill="white" transform="translate(474.528 392.386)"/>
</clipPath>
<clipPath id="clip8_170_14098">
<rect width="158.088" height="94.4422" fill="white" transform="translate(0.26416 392.386)"/>
</clipPath>
<clipPath id="clip9_170_14098">
<rect width="158.088" height="94.4422" fill="white" transform="translate(158.353 203.502)"/>
</clipPath>
<clipPath id="clip10_170_14098">
<rect width="158.33" height="108.331" fill="white" transform="translate(0.565918 189.613)"/>
</clipPath>
<clipPath id="clip11_170_14098">
<rect width="158.33" height="108.331" fill="white" transform="translate(158.11 95.1709)"/>
</clipPath>
<clipPath id="clip12_170_14098">
<rect width="158.33" height="108.331" fill="white" transform="translate(474.408 0.728516)"/>
</clipPath>
<clipPath id="clip13_170_14098">
<rect width="158.088" height="94.4422" fill="white" transform="translate(316.44 203.502)"/>
</clipPath>
<clipPath id="clip14_170_14098">
<rect width="158.088" height="94.4422" fill="white" transform="translate(474.528 203.502)"/>
</clipPath>
<clipPath id="clip15_170_14098">
<rect width="158.088" height="94.4422" fill="white" transform="translate(0.26416 486.828)"/>
</clipPath>
<clipPath id="clip16_170_14098">
<rect width="158.088" height="94.4422" fill="white" transform="translate(158.353 486.828)"/>
</clipPath>
<clipPath id="clip17_170_14098">
<rect width="158.088" height="94.4422" fill="white" transform="translate(316.44 486.828)"/>
</clipPath>
<clipPath id="clip18_170_14098">
<rect width="158.088" height="94.4422" fill="white" transform="translate(474.528 486.828)"/>
</clipPath>
<clipPath id="clip19_170_14098">
<rect width="158.088" height="94.4422" fill="white" transform="translate(316.44 107.594)"/>
</clipPath>
</defs>
</svg>
