<svg width="648" height="185" viewBox="0 0 648 185" fill="none" xmlns="http://www.w3.org/2000/svg">
<line y1="-2.70397" x2="50.4535" y2="-2.70397" transform="matrix(0.857493 0.514496 0.514496 -0.857493 3.18188 49.2036)" stroke="#20201F" stroke-width="5.40794"/>
<line x1="1.7907" y1="53.3745" x2="45.0542" y2="27.4164" stroke="#20201F" stroke-width="5.40794"/>
<line x1="3.72279" y1="100.739" x2="3.72279" y2="50.285" stroke="#20201F" stroke-width="5.40794"/>
<line y1="-2.70397" x2="50.4535" y2="-2.70397" transform="matrix(-0.857493 -0.514496 -0.514496 0.857493 164.339 55.6931)" stroke="#20201F" stroke-width="5.40794"/>
<line y1="-2.70397" x2="50.4535" y2="-2.70397" transform="matrix(0.857493 0.514496 0.514496 -0.857493 163.257 49.2036)" stroke="#20201F" stroke-width="5.40794"/>
<line x1="161.866" y1="53.3745" x2="205.129" y2="27.4164" stroke="#20201F" stroke-width="5.40794"/>
<line x1="163.798" y1="100.739" x2="163.798" y2="50.285" stroke="#20201F" stroke-width="5.40794"/>
<line x1="85.6922" y1="100.194" x2="42.4287" y2="126.152" stroke="#20201F" stroke-width="5.40794"/>
<line y1="-2.70397" x2="50.4535" y2="-2.70397" transform="matrix(-0.857493 -0.514496 -0.514496 0.857493 84.301 104.365)" stroke="#20201F" stroke-width="5.40794"/>
<line y1="-2.70397" x2="50.4535" y2="-2.70397" transform="matrix(0.857493 0.514496 0.514496 -0.857493 83.2195 97.8752)" stroke="#20201F" stroke-width="5.40794"/>
<line x1="81.8283" y1="102.046" x2="125.092" y2="76.088" stroke="#20201F" stroke-width="5.40794"/>
<line x1="83.7603" y1="102.902" x2="83.7603" y2="52.4483" stroke="#20201F" stroke-width="5.40794"/>
<line x1="83.7603" y1="149.41" x2="83.7603" y2="98.9566" stroke="#20201F" stroke-width="5.40794"/>
<line x1="165.73" y1="148.865" x2="122.466" y2="174.823" stroke="#20201F" stroke-width="5.40794"/>
<line y1="-2.70397" x2="50.4535" y2="-2.70397" transform="matrix(-0.857493 -0.514496 -0.514496 0.857493 164.339 153.036)" stroke="#20201F" stroke-width="5.40794"/>
<line y1="-2.70397" x2="50.4535" y2="-2.70397" transform="matrix(0.857493 0.514496 0.514496 -0.857493 163.257 146.547)" stroke="#20201F" stroke-width="5.40794"/>
<line x1="161.866" y1="150.717" x2="205.129" y2="124.759" stroke="#20201F" stroke-width="5.40794"/>
<line x1="163.798" y1="151.573" x2="163.798" y2="101.12" stroke="#20201F" stroke-width="5.40794"/>
<line x1="85.6922" y1="2.85086" x2="42.4287" y2="28.809" stroke="#20201F" stroke-width="5.40794"/>
<line y1="-2.70397" x2="50.4535" y2="-2.70397" transform="matrix(0.857493 0.514496 0.514496 -0.857493 83.2195 0.532227)" stroke="#20201F" stroke-width="5.40794"/>
<line x1="83.7603" y1="52.0671" x2="83.7603" y2="1.61363" stroke="#20201F" stroke-width="5.40794"/>
<line y1="-2.70397" x2="50.4535" y2="-2.70397" transform="matrix(-0.857493 -0.514496 -0.514496 0.857493 84.301 201.708)" stroke="#20201F" stroke-width="5.40794"/>
<line x1="81.8283" y1="199.389" x2="125.092" y2="173.431" stroke="#20201F" stroke-width="5.40794"/>
<line x1="83.7603" y1="200.245" x2="83.7603" y2="149.791" stroke="#20201F" stroke-width="5.40794"/>
<line y1="-2.70397" x2="50.4535" y2="-2.70397" transform="matrix(0.857493 0.514496 0.514496 -0.857493 3.18188 146.547)" stroke="#20201F" stroke-width="5.40794"/>
<line x1="1.7907" y1="150.717" x2="45.0542" y2="124.759" stroke="#20201F" stroke-width="5.40794"/>
<line x1="3.72279" y1="151.573" x2="3.72279" y2="101.12" stroke="#20201F" stroke-width="5.40794"/>
<line x1="3.72279" y1="198.082" x2="3.72279" y2="147.628" stroke="#20201F" stroke-width="5.40794"/>
<line y1="-2.70397" x2="50.4535" y2="-2.70397" transform="matrix(-0.857493 -0.514496 -0.514496 0.857493 244.376 104.365)" stroke="#20201F" stroke-width="5.40794"/>
<line y1="-2.70397" x2="50.4535" y2="-2.70397" transform="matrix(0.857493 0.514496 0.514496 -0.857493 243.294 97.8752)" stroke="#20201F" stroke-width="5.40794"/>
<line x1="241.903" y1="102.046" x2="285.167" y2="76.088" stroke="#20201F" stroke-width="5.40794"/>
<line x1="243.835" y1="102.902" x2="243.835" y2="52.4483" stroke="#20201F" stroke-width="5.40794"/>
<line x1="243.835" y1="149.41" x2="243.835" y2="98.9566" stroke="#20201F" stroke-width="5.40794"/>
<line x1="245.767" y1="2.85086" x2="202.504" y2="28.809" stroke="#20201F" stroke-width="5.40794"/>
<line y1="-2.70397" x2="50.4535" y2="-2.70397" transform="matrix(0.857493 0.514496 0.514496 -0.857493 243.294 0.532227)" stroke="#20201F" stroke-width="5.40794"/>
<line x1="243.835" y1="52.0671" x2="243.835" y2="1.61363" stroke="#20201F" stroke-width="5.40794"/>
<line y1="-2.70397" x2="50.4535" y2="-2.70397" transform="matrix(-0.857493 -0.514496 -0.514496 0.857493 244.376 201.708)" stroke="#20201F" stroke-width="5.40794"/>
<line x1="241.903" y1="199.389" x2="285.167" y2="173.431" stroke="#20201F" stroke-width="5.40794"/>
<line x1="243.835" y1="200.245" x2="243.835" y2="149.791" stroke="#20201F" stroke-width="5.40794"/>
<line x1="325.807" y1="51.5222" x2="282.544" y2="77.4804" stroke="#20201F" stroke-width="5.40794"/>
<line y1="-2.70397" x2="50.4535" y2="-2.70397" transform="matrix(-0.857493 -0.514496 -0.514496 0.857493 324.416 55.6931)" stroke="#20201F" stroke-width="5.40794"/>
<line y1="-2.70397" x2="50.4535" y2="-2.70397" transform="matrix(0.857493 0.514496 0.514496 -0.857493 323.334 49.2036)" stroke="#20201F" stroke-width="5.40794"/>
<line x1="321.943" y1="53.3745" x2="365.207" y2="27.4164" stroke="#20201F" stroke-width="5.40794"/>
<line x1="323.875" y1="100.739" x2="323.875" y2="50.285" stroke="#20201F" stroke-width="5.40794"/>
<line x1="485.882" y1="51.5222" x2="442.618" y2="77.4804" stroke="#20201F" stroke-width="5.40794"/>
<line y1="-2.70397" x2="50.4535" y2="-2.70397" transform="matrix(-0.857493 -0.514496 -0.514496 0.857493 484.491 55.6931)" stroke="#20201F" stroke-width="5.40794"/>
<line y1="-2.70397" x2="50.4535" y2="-2.70397" transform="matrix(0.857493 0.514496 0.514496 -0.857493 483.409 49.2036)" stroke="#20201F" stroke-width="5.40794"/>
<line x1="482.018" y1="53.3745" x2="525.282" y2="27.4164" stroke="#20201F" stroke-width="5.40794"/>
<line x1="483.95" y1="100.739" x2="483.95" y2="50.285" stroke="#20201F" stroke-width="5.40794"/>
<line x1="405.845" y1="100.194" x2="362.581" y2="126.152" stroke="#20201F" stroke-width="5.40794"/>
<line y1="-2.70397" x2="50.4535" y2="-2.70397" transform="matrix(-0.857493 -0.514496 -0.514496 0.857493 404.453 104.365)" stroke="#20201F" stroke-width="5.40794"/>
<line y1="-2.70397" x2="50.4535" y2="-2.70397" transform="matrix(0.857493 0.514496 0.514496 -0.857493 403.372 97.8752)" stroke="#20201F" stroke-width="5.40794"/>
<line x1="401.981" y1="102.046" x2="445.244" y2="76.088" stroke="#20201F" stroke-width="5.40794"/>
<line x1="403.913" y1="102.902" x2="403.913" y2="52.4483" stroke="#20201F" stroke-width="5.40794"/>
<line x1="403.913" y1="149.41" x2="403.913" y2="98.9566" stroke="#20201F" stroke-width="5.40794"/>
<line x1="485.882" y1="148.865" x2="442.618" y2="174.823" stroke="#20201F" stroke-width="5.40794"/>
<line y1="-2.70397" x2="50.4535" y2="-2.70397" transform="matrix(-0.857493 -0.514496 -0.514496 0.857493 484.491 153.036)" stroke="#20201F" stroke-width="5.40794"/>
<line y1="-2.70397" x2="50.4535" y2="-2.70397" transform="matrix(0.857493 0.514496 0.514496 -0.857493 483.409 146.547)" stroke="#20201F" stroke-width="5.40794"/>
<line x1="482.018" y1="150.717" x2="525.282" y2="124.759" stroke="#20201F" stroke-width="5.40794"/>
<line x1="483.95" y1="151.573" x2="483.95" y2="101.12" stroke="#20201F" stroke-width="5.40794"/>
<line x1="483.95" y1="198.082" x2="483.95" y2="147.628" stroke="#20201F" stroke-width="5.40794"/>
<line x1="405.845" y1="2.85086" x2="362.581" y2="28.809" stroke="#20201F" stroke-width="5.40794"/>
<line y1="-2.70397" x2="50.4535" y2="-2.70397" transform="matrix(0.857493 0.514496 0.514496 -0.857493 403.372 0.532227)" stroke="#20201F" stroke-width="5.40794"/>
<line x1="403.913" y1="52.0671" x2="403.913" y2="1.61363" stroke="#20201F" stroke-width="5.40794"/>
<line y1="-2.70397" x2="50.4535" y2="-2.70397" transform="matrix(-0.857493 -0.514496 -0.514496 0.857493 404.453 201.708)" stroke="#20201F" stroke-width="5.40794"/>
<line x1="401.981" y1="199.389" x2="445.244" y2="173.431" stroke="#20201F" stroke-width="5.40794"/>
<line x1="403.913" y1="200.245" x2="403.913" y2="149.791" stroke="#20201F" stroke-width="5.40794"/>
<line x1="325.807" y1="148.865" x2="282.544" y2="174.823" stroke="#20201F" stroke-width="5.40794"/>
<line y1="-2.70397" x2="50.4535" y2="-2.70397" transform="matrix(-0.857493 -0.514496 -0.514496 0.857493 324.416 153.036)" stroke="#20201F" stroke-width="5.40794"/>
<line y1="-2.70397" x2="50.4535" y2="-2.70397" transform="matrix(0.857493 0.514496 0.514496 -0.857493 323.334 146.547)" stroke="#20201F" stroke-width="5.40794"/>
<line x1="321.943" y1="150.717" x2="365.207" y2="124.759" stroke="#20201F" stroke-width="5.40794"/>
<line x1="323.875" y1="151.573" x2="323.875" y2="101.12" stroke="#20201F" stroke-width="5.40794"/>
<line x1="323.875" y1="198.082" x2="323.875" y2="147.628" stroke="#20201F" stroke-width="5.40794"/>
<line x1="565.92" y1="100.194" x2="522.656" y2="126.152" stroke="#20201F" stroke-width="5.40794"/>
<line y1="-2.70397" x2="50.4535" y2="-2.70397" transform="matrix(-0.857493 -0.514496 -0.514496 0.857493 564.528 104.365)" stroke="#20201F" stroke-width="5.40794"/>
<line y1="-2.70397" x2="50.4535" y2="-2.70397" transform="matrix(0.857493 0.514496 0.514496 -0.857493 563.447 97.8752)" stroke="#20201F" stroke-width="5.40794"/>
<line x1="562.056" y1="102.046" x2="605.319" y2="76.088" stroke="#20201F" stroke-width="5.40794"/>
<line x1="563.988" y1="102.902" x2="563.988" y2="52.4483" stroke="#20201F" stroke-width="5.40794"/>
<line x1="563.988" y1="149.41" x2="563.988" y2="98.9566" stroke="#20201F" stroke-width="5.40794"/>
<line x1="565.92" y1="2.85086" x2="522.656" y2="28.809" stroke="#20201F" stroke-width="5.40794"/>
<line y1="-2.70397" x2="50.4535" y2="-2.70397" transform="matrix(0.857493 0.514496 0.514496 -0.857493 563.447 0.532227)" stroke="#20201F" stroke-width="5.40794"/>
<line x1="563.988" y1="52.0671" x2="563.988" y2="1.61363" stroke="#20201F" stroke-width="5.40794"/>
<line y1="-2.70397" x2="50.4535" y2="-2.70397" transform="matrix(-0.857493 -0.514496 -0.514496 0.857493 564.528 201.708)" stroke="#20201F" stroke-width="5.40794"/>
<line x1="562.056" y1="199.389" x2="605.319" y2="173.431" stroke="#20201F" stroke-width="5.40794"/>
<line x1="563.988" y1="200.245" x2="563.988" y2="149.791" stroke="#20201F" stroke-width="5.40794"/>
<line x1="645.956" y1="51.5225" x2="602.692" y2="77.4806" stroke="#20201F" stroke-width="5.40794"/>
<line y1="-2.70397" x2="50.4535" y2="-2.70397" transform="matrix(-0.857493 -0.514496 -0.514496 0.857493 644.564 55.6934)" stroke="#20201F" stroke-width="5.40794"/>
<line x1="644.024" y1="100.739" x2="644.024" y2="50.2853" stroke="#20201F" stroke-width="5.40794"/>
<line x1="645.956" y1="148.865" x2="602.692" y2="174.823" stroke="#20201F" stroke-width="5.40794"/>
<line y1="-2.70397" x2="50.4535" y2="-2.70397" transform="matrix(-0.857493 -0.514496 -0.514496 0.857493 644.564 153.036)" stroke="#20201F" stroke-width="5.40794"/>
<line x1="644.024" y1="151.573" x2="644.024" y2="101.12" stroke="#20201F" stroke-width="5.40794"/>
<line x1="644.024" y1="198.082" x2="644.024" y2="147.628" stroke="#20201F" stroke-width="5.40794"/>
</svg>
