<svg width="538" height="95" viewBox="0 0 538 95" fill="none" xmlns="http://www.w3.org/2000/svg">
<path d="M37 49.8804L0 27.6804L5.14496 19.1055L42 41.2185L78.855 19.1055L84 27.6804L47 49.8804V93.7531H37V49.8804Z" fill="#3E3E3D"/>
<path d="M505.377 91.5455C486.657 91.5455 475.617 78.1055 475.617 59.3855C475.617 40.6655 486.777 27.3455 505.137 27.3455C513.057 27.3455 520.377 30.9455 524.097 36.2255V3.10547H537.177V90.5855H524.097V82.5455C521.337 87.5855 513.897 91.5455 505.377 91.5455ZM507.057 80.1455C517.737 80.1455 525.057 71.8655 525.057 59.3855C525.057 46.9055 517.737 38.7455 507.057 38.7455C496.257 38.7455 489.057 46.9055 489.057 59.3855C489.057 71.7455 496.257 80.1455 507.057 80.1455Z" fill="#DDDDDA"/>
<path d="M473.512 40.1855C471.832 39.8255 469.792 39.4655 467.272 39.4655C458.152 39.4655 449.752 47.8655 449.752 67.3055V90.5855H436.672V28.3055H449.752V40.1855C452.632 32.7455 461.032 27.3455 468.952 27.3455C471.112 27.3455 472.312 27.4655 473.512 27.7055V40.1855Z" fill="#DDDDDA"/>
<path d="M390.222 91.5455C377.622 91.5455 368.742 84.2255 368.742 73.6655C368.742 62.8655 376.542 56.1455 390.102 54.3455L403.422 52.5455C407.022 52.0655 408.822 50.3855 408.822 47.3855C408.822 41.9855 403.902 37.7855 395.742 37.7855C388.182 37.7855 382.662 41.6255 382.062 48.5855H369.222C370.662 35.6255 380.622 27.3455 395.742 27.3455C411.702 27.3455 421.902 36.4655 421.902 50.3855V75.1055C421.902 78.7055 423.462 80.0255 426.102 80.0255C426.822 80.0255 427.542 79.9055 428.022 79.7855V90.5855C426.702 90.8255 424.422 91.3055 421.902 91.3055C415.422 91.3055 410.862 88.1855 410.382 81.4655C407.382 87.7055 399.582 91.5455 390.222 91.5455ZM392.262 81.3455C402.942 81.3455 409.182 73.9055 409.182 63.2255V60.9455L392.262 63.7055C385.302 64.7855 381.822 67.9055 381.822 73.1855C381.822 77.9855 386.022 81.3455 392.262 81.3455Z" fill="#DDDDDA"/>
<path d="M294.953 90.5854L275.633 28.3054H288.953L297.233 57.7054C299.753 67.1854 300.953 74.2654 300.953 74.2654C300.953 74.2654 302.513 67.3054 305.513 57.8254L314.513 28.3054H326.873L335.993 57.9454C338.993 67.4254 340.553 74.3854 340.553 74.3854C340.553 74.3854 341.873 67.3054 344.273 57.7054L352.433 28.3054H365.753L346.433 90.5854H334.313L325.313 61.3054C322.313 51.8254 320.753 44.7454 320.753 44.7454C320.753 44.7454 319.073 51.8254 316.073 61.1854L306.953 90.5854H294.953Z" fill="#DDDDDA"/>
<path d="M273.356 40.1855C271.676 39.8255 269.636 39.4655 267.116 39.4655C257.996 39.4655 249.596 47.8655 249.596 67.3055V90.5855H236.516V28.3055H249.596V40.1855C252.476 32.7455 260.876 27.3455 268.796 27.3455C270.956 27.3455 272.156 27.4655 273.356 27.7055V40.1855Z" fill="#DDDDDA"/>
<path d="M194.515 91.5455C176.155 91.5455 163.195 77.9855 163.195 59.3855C163.195 40.9055 176.155 27.3455 194.515 27.3455C212.515 27.3455 225.835 40.7855 225.835 59.3855C225.835 78.1055 212.515 91.5455 194.515 91.5455ZM194.515 80.1455C205.075 80.1455 212.395 71.5055 212.395 59.3855C212.395 47.2655 204.955 38.7455 194.515 38.7455C183.595 38.7455 176.515 47.3855 176.515 59.3855C176.515 71.5055 183.595 80.1455 194.515 80.1455Z" fill="#DDDDDA"/>
<path d="M106 90.5854V4.06543H162.88V16.3054H119.92V39.5854H154.84V51.8254H119.92V90.5854H106Z" fill="#DDDDDA"/>
<path d="M47 43.9054V0.105469H37V43.9054L0 66.1054L5.14496 74.6803L42 52.5673L78.855 74.6803L84 66.1054L47 43.9054Z" fill="#92928D"/>
</svg>
